<svg xmlns="http://www.w3.org/2000/svg" viewBox="0 0 1920 1080"><defs><style>.cls-4{fill:#079b9b}</style></defs><path fill="#00a8bb" d="M0 0h1920v1080H0z" id="Camada_2" data-name="Camada 2"/><path d="M1836 237c-24.34-104.56-478-110.4-525-111-133.19-1.71-306.88-3.95-507 84-279.22 122.71-421.55 338.23-474 420-95.57 149-138.35 290.45-159 384 1391.47-484.93 1686.15-686.14 1665-777Z" fill="#08aab2" id="Camada_9" data-name="Camada 9"/><path d="m0 1009 329-167L0 793l417 5 319-162L37 457l797 130 203-103-682-337 794 280 126-63-236-317 307 281 574-291v1043H0Z" fill="#05a0a8" id="Camada_5" data-name="Camada 5"/><path class="cls-4" d="m1905 1055-7-909a3222.39 3222.39 0 0 1-57 319c-13 56.11-19.91 78.61-39 101-64.27 75.4-178.87 46.48-315 51-198.34 6.58-473.53 85.19-542 253-14.34 35.15-28.1 95-2 186Z" id="Camada_6" data-name="Camada 6"/><path class="cls-4" d="M1834 375c-19.82 63.88-55.39 136-124 173-124.45 67.19-246.9-40.65-465-34-128.86 3.93-220.22 45.67-326 94-279.45 127.67-439.56 339.55-512 452l512-7c-10.09-33.53-20.36-85.67-7-144 42.18-184.15 280.8-259.47 330-275 117.66-37.14 222-36 222-36 58.82.64 104.11 9.45 184-2 57.49-8.24 90.57-13.38 121-37 69.15-53.69 66.41-157.72 65-184Z" id="Camada_7" data-name="Camada 7"/></svg>