<svg xmlns="http://www.w3.org/2000/svg" viewBox="0 0 1019 174"><defs><linearGradient id="Gradiente_sem_nome_3" x1="-47.52" y1="352.03" x2="-27.05" y2="352.03" gradientTransform="matrix(1.24 0 0 1.24 108.5 -316.49)" gradientUnits="userSpaceOnUse"><stop offset="0" stop-color="#7c1a1d"/><stop offset="1" stop-color="#94393a"/></linearGradient><style>.cls-2{fill:#625a54}.cls-11,.cls-12,.cls-13{fill:none}.cls-6{letter-spacing:-.06em}.cls-7{letter-spacing:-.04em}.cls-10{fill:#fff}.cls-11,.cls-12,.cls-13{stroke:#fff;stroke-linecap:round;stroke-linejoin:round;stroke-width:4px}.cls-12{stroke-dasharray:0 7.97}.cls-13{stroke-dasharray:0 7.79}.cls-15{fill:#96393a}</style></defs><g id="LOGO"><rect width="1019" height="174" fill="#191414"/><polygon points="986 34 754 34 777 85 754 135 986 135 986 34" fill="#c35454"/><text transform="translate(38.08 87.65)" font-family="ArialMT,Arial" font-size="10" fill="#625a54">CARNE SUÍN<tspan class="cls-6" x="61.67" y="0">A</tspan><tspan x="67.79" y="0"> COM QUEIJO GORGONZOLA, MUSSAREL</tspan><tspan class="cls-6" x="268.93" y="0">A</tspan><tspan x="275.05" y="0"> E PERNÍ</tspan><tspan class="cls-7" x="317.84" y="0">L</tspan><tspan x="323.03" y="0"> DEFUMADO.</tspan></text><polygon points="980.5 39.5 761.57 39.5 783.28 85.45 761.57 130.5 980.5 130.5 980.5 39.5" stroke="#191414" stroke-miterlimit="10" fill="none"/><path class="cls-2" d="M547.91 53c-8.56 1.23-14.12 4.28-19.75 8-1.35.94-2.58 1.88-4 2.81a37.18 37.18 0 00-4.22 2.7c-2.46 2.11-2.46 5.86-7.38 6.27-.06-5.16-5.57-4.34-5.92-1.23-.12 1.52 1.11 3.16 1.76 4.22.53.7 2.17 3.34 1.17 4.22a6.38 6.38 0 00-3 2.87c-2.34 4.69.7 11.08 4.81 11.49 1.47-1.35.7-4.69.29-6.68s.06-1.29.59-3a30.78 30.78 0 01.82-3.16c1.17 5.86 1.17 15.06 5.16 19.63 1.17 1.35 3 2.75 3.93 4.4 1.64 3-2.05 4.22-3.63 5.86-.53.53-.53.64-.41 1.58.23 2.34.41 4.81 1.47 6.86a3.31 3.31 0 01.64 1.47c0 1.47-1 5.33-.64 9.2a5 5 0 002.05.23h.88a7.75 7.75 0 00.94 3c1.47.88 5.86.53 7.91.41.23-1.76-3.11-3.75-4.69-6.51a8.45 8.45 0 01.7-8.67c1.23.29 4 4.34 4.69 5.63a18.38 18.38 0 011.47 3.81c.23.82.64 4.22.82 4.4l.64-.06c2.58-1.64 1.58 1.76 3.46 2.17 1.52.35 5.27.7 6.15-.59a2.11 2.11 0 00-.64-2.58 24 24 0 01-2.34-1.35c-1.82-1.76-3.75-7.91-2.05-10.9a9.34 9.34 0 011.52-2.05l2.58-2.87c1.93-2.46 4-5.57 7.33-5.63a16.25 16.25 0 015.8 1.47c5.16 1.88 12.07 4 17.76 4.28a107 107 0 0015.77-.7 123.77 123.77 0 0113.3-.82c1.17 3.11 1.11 8.21 1.23 11.72 2.75 1.64.94 6.15 2.46 8.85 1.17 2.05 2.23 1.23 3.93.82a14.92 14.92 0 015.33-.35c-.23-3.4-3.81-4.51-4.86-7.38s1.58-6.56 2.46-9c.53-1.52 1.35-3.28 3-1.52s-.35 6.45.88 7.91c.35.41 1.23.64 1.76 1.29 1.11 1.29.23 3.63.29 5.27a12.65 12.65 0 004.92-.59 10.88 10.88 0 014.81-.53 40.58 40.58 0 01-3.75-4.63c-1.76-2.7-3-6.39-.88-9.32.94-1.35 1.17-.88 3.11-1.35 7.38-1.76 5.63-.7 10.73.53 7.27 1.76 21.57.82 28.54-.59.64-2.81 3-4 3-7.09-.06-.06-.06-.06-.29-.12-1.52-.59-7.79-.7-8-5.16-.06-1.82 1.64-2.52 2.05-4.51s-.7-4.51-.29-6.21c2.7-.23 2.05-1.23 3.4-2.23 1.58-1.17 11.14-2.7 11.9-5.51a9.07 9.07 0 00-2.58-.7h-1.35a16.06 16.06 0 01-1.93-.06l-2.34-1.52c-3.93-2.23-8-3-12.25-4.69-4-1.58-5.51-3-7.91-5.63a30.77 30.77 0 01-3.11-3.63c-3.11-3.93-7.91-5.57-12.84-7.44a33.89 33.89 0 00-5.22-1.52c-1.93-.35-3.75-.64-5.63-1.17-5-1.47-4.4-2.11-10.9-2.58a115.75 115.75 0 00-13.54-.06c-2.23.06-4.63.23-6.86.12a51.38 51.38 0 01-6-.64 53.36 53.36 0 00-6.86-.06c-2.23.06-4.4.12-6.56 0-6.15-.53-11.6-1.29-17.35-1.29a45.32 45.32 0 00-8.21.47z" transform="translate(-.49 .32)"/><text transform="translate(812.5 64.64)" font-size="17.97" font-family="ArialMT,Arial"><tspan class="cls-10"><tspan>Queijo mussarela, </tspan><tspan x="0" y="21.57">queijo gorgonzola </tspan></tspan><tspan class="cls-10" x="0" y="43.14">e pernil defumado</tspan><tspan x="143.88" y="43.14"></tspan></text><line class="cls-11" x1="1007" y1="161" x2="1007" y2="161"/><line class="cls-12" x1="999.03" y1="161" x2="14.98" y2="161"/><line class="cls-11" x1="11" y1="161" x2="11" y2="161"/><line class="cls-13" x1="11" y1="153.21" x2="11" y2="16.89"/><line class="cls-11" x1="11" y1="13" x2="11" y2="13"/><line class="cls-12" x1="18.97" y1="13" x2="1003.02" y2="13"/><line class="cls-11" x1="1007" y1="13" x2="1007" y2="13"/><line class="cls-13" x1="1007" y1="20.79" x2="1007" y2="157.11"/><g id="Camada_1" data-name="Camada 1"><circle class="cls-10" cx="61.52" cy="126.16" r="23.6"/><path d="M39.82 131.95l.62-1.4a3.85 3.85 0 001.87.52c.54 0 .73-.11.73-.3 0-.71-3.13-.14-3.13-2.26 0-1.05.88-1.91 2.64-1.91a4.51 4.51 0 012.15.49l-.58 1.39a3.53 3.53 0 00-1.58-.42c-.57 0-.73.16-.73.37 0 .68 3.13.11 3.13 2.2 0 1-.88 1.91-2.64 1.91a5.22 5.22 0 01-2.48-.59zm11.67-1v1.73h-5v-6h5v1h-3v1h3v1h-3v1h3zm8-4.27v6h-.69L56.49 130v2.73h-2v-6h.7l2.3 2.73v-2.73zm8 0v6h-2v-2h-1v2h-2v-6h2v2h1v-2zm7.21 2.88a1.29 1.29 0 10-1.28 1.44 1.3 1.3 0 001.28-1.43zm-4.48 0a3.22 3.22 0 113.21 3 3 3 0 01-3.21-3zm11.33-.88h-1.06v1h1.06c.53-.15.78-.39.78-.81s-.25-.67-.78-.67zm-.18 3h-.88v1h-2v-6h2.85c1.65 0 2.7.87 2.7 2.27a2 2 0 01-1.11 1.88l1.25 1.85h-1.85zm2.12-6a.48.48 0 01-.48-.47 21.17 21.17 0 00-42.33 0 .49.49 0 01-.48.47.47.47 0 01-.47-.49 22.13 22.13 0 0144.25 0 .47.47 0 01-.47.49zM62 148a22.12 22.12 0 01-20.3-13.35.48.48 0 11.88-.38 21.18 21.18 0 0038.86 0 .48.48 0 01.88.38A22.13 22.13 0 0162 148z" transform="translate(-.49 .32)" fill="#383737"/><path class="cls-15" d="M81.84 125.35a.15.15 0 01-.16-.16 19.68 19.68 0 00-39.34 0 .16.16 0 01-.33 0 20 20 0 0140 0 .15.15 0 01-.15.17zM62 145.83a19.81 19.81 0 01-10.75-3.15 20.12 20.12 0 01-7.25-8.15.16.16 0 01.29-.13 19.68 19.68 0 0035.44 0 .16.16 0 11.29.13 20.21 20.21 0 01-7.26 8.16A19.81 19.81 0 0162 145.83z" transform="translate(-.49 .32)"/><path d="M51.67 139.12l.43.33.23-.75zm.17 1.19l.11-.37-.72-.54-.32.2-.54-.4 2.11-1.2.54.4-.61 2.35zm2.35.14l.34.17a.33.33 0 00.46-.37.36.36 0 00-.17-.18l-.34-.17-.28.56zm.3 1.29v-.68l-.32-.16-.27.54-.58-.3 1-2 .92.48a1 1 0 01.53.51.74.74 0 010 .63 1.05 1.05 0 01-.28.34.63.63 0 01-.38.13l.06.86-.66-.37zm1.76-1.53l1.86.62-.17.51-.61-.2-.54 1.62-.63-.21.54-1.62-.62-.2zm2.27.72l1.81.32-.09.49-1.14-.19-.06.34 1 .18-.08.51-1.05-.18-.05.35 1.17.2-.08.51-1.84-.33zm3.59.92a1 1 0 00-.35-.08.22.22 0 00-.14 0s0 .05-.05.1a.17.17 0 00.09.14 1.7 1.7 0 00.3.11 2 2 0 01.38.15.72.72 0 01.26.21.48.48 0 01.1.37.63.63 0 01-.13.39.78.78 0 01-.34.24 1.11 1.11 0 01-.48.06 1.61 1.61 0 01-.58-.11 1.36 1.36 0 01-.49-.27l.26-.49a1.59 1.59 0 00.4.26 1.43 1.43 0 00.42.11.35.35 0 00.17 0s.05-.06.06-.11a.18.18 0 00-.1-.15 2.53 2.53 0 00-.3-.11l-.38-.14a.61.61 0 01-.26-.2.56.56 0 01-.1-.37.58.58 0 01.13-.37.73.73 0 01.33-.24 1.31 1.31 0 01.48-.08 1.74 1.74 0 01.49.08 1.44 1.44 0 01.43.2l-.26.51a1.12 1.12 0 00-.37-.21zm2.11.71l.54-.08-.37-.68zm1 .69l-.18-.34-.9.14-.08.37-.68.1.61-2.36.68-.1 1.24 2.07-.69.11zm2.21-2.93l.58-.19.72 2.12-.53.18-1.3-.87.39 1.17-.58.19-.71-2.11.54-.18 1.3.87zm2.54.38l.48-.26-.58-.51zm1.15.33l-.29-.25-.79.44.05.37-.59.33-.25-2.41.59-.33 1.89 1.52-.62.33zm-.18-2.55l.53-.4 1 1.33.75-.58.34.44-1.26 1z" transform="translate(-.49 .32)"/><path d="M55.75 112.35a6.59 6.59 0 00-2.88 1.16l-.58.41a5.42 5.42 0 00-.62.39c-.36.31-.36.85-1.08.91 0-.75-.81-.63-.86-.18a1.17 1.17 0 00.26.62c.08.1.32.49.17.62a.93.93 0 00-.44.42 1.19 1.19 0 00.7 1.68c.21-.2.1-.68 0-1s0-.19.09-.44a4.49 4.49 0 01.12-.46c.17.85.17 2.2.75 2.86a4.57 4.57 0 01.62.66c.24.44-.3.62-.53.85-.08.08-.08.09-.06.23a2.79 2.79 0 00.21 1 .48.48 0 01.09.21 7.69 7.69 0 00-.09 1.34.74.74 0 00.3 0H52a1.13 1.13 0 00.14.44 3 3 0 001.15.06c0-.26-.45-.55-.68-.95a1.23 1.23 0 01.1-1.26c.18 0 .59.63.68.82a2.68 2.68 0 01.21.56c0 .12.09.62.12.64h.09c.38-.24.23.26.5.32s.77.1.9-.09a.31.31 0 00-.09-.38 3.5 3.5 0 01-.34-.2 1.72 1.72 0 01-.3-1.59 1.36 1.36 0 01.22-.3l.38-.42c.28-.36.58-.81 1.07-.82a2.37 2.37 0 01.85.21 9.8 9.8 0 002.59.62 15.6 15.6 0 002.3-.1 18.05 18.05 0 011.94-.12 6.21 6.21 0 01.18 1.71c.4.24.14.9.36 1.29s.32.18.57.12a2.18 2.18 0 01.78-.05c0-.5-.56-.66-.71-1.08s.23-1 .36-1.32.2-.48.44-.22-.05.94.13 1.15c.05.06.18.09.26.19s0 .53 0 .77a1.84 1.84 0 00.72-.09 1.59 1.59 0 01.7-.08 5.92 5.92 0 01-.55-.68 1.21 1.21 0 01-.13-1.36c.14-.2.17-.13.45-.2 1.08-.26.82-.1 1.56.08a12.58 12.58 0 004.16-.09c.09-.41.44-.59.44-1-.22-.09-1.14-.1-1.16-.75 0-.26.24-.37.3-.66s-.1-.66 0-.91c.39 0 .3-.18.5-.32s1.62-.39 1.74-.8a1.32 1.32 0 00-.38-.1h-.48l-.34-.22a12.84 12.84 0 00-1.79-.68 2.64 2.64 0 01-1.15-.82 4.49 4.49 0 01-.45-.53 4.05 4.05 0 00-1.87-1.09 4.94 4.94 0 00-.76-.22c-.28-.05-.55-.09-.82-.17a4.62 4.62 0 00-1.59-.38 16.88 16.88 0 00-2 0h-1a7.49 7.49 0 01-.88-.09 7.78 7.78 0 00-1 0h-1c-.9-.08-1.69-.19-2.53-.19a6.61 6.61 0 00-1.2.07z" transform="translate(-.49 .32)" fill="url(#Gradiente_sem_nome_3)"/><path class="cls-15" d="M66.68 134.32l-.35.53a1.34 1.34 0 01.1-.45 4 4 0 01.24-.54c.09-.18.19-.37.3-.54a3.42 3.42 0 01.29-.43 1 1 0 01.32-.33c.09 0 .11 0 .08.14a3.2 3.2 0 01-.2.4c-.1.18-.21.37-.35.58a5.77 5.77 0 01-.4.63zm-9.95-.58c-.15.18-.32.38-.51.59s-.39.45-.61.68a8 8 0 01-.62.62 5.79 5.79 0 01-.52.44q-.22.16-.3.14c-.11 0-.16-.15-.15-.32a1.81 1.81 0 01.15-.59 4.66 4.66 0 01.37-.75 6.12 6.12 0 01.51-.73c.18-.19.37-.38.58-.57a4 4 0 01.59-.45 2.17 2.17 0 01.53-.24.35.35 0 01.35 0 .37.37 0 01.08.21.64.64 0 01-.05.29l-.08.2a2.73 2.73 0 01-.3.43zm-5.25 1.17a1.56 1.56 0 01.09-.45 4 4 0 01.23-.56c.09-.19.19-.37.29-.56a2.79 2.79 0 01.29-.44.77.77 0 01.32-.3c.09 0 .13 0 .09.13a3.17 3.17 0 01-.2.43c-.1.18-.23.38-.35.58s-.27.42-.4.62-.27.39-.36.54zm24.17-1.21l-.14.16-.39.42c-.16.17-.35.34-.57.53a5.19 5.19 0 01-.61.51c-.2.16-.39.28-.54.38a.63.63 0 01-.35.14c-.07 0-.13-.08-.13-.21a2.06 2.06 0 01.18-.68 6.59 6.59 0 01.47-1 5.84 5.84 0 00.38-.75l.14-.23a1.55 1.55 0 00.14-.33 1.2 1.2 0 000-.37.76.76 0 00-.1-.37c-.17-.28-.35-.43-.57-.44a1.16 1.16 0 00-.59.14 1.72 1.72 0 00-.49.37 2.31 2.31 0 01-.26.25 10.58 10.58 0 00-1 1 13 13 0 00-.82 1.11c.06-.18.13-.35.18-.51a3.66 3.66 0 01.19-.45 5 5 0 01.26-.48c.1-.17.23-.37.38-.58v-.28a1.54 1.54 0 00-.17-.35.86.86 0 00-.23-.25c-.08-.05-.14-.05-.17 0v.05a.11.11 0 010 .05 3 3 0 00-.38.38 5.23 5.23 0 00-.4.48l-.42.48c-.14.16-.27.29-.38.4l-.68.67-.06.13-.18.18c-.16.16-.3.29-.47.43a1.6 1.6 0 01-.68.27.47.47 0 01-.38 0l.17-.21c.17-.19.35-.42.54-.67a6 6 0 00.53-.76 3.18 3.18 0 00.33-.76 1.17 1.17 0 000-.67 1 1 0 00-.25-.34.47.47 0 00-.39-.13 1.5 1.5 0 00-.62.26 1.63 1.63 0 00-.48-.23 1 1 0 00-.42 0 1.83 1.83 0 00-.75.26 4.64 4.64 0 00-.78.57 6.08 6.08 0 00-.73.79 4.48 4.48 0 00-.64 1.11c-.3.28-.61.56-.9.81a3.88 3.88 0 01-1.67.85.79.79 0 01-.57 0 .6.6 0 01-.23-.37 1.22 1.22 0 01.06-.61 3.14 3.14 0 01.35-.7 5.29 5.29 0 01.53-.69 6.32 6.32 0 01.59-.61 3.12 3.12 0 01.58-.43 1.12 1.12 0 01.45-.18c.15 0 .18.05.13.16a1.77 1.77 0 01-.29.38c-.14.15-.28.29-.44.43a3.33 3.33 0 01-.33.27 1.57 1.57 0 00.47.19.85.85 0 00.51-.05c.11-.1.23-.2.34-.32a2.56 2.56 0 00.29-.35 1 1 0 00.16-.42 1.17 1.17 0 00-.06-.51.72.72 0 00-.33-.43.91.91 0 00-.48-.13 2.14 2.14 0 00-1 .33 5.16 5.16 0 00-1 .78 6.79 6.79 0 00-.83 1l-.14.23-.33.34c-.17.17-.35.34-.57.53a6.26 6.26 0 01-.61.51 2.93 2.93 0 01-.58.4c-.17.1-.28.1-.34 0s-.09-.39.1-.85c.05-.14.13-.29.21-.47l.29-.56.34-.58c.11-.19.23-.37.34-.52s0-.1 0-.2-.13-.2-.19-.32a1.31 1.31 0 00-.24-.26c-.08-.05-.14-.06-.17 0l-.18.28a.8.8 0 00-.29-.58 1 1 0 00-.51-.17 2.3 2.3 0 00-1 .34 4.57 4.57 0 00-1 .78 6.57 6.57 0 00-.81 1.05c-.1.18-.2.35-.28.52l-.16.15a2.65 2.65 0 01-.48.44 1.61 1.61 0 01-.67.27.75.75 0 01-.4 0c.17-.18.35-.4.57-.68a8.75 8.75 0 00.58-.81 3.4 3.4 0 00.4-.82 1 1 0 000-.73.93.93 0 00-.25-.35.43.43 0 00-.39-.11 1.31 1.31 0 00-.68.3 3.2 3.2 0 00-.59.66 4.94 4.94 0 00-.47.79 3.76 3.76 0 00-.26.7 2.05 2.05 0 000 .66 1.21 1.21 0 00.17.53 5.18 5.18 0 01-.71.58c-.23.15-.39.18-.52.09s-.11-.15-.13-.3a2.92 2.92 0 01.09-.68 2 2 0 01.28-.67c.16-.25.3-.51.47-.77l3.32-5.15v-.21a1.48 1.48 0 00-.19-.32 1.54 1.54 0 00-.24-.25c-.08-.05-.15-.06-.19 0l-.26.4c-.16.25-.37.56-.58.91s-.48.76-.76 1.17l-.75 1.16-.58.91a3.94 3.94 0 00-.26.43 5.17 5.17 0 01-.34.58 6.91 6.91 0 00-.44.82 5.06 5.06 0 00-.33 1 1.86 1.86 0 000 1 1.4 1.4 0 00.39.67 1 1 0 00.68.3 1.47 1.47 0 001-.3 3.61 3.61 0 00.71-.73 1.52 1.52 0 00.82.11 1.27 1.27 0 00.48-.13l.39-.21v.37a1.09 1.09 0 00.43.76.76.76 0 00.68.14 1.71 1.71 0 00.68-.38 5 5 0 00.64-.71c.2-.28.4-.56.58-.83 0 .18-.08.38-.14.58a1.05 1.05 0 000 .45 1 1 0 00.13.43.9.9 0 00.27.34.65.65 0 00.42.14 1.07 1.07 0 00.56-.14 4.25 4.25 0 00.57-.37 5.88 5.88 0 00.51-.44l.38-.38.11-.11a.69.69 0 000 .14 1.72 1.72 0 00.19.66 1.14 1.14 0 00.47.47 1.51 1.51 0 00.77.19 2.48 2.48 0 001.16-.26 4.24 4.24 0 001-.66c.11-.1.26-.23.43-.37a1.71 1.71 0 00.11.52 1.52 1.52 0 00.4.59 1.13 1.13 0 00.8.24 1.8 1.8 0 00.9-.33 5.76 5.76 0 001-.86 1.79 1.79 0 00.44.16 1.28 1.28 0 00.49 0 1.06 1.06 0 00.48-.14l.44-.26.37-.3a3.8 3.8 0 00.27-.28l.2-.2.62-.62c-.11.21-.23.48-.37.77s-.3.66-.53 1.09a.48.48 0 000 .37.85.85 0 00.58.5.46.46 0 00.37-.05l.77-.9 1-1.15c.34-.39.66-.76 1-1.1a8.2 8.2 0 01.77-.76c-.14.23-.25.44-.35.64l-.28.59c-.08.19-.16.39-.23.59a6.53 6.53 0 00-.18.64 3.91 3.91 0 00-.08.56 2.06 2.06 0 000 .49.78.78 0 00.19.37.59.59 0 00.38.16 1.21 1.21 0 00.58-.14 4.52 4.52 0 00.66-.38c.21-.15.42-.3.59-.45a5.43 5.43 0 00.43-.38 3.74 3.74 0 00.29-.28 2.23 2.23 0 00.35-.43 1.17 1.17 0 00.19-.51.52.52 0 000-.55z" transform="translate(-.49 .32)"/></g><path d="M66 133.47a4.85 4.85 0 01.57-.9.48.48 0 00-.23 0 1.42 1.42 0 00-.69.38 5.25 5.25 0 00-.81.86 5.54 5.54 0 00-.66 1.1 2.2 2.2 0 00-.23 1.07.4.4 0 00.19.32.43.43 0 00.32.06 1.75 1.75 0 00.66-.28 3.4 3.4 0 00.66-.61 1.38 1.38 0 01-.15-.52 2 2 0 010-.64 3.5 3.5 0 01.37-.84z" transform="translate(-.49 .32)" fill="#fcfcfc"/><text transform="translate(33 70)" font-size="48" font-family="Arial-BoldMT,Arial" font-weight="700" fill="#fff">CARNE SUÍN<tspan class="cls-7" x="298.69" y="0">A</tspan></text></g></svg>