<svg id="Camada_1" data-name="Camada 1" xmlns="http://www.w3.org/2000/svg" viewBox="0 0 431.54 97.74"><defs><style>.cls-1{fill:#fffc8a}.cls-2{fill:#d7f7f7}</style></defs><path class="cls-1" d="m199.3 97.74 6.02-35.36-25.72-24.99 35.48-5.21L230.91 0l15.92 32.14 35.49 5.1-25.64 25.07 6.11 35.34-31.77-16.64-31.72 16.73zM0 73.36l11.26-19.74-9.88-20.45 22.25 4.6 16.4-15.71 2.49 22.58 20.02 10.75-20.71 9.35-4.04 22.35-15.28-16.8L0 73.36zM369 51.35l11.26-19.73-9.88-20.45 22.25 4.6L409.03.06l2.49 22.58 20.02 10.75-20.71 9.35-4.04 22.35-15.28-16.8L369 51.35z"/><path class="cls-2" d="M126.83 56.29c-6.48-3.73-13.54-4.06-18-.69-5.34 4-4.95 11.85-4.85 13.85 1 19.82 32.89 31.68 35.32 32.55 6.39-8.8 33.45-46.85 23.55-58.17-4.31-4.92-16.27-5.54-24.93-.69a25.71 25.71 0 0 0-11.09 13.15ZM354 108c-2.81-1.1-45.3-18.13-45-37 0-1.72.11-7.16 4-11 5.91-5.83 15.88-3.3 17-3a20.17 20.17 0 0 1 3-14c4.63-6.78 14-10.57 20-8 12 5.18 8.88 35.51 8 44a113.24 113.24 0 0 1-7 29Z" transform="translate(-12.2 -12.38)"/></svg>