<?xml version="1.0" encoding="utf-8"?>
<!-- Generator: Adobe Illustrator 21.0.0, SVG Export Plug-In . SVG Version: 6.00 Build 0)  -->
<svg version="1.1" xmlns="http://www.w3.org/2000/svg" xmlns:xlink="http://www.w3.org/1999/xlink" x="0px" y="0px"
	 viewBox="0 0 446 579" style="enable-background:new 0 0 446 579;" xml:space="preserve">
<style type="text/css">
	.st0{fill-rule:evenodd;clip-rule:evenodd;fill:#FFFFFF;}
	.st1{fill-rule:evenodd;clip-rule:evenodd;fill:#383737;}
	.st2{fill-rule:evenodd;clip-rule:evenodd;fill:#96393A;}
	.st3{fill-rule:evenodd;clip-rule:evenodd;fill:url(#SVGID_1_);}
	.st4{fill:#FFCBCC;}
</style>
<g id="Camada_1">
	<circle class="st0" cx="221.9" cy="221.4" r="209.1"/>
	<path class="st1" d="M25.3,275.5l5.5-12.4c4.7,2.8,11.1,4.6,16.6,4.6c4.8,0,6.5-1,6.5-2.7c0-6.3-27.8-1.2-27.8-20
		c0-9.3,7.8-16.9,23.4-16.9c6.7,0,13.7,1.4,19,4.4l-5.1,12.3c-5-2.5-9.6-3.7-14-3.7c-5,0-6.5,1.4-6.5,3.2c0,6,27.8,1,27.8,19.5
		c0,9.2-7.8,16.9-23.4,16.9C38.8,280.7,30.3,278.6,25.3,275.5z"/>
	<polygon class="st1" points="131.7,266.7 131.7,279.5 89.9,279.5 89.9,229.3 130.8,229.3 130.8,242 106.6,242 106.6,247.9 
		127.9,247.9 127.9,260.1 106.6,260.1 106.6,266.7 	"/>
	<polygon class="st1" points="202.2,229.3 202.2,279.5 188.2,279.5 169.1,256.7 169.1,279.5 152.6,279.5 152.6,229.3 166.5,229.3 
		185.6,252.1 185.6,229.3 	"/>
	<polygon class="st1" points="274.2,229.3 274.2,279.5 257.3,279.5 257.3,261 241.6,261 241.6,279.5 224.7,279.5 224.7,229.3 
		241.6,229.3 241.6,247.1 257.3,247.1 257.3,229.3 	"/>
	<path class="st1" d="M334.4,254.4c0-7.8-5-12.6-11.3-12.6c-6.3,0-11.3,4.7-11.3,12.6c0,7.8,5,12.6,11.3,12.6
		C329.3,267,334.4,262.2,334.4,254.4L334.4,254.4z M294.7,254.4c0-15.2,12-26.3,28.4-26.3c16.4,0,28.4,11.1,28.4,26.3
		c0,15.2-12,26.3-28.4,26.3C306.7,280.7,294.7,269.6,294.7,254.4z"/>
	<path class="st1" d="M395.1,242.3h-6.2v11.8h6.2c4.7,0,6.9-2.2,6.9-5.9C402,244.6,399.8,242.3,395.1,242.3L395.1,242.3z
		 M393.5,266.9h-4.6v12.6h-17v-50.3h24.2c14,0,22.9,7.3,22.9,19c0,7.3-3.4,12.7-9.5,15.8l10.6,15.5h-18.1L393.5,266.9z"/>
	<path class="st1" d="M413.8,220c-2.3,0-4.2-1.8-4.3-4.1c-3-102.1-85.4-182.1-187.6-182.1c-102.2,0-184.6,80-187.6,182.1
		c-0.1,2.3-2,4.1-4.3,4.1c0,0-0.1,0-0.1,0c-2.4-0.1-4.2-2-4.1-4.4c1.5-51.2,22.5-99.1,59.3-134.8c36.8-35.8,85.4-55.6,136.8-55.6
		c51.4,0,100,19.7,136.8,55.6c36.8,35.8,57.8,83.7,59.3,134.8c0.1,2.4-1.8,4.3-4.1,4.4C413.9,220,413.9,220,413.8,220z"/>
	<path class="st1" d="M221.9,417.6c-78.2,0-148.9-46.4-180-118.1c-0.9-2.2,0.1-4.7,2.2-5.6c2.2-0.9,4.7,0.1,5.6,2.2
		c29.8,68.6,97.4,113,172.2,113c74.8,0,142.4-44.3,172.2-113c0.9-2.2,3.4-3.2,5.6-2.2c2.2,0.9,3.2,3.5,2.2,5.6
		C370.8,371.2,300.1,417.6,221.9,417.6z"/>
	<path class="st2" d="M397.7,217.1c-0.8,0-1.4-0.6-1.4-1.4C393.2,121.1,316.7,47,221.9,47S50.7,121.1,47.6,215.7
		c0,0.8-0.7,1.4-1.5,1.4c-0.8,0-1.4-0.7-1.4-1.5c1.5-46.1,20.6-89.2,53.8-121.4c33.3-32.3,77.1-50.1,123.4-50.1S312,61.9,345.3,94.2
		c33.2,32.2,52.3,75.4,53.8,121.4C399.1,216.4,398.5,217.1,397.7,217.1C397.7,217.1,397.7,217.1,397.7,217.1z"/>
	<path class="st2" d="M221.9,398.6c-33.9,0-66.9-9.6-95.3-27.9C98.9,353,76.7,328,62.3,298.4c-0.3-0.7,0-1.6,0.7-1.9
		c0.7-0.3,1.6,0,1.9,0.7c29,59.9,90.7,98.6,157.1,98.6c66.4,0,128-38.7,157.1-98.6c0.3-0.7,1.2-1,1.9-0.7c0.7,0.3,1,1.2,0.7,1.9
		C367.2,328,345,353,317.3,370.7C288.8,389,255.8,398.6,221.9,398.6z"/>
	<path class="st1" d="M130.3,339.1l3.8,2.9l2-6.6L130.3,339.1L130.3,339.1z M131.8,349.6l1-3.2l-6.4-4.8l-2.8,1.8l-4.8-3.6
		l18.7-10.8l4.8,3.6l-5.4,20.8L131.8,349.6z"/>
	<path class="st1" d="M152.6,350.8l3,1.5c0.8,0.4,1.5,0.5,2.1,0.3c0.6-0.2,1.2-0.7,1.6-1.5c0.4-0.8,0.5-1.5,0.3-2.1
		c-0.2-0.6-0.7-1.1-1.5-1.6l-3-1.5L152.6,350.8L152.6,350.8z M153.2,362.2l0.1-6l-2.8-1.4l-2.4,4.8l-5.2-2.7l9.1-17.6l8.2,4.2
		c2.4,1.2,3.9,2.7,4.7,4.5c0.7,1.8,0.6,3.6-0.4,5.6c-0.7,1.3-1.5,2.3-2.5,3c-1,0.7-2.1,1.1-3.4,1.1l0.6,7.6L153.2,362.2z"/>
	<polygon class="st1" points="170.8,348.6 187.3,354.1 185.8,358.6 180.4,356.8 175.6,371.1 170,369.2 174.8,354.9 169.3,353.1 	"/>
	<polygon class="st1" points="190.9,355 206.9,357.8 206.1,362.2 196,360.5 195.4,363.5 204.6,365.1 203.9,369.6 194.6,368 
		194.1,371.1 204.5,372.9 203.8,377.4 187.5,374.5 	"/>
	<path class="st1" d="M222.7,363.2c-1.3-0.5-2.3-0.7-3.1-0.7c-0.5,0-0.9,0.1-1.2,0.3c-0.3,0.2-0.4,0.5-0.5,0.9
		c0,0.5,0.3,0.9,0.8,1.2c0.6,0.3,1.4,0.6,2.7,1c1.4,0.4,2.5,0.8,3.4,1.3c0.9,0.4,1.7,1.1,2.3,1.9c0.7,0.8,1,1.9,0.9,3.3
		c0,1.4-0.4,2.5-1.1,3.5c-0.7,0.9-1.7,1.6-3,2.1c-1.2,0.4-2.6,0.7-4.2,0.6c-1.7,0-3.4-0.3-5.1-1c-1.7-0.6-3.2-1.4-4.4-2.4l2.3-4.4
		c1,0.9,2.2,1.6,3.6,2.3c1.4,0.6,2.7,0.9,3.7,1c0.6,0,1.1-0.1,1.5-0.3c0.4-0.2,0.5-0.6,0.6-1c0-0.5-0.3-1-0.9-1.3
		c-0.6-0.3-1.5-0.6-2.7-1c-1.4-0.4-2.5-0.8-3.4-1.2c-0.9-0.4-1.7-1-2.3-1.8c-0.6-0.8-1-1.9-0.9-3.2c0-1.3,0.4-2.4,1.1-3.3
		c0.7-0.9,1.7-1.7,2.9-2.1c1.2-0.5,2.7-0.7,4.3-0.7c1.5,0,3,0.3,4.4,0.7c1.5,0.5,2.7,1,3.8,1.8l-2.3,4.5
		C225.1,364.2,223.9,363.7,222.7,363.2z"/>
	<path class="st1" d="M241.4,369.5l4.8-0.7l-3.3-6L241.4,369.5L241.4,369.5z M250,375.7l-1.6-3l-7.9,1.2l-0.7,3.3l-6,0.9l5.4-20.9
		l6-0.9l11,18.4L250,375.7z"/>
	<polygon class="st1" points="269.6,349.7 274.7,348 281.1,366.8 276.4,368.4 264.9,360.7 268.4,371.1 263.3,372.8 256.9,354.1 
		261.7,352.5 273.2,360.2 	"/>
	<path class="st1" d="M292.1,353.1l4.2-2.3l-5.2-4.5L292.1,353.1L292.1,353.1z M302.3,356l-2.6-2.2l-7,3.9l0.5,3.3l-5.3,2.9
		l-2.2-21.4l5.3-2.9l16.8,13.4L302.3,356z"/>
	<polygon class="st1" points="300.7,333.4 305.4,329.8 314.5,341.6 321.1,336.5 324.1,340.4 312.9,349.1 	"/>
	<linearGradient id="SVGID_1_" gradientUnits="userSpaceOnUse" x1="106.2286" y1="150.2685" x2="345.8792" y2="150.2685">
		<stop  offset="0" style="stop-color:#7C1A1D"/>
		<stop  offset="1" style="stop-color:#94393A"/>
	</linearGradient>
	<path class="st3" d="M162.5,94.1c-11.8,1.7-19.5,5.9-27.3,11l0,0c-1.9,1.3-3.6,2.6-5.5,3.9l0,0c-2,1.3-4.1,2.3-5.8,3.7l0,0
		c-3.4,2.9-3.4,8.1-10.2,8.7l0,0c-0.1-7.1-7.7-6-8.2-1.7l0,0c-0.2,2.1,1.5,4.4,2.4,5.8l0,0c0.7,1,3,4.6,1.6,5.8l0,0
		c-0.5,0.5-2.7,0.9-4.2,4l0,0c-3.2,6.5,1,15.3,6.6,15.9l0,0c2-1.9,1-6.5,0.4-9.2l0,0c-0.6-2.8,0.1-1.8,0.8-4.1l0,0
		c0.3-1,0.7-3.7,1.1-4.4l0,0c1.6,8.1,1.6,20.8,7.1,27.1l0,0c1.6,1.9,4.1,3.8,5.4,6.1l0,0c2.3,4.2-2.8,5.8-5,8.1l0,0
		c-0.7,0.7-0.7,0.9-0.6,2.2l0,0c0.3,3.2,0.6,6.6,2,9.5l0,0c0.3,0.6,0.9,1.3,0.9,2l0,0c0,2-1.4,7.4-0.9,12.7l0,0
		c1.1,0.4,1.8,0.3,2.8,0.3l0,0c0.4,0,0.7,0,1.2,0l0,0c0,1.2,0.7,3.1,1.3,4.1l0,0c2,1.2,8.1,0.7,10.9,0.6l0,0c0.3-2.4-4.3-5.2-6.5-9
		l0,0c-2.1-3.6-1.3-9.4,1-12l0,0c1.7,0.4,5.6,6,6.5,7.8l0,0c0.8,1.6,1.5,3.3,2,5.3l0,0c0.3,1.1,0.9,5.8,1.1,6.1l0,0l0.9-0.1
		c3.6-2.3,2.2,2.4,4.8,3l0,0c2.1,0.5,7.3,1,8.5-0.8l0,0c0.8-1.2-0.1-3-0.9-3.6l0,0c-1-0.7-2.3-1-3.2-1.9l0,0
		c-2.5-2.4-5.2-10.9-2.8-15.1l0,0c0.6-1.1,1.4-2,2.1-2.8l0,0l3.6-4c2.7-3.4,5.5-7.7,10.1-7.8l0,0c2.8,0,5.8,1.1,8,2l0,0
		c7.1,2.6,16.7,5.5,24.5,5.9l0,0c7.5,0.4,14.7-0.3,21.8-1l0,0c6.1-0.6,12.1-1.2,18.4-1.1l0,0c1.6,4.3,1.5,11.3,1.7,16.2l0,0
		c3.8,2.3,1.3,8.5,3.4,12.2l0,0c1.6,2.8,3.1,1.7,5.4,1.1l0,0c3.2-0.8,4.1-0.6,7.4-0.5l0,0c-0.3-4.7-5.3-6.2-6.7-10.2l0,0
		c-1.5-4.1,2.2-9.1,3.4-12.5l0,0c0.7-2.1,1.9-4.5,4.2-2.1l0,0c2.3,2.5-0.5,8.9,1.2,10.9l0,0c0.5,0.6,1.7,0.9,2.4,1.8l0,0
		c1.5,1.8,0.3,5,0.4,7.3l0,0c3,0.1,4,0,6.8-0.8l0,0c2.8-0.8,3.5-0.9,6.6-0.7l0,0c-0.9-1.3-2.7-2.5-5.2-6.4l0,0
		c-2.4-3.7-4.1-8.8-1.2-12.9l0,0c1.3-1.9,1.6-1.2,4.3-1.9l0,0c10.2-2.4,7.8-1,14.8,0.7l0,0c10,2.4,29.8,1.1,39.4-0.8l0,0
		c0.9-3.9,4.2-5.6,4.1-9.8l0,0c-0.1-0.1-0.1-0.1-0.4-0.2l0,0c-2.1-0.8-10.8-1-11-7.1l0,0c-0.1-2.5,2.3-3.5,2.8-6.2l0,0
		c0.5-2.9-1-6.2-0.4-8.6l0,0c3.7-0.3,2.8-1.7,4.7-3.1l0,0c2.2-1.6,15.4-3.7,16.4-7.6c-1.3-0.4-1.8-0.8-3.6-1l0,0c-0.4,0-1.1,0-1.9,0
		l0,0c-1.1,0-2.3,0-2.7-0.1l0,0l-2.7-1.9c-5.4-3.1-11.1-4.2-16.9-6.5l0,0c-5.6-2.2-7.6-4.2-10.9-7.8l0,0c-2.4-2.5-2.1-2.3-4.3-5l0,0
		c-4.3-5.4-10.9-7.7-17.7-10.3l0,0c-2.5-0.9-4.4-1.5-7.2-2.1l0,0c-2.7-0.5-5.2-0.9-7.8-1.6l0,0c-6.9-2-6.1-2.9-15.1-3.6l0,0
		c-6.1-0.5-12.4-0.3-18.7-0.1l0,0c-3.1,0.1-6.4,0.3-9.5,0.2l0,0c-2.8,0-5.6-0.6-8.3-0.9l0,0c-3-0.3-6.3-0.2-9.5-0.1l0,0
		c-3.1,0.1-6.1,0.2-9.1,0l0,0c-8.5-0.7-16-1.8-24-1.8l0,0C170.4,93.3,166.6,93.5,162.5,94.1L162.5,94.1z"/>
	<path class="st2" d="M263.3,296.5c-1.2,1.8-2.3,3.4-3.1,4.7l-0.3,0.1c0-1.1,0.3-2.4,0.9-4c0.6-1.6,1.3-3.2,2.1-4.8
		c0.8-1.6,1.7-3.2,2.7-4.8c1-1.6,1.8-2.8,2.6-3.8c1.1-1.6,2-2.5,2.8-2.9c0.8-0.4,1,0,0.7,1.2c-0.3,0.8-0.9,2-1.8,3.6
		c-0.9,1.6-1.9,3.3-3.1,5.1C265.7,293,264.5,294.8,263.3,296.5L263.3,296.5z M257.2,289c1.4-2.9,3.1-5.5,5-8c-0.5-0.2-1.2-0.2-2,0
		c-1.6,0.2-3.6,1.3-6.1,3.4c-2.5,2.1-4.9,4.6-7.2,7.6c-2.3,3-4.3,6.2-5.8,9.7c-1.6,3.4-2.2,6.6-2,9.5c0.1,1.3,0.7,2.2,1.7,2.8
		c1,0.6,2,0.8,2.8,0.6c1.8-0.3,3.8-1.1,5.8-2.5c2-1.4,4-3.2,5.8-5.4c-0.7-1.4-1.1-2.9-1.3-4.6c-0.2-1.7-0.1-3.6,0.4-5.7
		C254.8,294.3,255.8,291.9,257.2,289L257.2,289z M175.1,291.3c-1.3,1.6-2.8,3.4-4.5,5.3c-1.7,2-3.5,4-5.4,6
		c-1.9,2.1-3.7,3.9-5.5,5.5c-1.7,1.6-3.3,2.9-4.6,3.9c-1.3,1-2.2,1.4-2.7,1.2c-1-0.4-1.4-1.3-1.3-2.8c0.1-1.5,0.5-3.3,1.3-5.3
		c0.8-2.1,1.8-4.2,3.2-6.6c1.4-2.3,2.9-4.5,4.5-6.5c1.6-1.7,3.3-3.4,5.1-5c1.8-1.6,3.6-2.9,5.3-4c1.7-1,3.3-1.8,4.7-2.1
		c1.4-0.4,2.5-0.2,3.1,0.4c0.4,0.4,0.6,1,0.7,1.9c0,0.9-0.1,1.8-0.5,2.6l-0.7,1.8C177.3,288.5,176.4,289.7,175.1,291.3L175.1,291.3z
		 M128.6,301.7c0-1.1,0.3-2.4,0.8-4c0.5-1.6,1.2-3.2,2-4.9c0.8-1.7,1.7-3.3,2.6-4.9c0.9-1.6,1.8-2.9,2.6-3.9c1.1-1.5,2-2.4,2.8-2.7
		c0.8-0.4,1.1,0,0.8,1.1c-0.3,0.9-0.9,2.2-1.8,3.8c-0.9,1.6-2,3.4-3.1,5.2c-1.2,1.8-2.4,3.7-3.6,5.5
		C130.5,298.7,129.4,300.3,128.6,301.7L128.6,301.7z M342.8,293.6c0.1-0.1-0.3,0.4-1.2,1.4c-0.9,1-2,2.2-3.5,3.7
		c-1.5,1.5-3.1,3-5,4.7c-1.8,1.7-3.6,3.2-5.4,4.5c-1.8,1.4-3.5,2.5-4.8,3.4c-1.4,0.9-2.4,1.3-3.1,1.2c-0.7-0.1-1.1-0.7-1.1-1.9
		c0-1.2,0.5-3.2,1.6-6c1.4-3.3,2.7-6.1,4.1-8.4c1.4-2.3,2.5-4.5,3.4-6.6c0.3-0.5,0.7-1.1,1.2-2c0.5-0.9,0.9-1.8,1.2-2.9
		c0.3-1,0.4-2.1,0.4-3.3c0-1.1-0.3-2.2-0.9-3.2c-1.5-2.5-3.1-3.8-5-3.9c-1.8-0.1-3.6,0.3-5.3,1.2c-1.7,0.9-3.2,2-4.4,3.3
		c-1.2,1.3-2,2-2.3,2.2c-3.4,3.1-6.4,6.2-8.9,9.2c-2.5,3.1-5,6.4-7.3,9.9c0.6-1.6,1.1-3.1,1.6-4.5c0.5-1.3,1-2.6,1.7-4
		c0.6-1.3,1.4-2.7,2.3-4.2c0.9-1.5,2-3.2,3.4-5.2c0.3-0.5,0.2-1.4-0.1-2.5c-0.4-1.1-0.9-2.1-1.5-3.1c-0.6-1-1.3-1.7-2-2.2
		c-0.7-0.5-1.2-0.5-1.5,0.1c-0.2,0.2-0.3,0.3-0.4,0.5c0,0.1-0.2,0.3-0.4,0.5c-1.1,0.9-2.2,2-3.4,3.4c-1.2,1.3-2.4,2.7-3.6,4.2
		c-1.3,1.5-2.5,2.9-3.7,4.2c-1.2,1.4-2.4,2.6-3.4,3.6l-6,5.9c-0.2,0.4-0.4,0.8-0.6,1.1c-0.5,0.5-1,1-1.6,1.6
		c-1.4,1.4-2.7,2.6-4.1,3.8c-1.4,1.1-3.4,1.9-6,2.4c-1.1,0.5-2.2,0.5-3.4,0l1.5-1.9c1.5-1.7,3.1-3.7,4.8-5.9
		c1.8-2.2,3.3-4.4,4.7-6.7c1.4-2.3,2.3-4.5,2.9-6.7c0.6-2.2,0.5-4.2-0.1-5.9c-0.5-1.1-1.2-2.1-2.2-3c-1-0.9-2.1-1.3-3.5-1.1
		c-1.8,0.3-3.7,1-5.5,2.3c-1.4-0.9-2.7-1.6-4.2-2c-1.4-0.4-2.6-0.5-3.7-0.3c-2,0.2-4.2,0.9-6.6,2.3c-2.3,1.3-4.6,3-6.9,5
		c-2.3,2-4.4,4.3-6.5,7c-2,2.6-3.7,5.4-5,8.3c-0.3,0.6-0.5,1.2-0.8,1.8c-2.7,2.5-5.4,4.9-8,7.2c-4.4,3.7-9.4,6.3-14.8,7.5
		c-2.3,0.5-4,0.3-5-0.3c-1-0.7-1.7-1.8-2-3.2c-0.3-1.6-0.1-3.4,0.6-5.4c0.7-2.1,1.7-4.1,3.1-6.2c1.4-2.1,2.9-4.1,4.7-6.1
		c1.7-2,3.5-3.8,5.3-5.4c1.8-1.6,3.5-2.9,5.1-3.8c1.6-1,2.9-1.5,4-1.6c1.3,0,1.6,0.5,1.1,1.4c-0.5,1-1.4,2.1-2.6,3.4
		c-1.2,1.3-2.5,2.6-3.9,3.8c-1.4,1.2-2.3,2-2.9,2.4c1.4,0.8,2.7,1.4,4.1,1.7c1.4,0.3,2.9,0.2,4.5-0.5c1-0.9,2-1.8,3-2.8
		c1-1,1.9-2,2.6-3.1c0.7-1.1,1.2-2.4,1.4-3.7c0.2-1.3,0-2.8-0.6-4.5c-0.5-1.7-1.5-3-2.9-3.8c-1.5-0.8-2.9-1.2-4.2-1.1
		c-2.7,0.1-5.6,1.1-8.7,2.9c-3.1,1.8-6,4.1-8.8,6.9c-2.8,2.8-5.2,5.8-7.4,9.1c-0.4,0.7-0.8,1.3-1.2,2c-0.8,0.9-1.7,1.8-2.9,3
		c-1.5,1.5-3.1,3-5,4.7c-1.8,1.6-3.6,3.2-5.4,4.5c-1.9,1.6-3.7,2.8-5.2,3.6c-1.5,0.9-2.5,0.9-3,0.2c-1.1-1-0.8-3.5,0.9-7.5
		c0.5-1.2,1.1-2.6,1.9-4.1c0.8-1.6,1.7-3.2,2.6-4.9c1-1.7,2-3.4,3-5.1c1-1.7,2-3.2,3-4.6c0.2-0.3,0-0.9-0.4-1.8
		c-0.5-0.9-1.1-1.8-1.7-2.8c-0.7-1-1.4-1.7-2.1-2.3c-0.7-0.5-1.2-0.6-1.5-0.1l-1.6,2.5c-0.3-2.4-1.2-4.1-2.6-5.1
		c-1.5-1-3-1.5-4.5-1.5c-2.9,0.2-5.9,1.2-9,3c-3.1,1.8-6,4.1-8.7,6.9c-2.7,2.8-5.1,5.9-7.2,9.3c-0.9,1.6-1.8,3.1-2.5,4.6
		c-0.5,0.4-0.9,0.9-1.4,1.3c-1.4,1.5-2.7,2.8-4.2,3.9c-1.4,1.1-3.4,1.9-5.9,2.4c-1.3,0.3-2.5,0.3-3.6,0l0.1-0.1c1.5-1.6,3.1-3.6,5-6
		c1.9-2.3,3.6-4.7,5.2-7.2c1.6-2.5,2.8-4.9,3.6-7.3c0.8-2.4,0.8-4.6,0-6.5c-0.5-1.2-1.2-2.2-2.2-3.1c-1-0.9-2.1-1.2-3.5-1
		c-2,0.2-4,1.1-6,2.7c-1.9,1.6-3.7,3.5-5.3,5.8c-1.6,2.2-3,4.6-4.1,7c-1.1,2.4-1.9,4.5-2.3,6.2c-0.5,2.1-0.6,4-0.4,5.8
		c0.2,1.8,0.7,3.4,1.5,4.7c-2.2,2.1-4.4,3.8-6.3,5.1c-2,1.3-3.5,1.6-4.6,0.8c-0.7-0.5-1-1.3-1.1-2.7c0-1.3,0.2-3.3,0.8-6
		c0.3-1.7,1.1-3.7,2.5-5.9c1.4-2.2,2.7-4.5,4.1-6.8l29.4-45.7c0.2-0.3,0.1-0.9-0.4-1.9c-0.4-1-1-1.9-1.7-2.8
		c-0.7-0.9-1.4-1.6-2.1-2.2c-0.7-0.5-1.3-0.6-1.7-0.1c-0.1,0.2-0.9,1.4-2.3,3.6c-1.4,2.2-3.2,4.9-5.2,8.1c-2.1,3.2-4.3,6.7-6.7,10.4
		c-2.4,3.7-4.6,7.1-6.6,10.3c-2,3.2-3.8,5.9-5.2,8.1c-1.4,2.2-2.2,3.5-2.3,3.8c-0.6,1.3-1.6,3-3,5.2c-1.4,2.2-2.7,4.6-3.9,7.3
		c-1.2,2.6-2.2,5.4-2.9,8.4c-0.7,2.9-0.8,5.7-0.1,8.4c0.6,2.2,1.7,4.2,3.5,5.9c1.8,1.7,3.7,2.7,6,2.7c3.4,0.1,6.3-0.8,8.7-2.7
		c2.4-1.9,4.5-4,6.3-6.5c2.1,1,4.6,1.3,7.3,1c1.5-0.1,2.9-0.5,4.3-1.1c1.2-0.6,2.4-1.2,3.5-1.9c0,1.1,0,2.2,0.1,3.3
		c0.4,2.8,1.6,5.1,3.8,6.7c1.9,1.4,3.9,1.8,6,1.2c2-0.5,4-1.7,6-3.4c1.9-1.7,3.8-3.8,5.7-6.3c1.8-2.5,3.6-4.9,5.2-7.4
		c-0.3,1.6-0.7,3.4-1.2,5.2c-0.3,1.3-0.4,2.6-0.2,4c0.1,1.4,0.5,2.6,1.1,3.8c0.6,1.2,1.4,2.2,2.4,3c1,0.8,2.3,1.2,3.7,1.2
		c1.6,0.1,3.2-0.3,4.9-1.2c1.7-0.9,3.4-2,5-3.2c1.6-1.2,3.1-2.5,4.5-3.9c1.4-1.4,2.6-2.5,3.4-3.4c0.3-0.3,0.6-0.6,1-1
		c0,0.4,0,0.8,0.1,1.2c0.2,2.1,0.8,4.1,1.7,5.8c0.9,1.7,2.3,3.1,4.1,4.1c1.8,1.1,4.1,1.6,6.8,1.7c3.7,0.1,7.1-0.7,10.3-2.3
		c3.2-1.6,6-3.6,8.5-5.8c1-0.9,2.3-2,3.8-3.2c0.1,1.6,0.4,3.1,1,4.6c0.8,2.1,2,3.9,3.6,5.3c1.7,1.5,4,2.1,7.1,2.1c2.2,0,4.9-1,8-2.9
		c3.1-2,6.1-4.5,9-7.6c1.2,0.6,2.5,1.1,3.9,1.4c1.4,0.3,2.9,0.3,4.4,0.1c1.5-0.1,2.9-0.5,4.2-1.2c1.4-0.7,2.6-1.5,3.9-2.3
		c1.2-0.9,2.3-1.8,3.3-2.7c1-0.9,1.8-1.8,2.4-2.5c0.6-0.6,1.2-1.2,1.8-1.8c1.8-1.9,3.7-3.7,5.5-5.5c-1,1.9-2,4.2-3.2,6.8
		c-1.2,2.6-2.7,5.8-4.7,9.6c-0.5,1.1-0.5,2.2-0.1,3.3c0.4,1.1,1.1,2,2,2.8c0.9,0.8,1.9,1.3,3.1,1.6c1.2,0.3,2.2,0.1,3.2-0.5h0.3
		c1.7-2,4-4.7,6.8-8c2.8-3.3,5.6-6.7,8.6-10.2c3-3.5,5.8-6.7,8.6-9.7c2.8-3,5-5.3,6.8-6.7c-1.2,2-2.2,3.9-3.1,5.7
		c-0.9,1.8-1.7,3.5-2.5,5.3c-0.7,1.7-1.4,3.5-2,5.3c-0.6,1.8-1.1,3.7-1.6,5.7c-0.4,1.6-0.6,3.3-0.7,4.9c0,1.6,0.1,3.1,0.4,4.4
		c0.3,1.3,0.9,2.4,1.7,3.2c0.8,0.8,2,1.3,3.4,1.4c1.6,0.1,3.3-0.3,5.2-1.2c1.9-0.9,3.9-2,5.8-3.4c1.9-1.3,3.7-2.7,5.3-4
		c1.7-1.4,2.9-2.5,3.8-3.4c0.6-0.5,1.5-1.4,2.6-2.5c1.2-1.1,2.2-2.4,3.1-3.8c0.9-1.4,1.5-2.9,1.7-4.5
		C344.1,296.7,343.8,295.1,342.8,293.6z"/>
</g>
<g id="Camada_2">
	<g>
		<g>
			<path class="st4" d="M75.7,473.9c-1.9,2.1-4.4,5.5-7.5,10.4c-3.1,4.9-5.4,8.7-6.8,11.3c7.8-1.5,13.2-2.3,16.1-2.3
				c1.4,0,2.5,0.1,3.3,0.4c0.9,0.3,1.3,1,1.3,2c0,2.2-1.3,3.3-3.8,3.3c-0.1,0-0.4,0-0.9,0c-1.1,0-1.9-0.1-2.4-0.1
				c-3.6,0-9.5,1.2-17.8,3.5c-5.3,9-9.9,19.8-13.9,32.4c-0.5,1.9-1.4,2.9-2.5,2.9c-1,0-1.9-0.6-2.5-1.7c-0.5-0.8-0.8-1.7-0.8-2.5
				c0-0.9,1-4.1,3-9.5c3.3-8.9,8-18.4,14-28.6c3.9-6.4,8.1-13.1,12.7-20.3c-1.2-0.2-1.8-0.9-1.8-2.1c0-1.8,1.7-3.1,5.1-4.1
				c4.8-1.3,9.4-2.4,13.9-3.1c5.1-0.8,9-1.2,11.7-1.2c4.2,0,6.3,1.1,6.3,3.2c0,1.1-0.5,2-1.5,2.6c-0.4,0.3-0.8,0.4-1.4,0.4
				c-0.4,0-1-0.1-1.8-0.2c-1.2-0.2-2.3-0.3-3.2-0.3c-1.9,0-5.2,0.4-9.8,1.1C81.6,472.3,78.5,473,75.7,473.9z"/>
			<path class="st4" d="M95,526.4c-1.2,2.1-2.4,3.9-3.5,5.3c-2.3,2.8-4.5,4.2-6.8,4.2c-1.9,0-3.5-0.9-4.5-2.8c-0.7-1.2-1-2.6-1-4.2
				c0-4,1.3-8.4,3.8-13.2c2.8-5.4,6.2-9.5,10.2-12.4c2.6-1.9,5.1-2.8,7.5-2.8c1.5,0,2.8,0.5,3.8,1.4c0.9,0.8,1.3,1.8,1.3,2.8
				c0,0.8-0.3,1.9-0.9,3.3c0.5,0.8,0.8,1.4,0.8,2c0,0.8-0.5,2-1.5,3.7c-1,1.8-2.1,4.1-3.1,7c-1.1,3.1-1.7,5.6-1.7,7.5
				c0,1.5,0.4,2.8,1.4,3.7c0.3,0.3,1,0.7,2.2,1.2c0.9,0.4,1.4,1.2,1.4,2.3c0,0.7-0.3,1.2-0.8,1.7c-0.5,0.5-1.2,0.7-1.9,0.7
				c-1.9,0-3.6-0.9-5-2.6c-1.2-1.4-1.7-3.2-1.7-5.3C94.8,529.3,94.9,528.1,95,526.4z M101.8,508.7c-0.4-0.8-0.9-1.4-1.4-1.8
				c-0.5-0.4-1-0.6-1.6-0.6c-2.7,0-5.7,2.4-8.9,7.2c-3.5,5.3-5.3,9.8-5.3,13.4c0,0.9,0.2,1.6,0.5,2.1c0.3,0.5,0.9,0.7,1.5,0.7
				c1.7,0,3.7-1.8,6-5.5c1.3-2,2.9-5,4.8-8.9c1.3-2.6,2.2-4.2,2.8-5.1C100.5,509.8,101,509.3,101.8,508.7z"/>
			<path class="st4" d="M111.8,529.1c3.3-1.1,6.2-1.7,8.6-1.7c4.2,0,6.3,1.1,6.3,3.2c0,0.6-0.3,1.2-0.8,1.8
				c-0.5,0.5-1.1,0.8-1.7,0.8c-0.4,0-1.2-0.2-2.5-0.5c-0.8-0.2-1.5-0.3-2.2-0.3c-3.1,0-6,0.6-8.7,1.9c-1.9,0.9-3.2,1.4-3.9,1.4
				c-0.8,0-1.5-0.3-2.2-0.8c-0.6-0.5-0.9-1.1-0.9-1.7c0-1.5,1.8-4.4,5.3-8.9c5.3-6.6,10.9-12.2,16.8-16.9c-3.9,0.5-6.6,0.7-8,0.7
				c-3.5,0-5.2-1-5.2-3.1c0-0.6,0.2-1.2,0.6-1.6c0.4-0.4,0.8-0.6,1.4-0.6c0.4,0,1.4,0.1,2.9,0.4c0.6,0.1,1.5,0.2,2.6,0.2
				c3.1,0,6.1-0.3,9-1c1.1-0.3,2.1-0.4,2.9-0.4c0.9,0,1.7,0.3,2.3,1c0.5,0.5,0.7,1,0.7,1.7c0,1.2-1,2.5-3,3.9
				c-5.9,4.7-10.1,8.3-12.5,10.7C116.2,523,113.6,526.3,111.8,529.1z"/>
			<path class="st4" d="M136.2,525v1c0,0.8,0.2,1.5,0.6,2.1c0.9,1.3,2.4,2,4.4,2c4.5,0,9.7-3.5,15.6-10.4c1-1.2,1.9-1.8,2.6-1.8
				c0.4,0,0.8,0.2,1.1,0.6c0.2,0.3,0.3,0.6,0.3,0.8c0,1.4-1.7,3.8-5.2,7.1c-2.7,2.6-5.6,4.8-8.6,6.4c-3.1,1.7-5.9,2.5-8.5,2.5
				c-2.7,0-4.8-0.9-6.4-2.8c-1-1.3-1.6-3.1-1.6-5.3c0-6.1,2.9-12,8.6-17.9c4.6-4.8,8.7-7.1,12.2-7.1c0.9,0,1.8,0.3,2.5,0.9
				c0.9,0.8,1.4,1.7,1.4,3c0,1.9-0.9,4.2-2.6,7C149,518.8,143.5,522.8,136.2,525z M137.4,520.8c2.5-0.9,4.5-1.8,5.9-2.9
				c2.5-1.9,4.5-4.1,6-6.6c0.5-0.9,0.8-1.6,0.8-2.3c0-0.7-0.3-1.1-1-1.1c-0.9,0-2.3,0.7-4,2.1C142,512.4,139.5,516,137.4,520.8z"/>
			<path class="st4" d="M172.2,517.6c3.5-3.8,7.6-7.5,12.2-11.1c1.7-1.3,3.4-2.5,5.3-3.6c0.9-0.5,1.5-0.8,1.8-0.8
				c0.5,0,1.1,0.4,1.6,1.2c0.3,0.4,0.5,0.8,0.5,1.2c0,0.6-0.7,1.5-2.1,2.6c-3.7,2.9-5.5,5.1-5.5,6.6c0,0.8,0.5,1.2,1.4,1.2
				c1.5,0,4.2-1.3,8-3.8c0.6-0.4,1.2-0.6,1.6-0.6c0.3,0,0.6,0.1,0.9,0.4c0.3,0.3,0.5,0.7,0.5,1c0,1.1-1.5,2.7-4.5,5
				c-3.2,2.4-6.2,3.6-9,3.6c-1.2,0-2.2-0.3-3.2-0.9c-0.8-0.5-1.2-1.4-1.2-2.7c0-0.9,0.4-1.9,1.1-3.1c-2.8,2-6.2,5.5-10,10.4
				c-2.2,3-4.4,6.8-6.6,11.2c-0.8,1.7-1.9,2.5-3.1,2.5c-1.3,0-2-0.6-2-1.9c0-1.2,1-4.5,3.1-9.8c3.1-7.9,6.3-14.1,9.7-18.4
				c2.1-2.7,3.8-4.1,5.2-4.1c0.5,0,0.9,0.1,1.3,0.4c0.5,0.4,0.7,0.8,0.7,1.4s-0.4,1.3-1.1,2.3c-0.1,0.2-1.1,1.4-2.9,3.6
				C174.3,513.4,173.1,515.5,172.2,517.6z"/>
			<path class="st4" d="M245.2,509.5l-0.8,1.6c-3.7,7.8-6.2,13.3-7.5,16.6c-1.9,5.2-3,8.2-3.3,9.1c-0.8,2.4-1.7,3.6-3,3.6
				c-0.9,0-1.6-0.4-2.2-1.2c-0.5-0.7-0.8-1.4-0.8-2.2c0-3.1,4-12.9,11.9-29.3c-1.4-1.1-2.2-2.2-2.2-3.2c0-0.8,0.4-1.5,1.1-2.2
				c0.6-0.5,1.3-0.8,2-0.8c0.5,0,1.2,0.1,2,0.4c5.9-11.2,9.3-18.3,10.3-21.3c-0.9,0.5-2.1,1.2-3.5,2.2c-0.8,0.5-1.5,0.8-2.1,0.8
				c-0.7,0-1.2-0.3-1.7-1c-0.3-0.5-0.4-1-0.4-1.5c0-1.7,1.5-3.5,4.4-5.5c2.3-1.5,4.5-2.8,6.5-3.9c0.3-0.9,0.5-1.5,0.6-1.8
				c0.4-1.4,0.7-2.3,1.1-2.8c0.4-0.5,1-0.7,1.8-0.7c1.7,0,2.5,0.9,2.5,2.8c2.5-0.7,4.7-1.3,6.6-1.6c1.9-0.4,3.5-0.5,4.9-0.5
				c3.5,0,6.4,1.3,8.9,4c2.3,2.5,3.4,5.3,3.4,8.5c0,5.4-2.3,10.9-6.8,16.3c-3.9,4.6-8.7,8.2-14.5,10.8c-5,2.2-9.9,3.3-14.9,3.3
				C248.5,510,247,509.8,245.2,509.5z M260.3,476.6c-1.2,3.6-3.1,8.1-5.8,13.7c-3.3,6.8-5.5,11.2-6.4,13.3c2,0.4,3.4,0.5,4.2,0.5
				c4.1,0,8.9-1.7,14.4-5c5.3-3.2,9.4-7.3,12.4-12c1.8-2.9,2.8-5.5,2.8-7.8c0-2.1-0.7-3.6-2.1-4.6c-1.4-1-3.5-1.5-6.3-1.5
				c-2.1,0-4.3,0.3-6.5,0.8C264.7,474.6,262.5,475.4,260.3,476.6z"/>
			<path class="st4" d="M276.7,525v1c0,0.8,0.2,1.5,0.6,2.1c0.9,1.3,2.4,2,4.4,2c4.5,0,9.7-3.5,15.6-10.4c1-1.2,1.9-1.8,2.6-1.8
				c0.4,0,0.8,0.2,1.1,0.6c0.2,0.3,0.3,0.6,0.3,0.8c0,1.4-1.7,3.8-5.2,7.1c-2.7,2.6-5.6,4.8-8.6,6.4c-3.1,1.7-5.9,2.5-8.5,2.5
				c-2.7,0-4.8-0.9-6.4-2.8c-1-1.3-1.6-3.1-1.6-5.3c0-6.1,2.9-12,8.6-17.9c4.6-4.8,8.7-7.1,12.2-7.1c0.9,0,1.8,0.3,2.5,0.9
				c0.9,0.8,1.4,1.7,1.4,3c0,1.9-0.9,4.2-2.6,7C289.5,518.8,284,522.8,276.7,525z M277.9,520.8c2.5-0.9,4.5-1.8,5.9-2.9
				c2.5-1.9,4.5-4.1,6-6.6c0.5-0.9,0.8-1.6,0.8-2.3c0-0.7-0.3-1.1-1-1.1c-0.9,0-2.3,0.7-4,2.1C282.5,512.4,279.9,516,277.9,520.8z"
				/>
			<path class="st4" d="M324.6,503.8c3.6-7.5,7-14.1,10.2-19.7c3.1-5.4,5.2-8.8,6.3-10.2c1.2-1.5,2.4-2.3,3.5-2.3
				c0.6,0,1.1,0.2,1.6,0.7c0.4,0.5,0.6,1,0.6,1.5c0,0.8-0.6,2.2-1.8,4.2c-5.2,8.4-10,17-14.4,25.7c-5,10.1-7.6,17.7-7.6,22.7
				c0,2.1,0.4,3.7,1.2,4.9c0.1,0.3,0.8,0.8,1.9,1.7c0.2,0.2,0.3,0.5,0.3,1.1c0,0.7-0.3,1.4-0.8,2c-0.6,0.6-1.2,0.9-1.9,0.9
				c-0.8,0-1.7-0.5-2.8-1.5c-1.4-1.4-2.3-3.1-2.6-5c-0.1-0.8-0.2-2.3-0.4-4.4c-3.8,6.8-7.4,10.2-10.8,10.2c-2,0-3.6-1.1-4.8-3.3
				c-0.8-1.5-1.2-3.2-1.2-5c0-5.6,2.1-11.3,6.2-17c4.1-5.6,8.4-8.4,13.1-8.4C321.9,502.4,323.2,502.9,324.6,503.8z M322.8,508.2
				c-1-0.6-1.8-1-2.5-1c-3,0-5.9,1.9-8.6,5.6c-3.6,4.8-5.3,9.5-5.3,14c0,0.5,0.1,1,0.3,1.5c0.4,0.9,1.1,1.4,1.9,1.4
				c1.3,0,2.8-1.2,4.6-3.7c2.4-3.2,4.6-7.1,6.7-11.5c0.7-1.5,1.4-3,2.1-4.5l0.5-1L322.8,508.2z"/>
			<path class="st4" d="M345.9,503c0.6,0,1.1,0.2,1.5,0.7c0.3,0.4,0.4,0.8,0.4,1.2c0,0.6-0.5,1.7-1.6,3.2c-3.7,5.8-6.4,10.6-8,14.3
				c-1.7,3.9-3.2,7.8-4.5,11.9c-0.6,1.8-1.5,2.7-2.7,2.7c-0.7,0-1.3-0.3-1.7-0.9c-0.4-0.5-0.6-1-0.6-1.5c0-1.1,1.2-4.7,3.5-10.8
				c1.8-4.8,4.7-10.2,8.7-16c1.3-1.9,2.3-3.2,2.9-3.8C344.5,503.3,345.2,503,345.9,503z M356.1,482.9c1.6,0,2.4,0.8,2.4,2.5
				c0,1.5-0.8,3.2-2.4,5c-1.5,1.8-3,2.6-4.4,2.6c-0.7,0-1.2-0.3-1.7-0.8c-0.4-0.5-0.6-1-0.6-1.7c0-1.7,1-3.6,2.9-5.5
				C353.8,483.7,355,482.9,356.1,482.9z"/>
			<path class="st4" d="M368.1,503.8c3.6-7.5,7-14.1,10.2-19.7c3.1-5.4,5.2-8.8,6.3-10.2c1.2-1.5,2.4-2.3,3.5-2.3
				c0.6,0,1.1,0.2,1.6,0.7c0.4,0.5,0.6,1,0.6,1.5c0,0.8-0.6,2.2-1.8,4.2c-5.2,8.4-10,17-14.4,25.7c-5,10.1-7.6,17.7-7.6,22.7
				c0,2.1,0.4,3.7,1.2,4.9c0.1,0.3,0.8,0.8,1.9,1.7c0.2,0.2,0.3,0.5,0.3,1.1c0,0.7-0.3,1.4-0.8,2c-0.6,0.6-1.2,0.9-1.9,0.9
				c-0.8,0-1.7-0.5-2.8-1.5c-1.4-1.4-2.3-3.1-2.6-5c-0.1-0.8-0.2-2.3-0.4-4.4c-3.8,6.8-7.4,10.2-10.8,10.2c-2,0-3.6-1.1-4.8-3.3
				c-0.8-1.5-1.2-3.2-1.2-5c0-5.6,2.1-11.3,6.2-17c4.1-5.6,8.4-8.4,13.1-8.4C365.4,502.4,366.7,502.9,368.1,503.8z M366.2,508.2
				c-1-0.6-1.8-1-2.5-1c-3,0-5.9,1.9-8.6,5.6c-3.6,4.8-5.3,9.5-5.3,14c0,0.5,0.1,1,0.3,1.5c0.4,0.9,1.1,1.4,1.9,1.4
				c1.3,0,2.8-1.2,4.6-3.7c2.4-3.2,4.6-7.1,6.7-11.5c0.7-1.5,1.4-3,2.1-4.5l0.5-1L366.2,508.2z"/>
			<path class="st4" d="M396.1,500.5c3,0,4.4,1.8,4.4,5.4c0,4.8-2.2,10.9-6.6,18.2c-4.8,8-9.5,11.9-14,11.9c-2.1,0-3.6-1-4.6-2.9
				c-0.5-1-0.8-2.1-0.8-3.5c0-4.6,1.6-9.6,4.8-15c3-5,6.4-8.9,10.4-11.7C392,501.3,394.2,500.5,396.1,500.5z M390.4,520.9
				c-0.9-0.7-1.4-1.3-1.4-1.7c0-0.3,0.6-1.1,1.7-2.4c3.2-3.6,4.9-6.6,4.9-8.8c0-0.3-0.1-0.6-0.3-0.9c-0.3-0.5-0.7-0.8-1.4-0.8
				c-1.2,0-2.8,1.1-5.1,3.3c-2.9,2.9-5.1,5.9-6.6,8.9c-1.8,3.5-2.6,6.4-2.6,8.7c0,0.6,0.2,1.2,0.5,1.6c0.5,0.6,1.1,1,1.8,1
				c1.7,0,3.6-1.3,5.6-3.9c0.9-1.1,1.6-2.2,2.1-3.3C390.2,521.5,390.5,520.9,390.4,520.9z"/>
		</g>
	</g>
	<g>
		<g>
			<path class="st4" d="M31,549c97.4,0,194.8,0,292.2,0c27.6,0,55.2,0,82.8,0c1.9,0,1.9-3,0-3c-97.4,0-194.8,0-292.2,0
				c-27.6,0-55.2,0-82.8,0C29.1,546,29.1,549,31,549L31,549z"/>
		</g>
	</g>
</g>
</svg>
