<svg id="Camada_1" data-name="Camada 1" xmlns="http://www.w3.org/2000/svg" viewBox="0 0 292 530"><defs><style>.cls-1{fill:#b92f34}.cls-2{fill:#fff}.cls-3,.cls-7{fill:none}.cls-3{stroke:#fff;stroke-miterlimit:10}.cls-4{fill:#373435}.cls-4,.cls-5,.cls-9{fill-rule:evenodd}.cls-5{fill:#af3839}.cls-8,.cls-9{fill:#f54753}</style></defs><rect class="cls-1" x="32" width="226" height="530" rx="12" ry="12"/><rect class="cls-2" y="192" width="292" height="292" rx="12" ry="12"/><ellipse class="cls-2" cx="145.98" cy="101.65" rx="61.02" ry="60.65"/><circle class="cls-3" cx="145.57" cy="100.91" r="60.69"/><path class="cls-4" d="M88.47 116.63l1.59-3.63a10 10 0 004.82 1.33c1.4 0 1.9-.29 1.9-.79 0-1.83-8.07-.35-8.07-5.8 0-2.71 2.27-4.92 6.8-4.92a11.58 11.58 0 015.5 1.27l-1.48 3.57a9 9 0 00-4.07-1.08c-1.44 0-1.9.42-1.9.92 0 1.75 8.07.29 8.07 5.67 0 2.67-2.27 4.92-6.8 4.92a13.06 13.06 0 01-6.36-1.46zM119.38 114.08v3.72h-12.13v-14.6h11.86v3.71h-7.03v1.71h6.17v3.55h-6.17v1.91h7.3zM139.82 103.2v14.6h-4.04l-5.55-6.63v6.63h-4.79v-14.6h4.04l5.55 6.63v-6.63h4.79zM160.74 103.2v14.6h-4.92v-5.38h-4.54v5.38h-4.92v-14.6h4.92v5.17h4.54v-5.17h4.92zM166.69 110.5c0-4.42 3.48-7.63 8.23-7.63s8.23 3.21 8.23 7.63-3.48 7.63-8.23 7.63-8.23-3.21-8.23-7.63zm11.51 0a3.29 3.29 0 10-3.27 3.65 3.32 3.32 0 003.27-3.65zM195.37 114.13H194v3.67h-4.92v-14.6h7c4.07 0 6.65 2.13 6.65 5.5a4.89 4.89 0 01-2.75 4.59l3.06 4.5h-5.25zm.46-7.13H194v3.42h1.79c1.36 0 2-.65 2-1.71s-.6-1.71-1.96-1.71zM201.27 100.5a1.24 1.24 0 01-1.27-1.2 54.48 54.48 0 00-108.92 0 1.24 1.24 0 01-1.24 1.2 1.24 1.24 0 01-1.2-1.27 57 57 0 01113.87 0 1.24 1.24 0 01-1.2 1.27zM145.57 157.87a57 57 0 01-52.27-34.28 1.24 1.24 0 112.27-1 54.5 54.5 0 00100 0 1.24 1.24 0 112.27 1 57 57 0 01-52.27 34.28z"/><path class="cls-5" d="M196.58 99.67a.41.41 0 01-.41-.4 50.63 50.63 0 00-101.2 0 .4.4 0 01-.43.4.41.41 0 01-.4-.42 51.45 51.45 0 01102.85 0 .41.41 0 01-.4.42zM145.57 152.36a51.52 51.52 0 01-46.34-29.09.41.41 0 01.74-.36 50.62 50.62 0 0091.18 0 .41.41 0 01.74.36 51.52 51.52 0 01-46.34 29.09z"/><path class="cls-4" d="M119.41 138.13l.28-.94-1.86-1.39-.83.53-1.4-1.06 5.42-3.13 1.4 1.05-1.56 6zm-.44-3l1.11.84.58-1.92zM125.61 141.78v-1.73l-.8-.41-.71 1.38-1.52-.78 2.64-5.12 2.39 1.23a2.72 2.72 0 011.35 1.3 1.86 1.86 0 01-.13 1.63 2.29 2.29 0 01-.72.86 1.86 1.86 0 01-1 .32l.18 2.21zm-.17-3.31l.87.45a.81.81 0 00.62.09.79.79 0 00.46-.43.76.76 0 00.08-.61.82.82 0 00-.44-.45l-.87-.45zM130.72 137.85l4.79 1.6-.43 1.3-1.59-.53-1.39 4.16-1.62-.54 1.39-4.17-1.58-.52.43-1.3zM136.57 139.7l4.63.81-.23 1.3-2.95-.52-.15.89 2.67.47-.22 1.29-2.68-.47-.15.9 3.03.53-.23 1.3-4.71-.83.99-5.67zM145.78 142.09a2.93 2.93 0 00-.9-.21.62.62 0 00-.35.08.28.28 0 00-.13.25.39.39 0 00.24.36 4.26 4.26 0 00.77.29 7.53 7.53 0 011 .37 1.83 1.83 0 01.68.55 1.46 1.46 0 01.27 1 1.62 1.62 0 01-.33 1 1.88 1.88 0 01-.86.6 3.34 3.34 0 01-1.21.18 4.62 4.62 0 01-1.48-.28 4.15 4.15 0 01-1.27-.71l.66-1.29a3.79 3.79 0 001.05.65 2.93 2.93 0 001.07.28.75.75 0 00.44-.1.35.35 0 00.16-.3.4.4 0 00-.25-.37 4.41 4.41 0 00-.78-.28 7.2 7.2 0 01-1-.34 1.77 1.77 0 01-.67-.53 1.43 1.43 0 01-.27-.93 1.63 1.63 0 01.31-1 1.88 1.88 0 01.84-.62 3.3 3.3 0 011.26-.2 4.66 4.66 0 011.29.21 4.27 4.27 0 011.11.51l-.66 1.3a5.49 5.49 0 00-.99-.47zM153.7 145.72l-.47-.86-2.3.35-.21 1-1.74.26 1.57-6.06 1.74-.26 3.2 5.34zm-2.48-1.82l1.38-.21-1-1.76zM159.41 138.18l1.47-.51 1.87 5.45-1.38.47-3.34-2.24 1.04 3.03-1.49.5-1.86-5.44 1.38-.47 3.35 2.25-1.04-3.04zM168.88 140l-.74-.64-2 1.13.15 1-1.54.85-.65-6.22 1.54-.85 4.87 3.88zm-3-.83l1.22-.68-1.52-1.31zM168.44 133.43l1.35-1.04 2.65 3.42 1.91-1.48.87 1.13-3.25 2.52-3.53-4.55z"/><path class="cls-1" d="M128.31 64a18.06 18.06 0 00-7.93 3.21c-.55.37-1 .76-1.59 1.12a18.33 18.33 0 00-1.69 1.08c-1 .83-1 2.36-3 2.52 0-2.06-2.25-1.73-2.38-.5a2.94 2.94 0 00.69 1.68c.19.28.87 1.33.47 1.69a2.52 2.52 0 00-1.22 1.15c-.92 1.87.28 4.43 1.93 4.61.59-.56.28-1.88.11-2.68s0-.52.24-1.2c.1-.3.21-1.09.32-1.28.46 2.35.47 6 2.07 7.86a11.24 11.24 0 011.59 1.74c.67 1.22-.8 1.68-1.46 2.34-.2.2-.2.28-.17.63a7.81 7.81 0 00.58 2.76c.08.17.26.38.26.57a19.84 19.84 0 00-.25 3.7 1.9 1.9 0 00.81.07h.31a3 3 0 00.37 1.18c.58.36 2.37.21 3.18.17.1-.7-1.26-1.52-1.87-2.6a3.42 3.42 0 01.3-3.49c.48.1 1.63 1.75 1.89 2.26a7.71 7.71 0 01.57 1.52c.08.32.26 1.67.32 1.77h.27c1.06-.67.64.7 1.39.87s2.11.3 2.48-.22a.86.86 0 00-.27-1 6.69 6.69 0 01-.92-.54c-.74-.69-1.52-3.17-.82-4.38a5.8 5.8 0 01.61-.82l1.05-1.16c.8-1 1.59-2.25 2.92-2.25a7.18 7.18 0 012.34.57 27.41 27.41 0 007.19 1.61 39.88 39.88 0 006.34-.29 46.46 46.46 0 015.33-.33 18.41 18.41 0 01.5 4.69c1.11.68.38 2.47 1 3.55.46.82.91.49 1.56.32a5.7 5.7 0 012.14-.15c-.08-1.37-1.53-1.81-2-3s.64-2.65 1-3.63c.22-.62.56-1.3 1.21-.6s-.13 2.58.34 3.16c.15.18.5.27.71.53.44.53.08 1.45.11 2.13a5 5 0 002-.24 3.78 3.78 0 011.91-.2 16.06 16.06 0 01-1.5-1.86c-.69-1.06-1.19-2.57-.34-3.74.39-.54.45-.36 1.24-.54 3-.68 2.27-.3 4.3.19 2.92.7 8.66.31 11.44-.23.27-1.12 1.22-1.64 1.19-2.83l-.1-.06c-.62-.24-3.13-.3-3.2-2.05 0-.74.68-1 .82-1.79s-.28-1.79-.11-2.49c1.07-.08.81-.49 1.36-.9s4.47-1.07 4.76-2.2a3.71 3.71 0 00-1-.28h-.55a3.33 3.33 0 01-.78 0l-.79-.54a37.59 37.59 0 00-4.91-1.88 7.44 7.44 0 01-3.17-2.25 13.87 13.87 0 01-1.24-1.45c-1.23-1.56-3.17-2.23-5.13-3a11.43 11.43 0 00-2.1-.6c-.77-.15-1.52-.26-2.26-.47-2-.58-1.77-.85-4.37-1.05a49.54 49.54 0 00-5.42 0c-.9 0-1.85.07-2.75.06s-1.62-.17-2.41-.26a20 20 0 00-2.76 0 22.29 22.29 0 01-2.64 0c-2.48-.21-4.63-.53-7-.53a22.93 22.93 0 00-3.42.25z"/><path class="cls-5" d="M180.65 121.88l-.34.4q-.38.44-1 1.07t-1.44 1.37a18.65 18.65 0 01-1.57 1.29q-.8.6-1.4 1a1.52 1.52 0 01-.91.36c-.21 0-.32-.21-.32-.56a5.85 5.85 0 01.47-1.75 18.75 18.75 0 011.18-2.43 14.72 14.72 0 001-1.91c.09-.13.2-.32.34-.58a3.76 3.76 0 00.34-.83 3.54 3.54 0 00.13-1 1.83 1.83 0 00-.25-.93 1.94 1.94 0 00-1.44-1.13 2.77 2.77 0 00-1.54.34 4.94 4.94 0 00-1.27 1 5.82 5.82 0 01-.66.63 26.49 26.49 0 00-2.58 2.68 32.24 32.24 0 00-2.12 2.88q.25-.72.47-1.29t.49-1.15q.28-.58.66-1.21t1-1.51a.92.92 0 000-.72 4.27 4.27 0 00-.44-.89 2.49 2.49 0 00-.57-.64c-.2-.15-.34-.14-.42 0a.4.4 0 00-.11.14.37.37 0 01-.11.14 9.86 9.86 0 00-1 1l-1.06 1.21-1.18 1.23q-.53.6-1 1l-1.73 1.71-.18.33-.45.46q-.59.6-1.18 1.09a3.62 3.62 0 01-1.73.69 1.23 1.23 0 01-1 0l.42-.56q.63-.76 1.4-1.71a17.33 17.33 0 001.35-1.95 7.68 7.68 0 00.85-1.95 2.69 2.69 0 000-1.71 2.72 2.72 0 00-.63-.87 1.18 1.18 0 00-1-.32 3.79 3.79 0 00-1.61.68 4.36 4.36 0 00-1.21-.58 2.42 2.42 0 00-1.08-.1 4.78 4.78 0 00-1.9.66 12.14 12.14 0 00-2 1.45 14.27 14.27 0 00-1.88 2 12.23 12.23 0 00-1.46 2.41c-.08.17-.15.35-.22.53q-1.17 1.1-2.32 2.08a10.17 10.17 0 01-4.29 2.19 2 2 0 01-1.46-.1 1.39 1.39 0 01-.57-.94 3.17 3.17 0 01.17-1.57 7.57 7.57 0 01.89-1.79 17.11 17.11 0 011.35-1.77 17.71 17.71 0 011.54-1.57 10 10 0 011.48-1.11 2.89 2.89 0 011.16-.46c.37 0 .47.14.32.42a5.62 5.62 0 01-.76 1q-.53.58-1.12 1.11a7.53 7.53 0 01-.85.7 4.13 4.13 0 001.18.5 2.2 2.2 0 001.31-.14l.87-.82a4.73 4.73 0 00.76-.91 2.53 2.53 0 00.23-2.37 1.77 1.77 0 00-.85-1.11 2.19 2.19 0 00-1.23-.32 5.44 5.44 0 00-2.54.83 12.68 12.68 0 00-2.56 2 16.55 16.55 0 00-2.14 2.64c-.12.19-.24.38-.34.57s-.51.53-.84.86-.9.88-1.44 1.35-1.06.92-1.57 1.31a12.54 12.54 0 01-1.5 1.05q-.66.38-.87.06-.47-.44.25-2.19.21-.52.55-1.19t.76-1.41q.42-.73.87-1.47t.87-1.33-.13-.52a7.49 7.49 0 00-.51-.82 3 3 0 00-.61-.66c-.21-.16-.36-.17-.44 0l-.47.72a2 2 0 00-.76-1.47 2.29 2.29 0 00-1.31-.44 5.78 5.78 0 00-2.6.87 12.46 12.46 0 00-2.52 2 15.08 15.08 0 00-2.09 2.7 14 14 0 00-.72 1.34l-.4.39a11.86 11.86 0 01-1.21 1.13 3.75 3.75 0 01-1.71.7 2.38 2.38 0 01-1.06 0q.63-.71 1.46-1.73a24.22 24.22 0 001.52-2.09 9 9 0 001-2.13 2.72 2.72 0 000-1.89 2.43 2.43 0 00-.63-.89 1.21 1.21 0 00-1-.3 3.19 3.19 0 00-1.74.77 8.78 8.78 0 00-1.54 1.67 12.39 12.39 0 00-1.18 2 9.34 9.34 0 00-.66 1.81 5 5 0 00-.13 1.69 3.49 3.49 0 00.42 1.37 13 13 0 01-1.84 1.47q-.87.56-1.33.24a.92.92 0 01-.32-.78 7.56 7.56 0 01.23-1.73 4.88 4.88 0 01.72-1.71q.59-1 1.19-2l8.6-13.16q.08-.12-.11-.54a4.4 4.4 0 00-.49-.81 3.13 3.13 0 00-.61-.64c-.21-.16-.38-.17-.49 0l-.66 1-1.52 2.37-1.95 3-1.92 3-1.5 2.37q-.61 1-.66 1.09a13.14 13.14 0 01-.87 1.51 16.78 16.78 0 00-1.14 2.11 13.81 13.81 0 00-.85 2.43 4.88 4.88 0 000 2.43 3.73 3.73 0 001 1.71 2.55 2.55 0 001.74.8 3.86 3.86 0 002.54-.77 8.83 8.83 0 001.82-1.89 3.71 3.71 0 002.12.28 3.54 3.54 0 001.25-.32 6.71 6.71 0 001-.57 5.51 5.51 0 000 1 2.84 2.84 0 001.1 1.95 2 2 0 001.73.36 4.31 4.31 0 001.74-1 12.48 12.48 0 001.65-1.83q.8-1.07 1.52-2.15-.13.71-.34 1.51a3.49 3.49 0 00-.06 1.15 3.28 3.28 0 00.32 1.11 2.55 2.55 0 00.7.88 1.67 1.67 0 001.08.36 2.66 2.66 0 001.42-.36 10.39 10.39 0 001.44-.93 15.31 15.31 0 001.31-1.13q.61-.6 1-1l.29-.28v.34a4.45 4.45 0 00.51 1.67 3.07 3.07 0 001.18 1.19 4.12 4.12 0 002 .5 6 6 0 003-.68 12.68 12.68 0 002.47-1.67l1.11-.94a4.89 4.89 0 00.28 1.33 3.79 3.79 0 001.06 1.55 2.9 2.9 0 002.07.6 4.59 4.59 0 002.33-.85 13.53 13.53 0 002.62-2.21 3.78 3.78 0 001.12.4 4.13 4.13 0 001.29 0 3.18 3.18 0 001.23-.34 8.72 8.72 0 001.12-.68 7.8 7.8 0 001-.8c.28-.27.51-.51.71-.72l.52-.51 1.61-1.61q-.42.84-.93 2t-1.35 2.78a1.18 1.18 0 000 1 2.12 2.12 0 00.57.82 2 2 0 00.89.46 1.15 1.15 0 00.93-.16h.09q.76-.87 2-2.33t2.5-3q1.29-1.51 2.5-2.82a22.29 22.29 0 012-1.95q-.51.87-.91 1.65t-.72 1.53q-.32.76-.57 1.53t-.47 1.65a7.15 7.15 0 00-.19 1.41 4.58 4.58 0 00.13 1.27 2 2 0 00.51.93 1.49 1.49 0 001 .4 3.2 3.2 0 001.52-.36 11.43 11.43 0 001.67-1c.55-.38 1.06-.78 1.54-1.17a13.81 13.81 0 001.1-1l.76-.74a5.82 5.82 0 00.89-1.11 3.79 3.79 0 00.51-1.31 1.89 1.89 0 00-.45-1.37zm-62.2 2.35a3.65 3.65 0 01.23-1.15 12.67 12.67 0 01.59-1.41q.36-.74.76-1.43a10.22 10.22 0 01.74-1.13 2.37 2.37 0 01.83-.79c.24-.11.32 0 .23.32a6.69 6.69 0 01-.53 1.11c-.27.48-.57 1-.91 1.51s-.68 1.06-1 1.59zm13.52-3q-.57.7-1.31 1.55t-1.57 1.75q-.83.89-1.59 1.59t-1.33 1.13q-.57.44-.78.36-.42-.16-.38-.82a5.44 5.44 0 01.38-1.55 12.71 12.71 0 01.93-1.91 14.33 14.33 0 011.31-1.89 16.31 16.31 0 011.48-1.45 12 12 0 011.54-1.15 5.07 5.07 0 011.35-.62.93.93 0 01.91.12.81.81 0 01.19.56 1.56 1.56 0 01-.15.76l-.21.52a9.67 9.67 0 01-.74 1.04zm23.82-.68a10.73 10.73 0 00-.83 2.13 4.85 4.85 0 00-.13 1.65 4 4 0 00.38 1.33 8.78 8.78 0 01-1.69 1.57 4.08 4.08 0 01-1.69.74 1.16 1.16 0 01-.83-.18 1 1 0 01-.49-.82 5.79 5.79 0 01.59-2.76 14.12 14.12 0 011.69-2.8 13.88 13.88 0 012.09-2.21 3.84 3.84 0 011.76-1 1.12 1.12 0 01.59 0 12.92 12.92 0 00-1.43 2.35zm1.78 2.19q-.53.78-.91 1.37h-.09a3.39 3.39 0 01.25-1.15 14 14 0 01.61-1.39q.36-.72.78-1.39a13.36 13.36 0 01.76-1.11 2.33 2.33 0 01.83-.83c.24-.11.3 0 .19.36a8.07 8.07 0 01-.51 1.05q-.38.7-.89 1.49t-1.02 1.59z"/><path d="M98.74 240.9c-9.55 1.4-15.88 4.76-22.19 9-1.53 1-2.92 2.12-4.46 3.14a51.28 51.28 0 00-4.73 3c-2.75 2.33-2.73 6.61-8.26 7-.11-5.76-6.29-4.84-6.67-1.39-.18 1.69 1.19 3.6 1.93 4.7.54.8 2.44 3.71 1.31 4.74a7 7 0 00-3.41 3.22c-2.58 5.24.79 12.39 5.39 12.89 1.66-1.57.78-5.27.32-7.51s.06-1.47.66-3.36c.27-.83.58-3 .89-3.57 1.29 6.56 1.31 16.9 5.79 22 1.32 1.51 3.31 3.06 4.35 4.95 1.88 3.41-2.25 4.69-4.07 6.54-.55.55-.56.77-.48 1.76a21.85 21.85 0 001.63 7.72c.22.47.72 1 .74 1.6 0 1.65-1.18 6-.7 10.34a5.3 5.3 0 002.26.21h1a8.42 8.42 0 001 3.29c1.62 1 6.62.59 8.88.48.27-2-3.51-4.24-5.24-7.27s-1-7.63.84-9.78c1.35.29 4.57 4.89 5.3 6.33a21.56 21.56 0 011.6 4.26c.23.88.74 4.67.88 4.95l.75-.12c3-1.87 1.8 2 3.88 2.42 1.73.38 5.91.85 6.94-.61.68-1-.11-2.47-.76-2.91a18.72 18.72 0 01-2.56-1.52c-2.06-1.93-4.26-8.87-2.29-12.24a16.21 16.21 0 011.72-2.3l2.95-3.25c2.23-2.75 4.45-6.28 8.17-6.3a20.09 20.09 0 016.53 1.59c5.8 2.12 13.57 4.46 19.9 4.82a111.56 111.56 0 0017.72-.82 130 130 0 0114.91-.91c1.3 3.53 1.19 9.15 1.4 13.12 3.1 1.89 1.06 6.92 2.76 9.94 1.29 2.29 2.56 1.36 4.37.89 2.63-.68 3.35-.5 6-.42-.22-3.84-4.29-5.07-5.47-8.27-1.23-3.37 1.8-7.41 2.75-10.17.6-1.74 1.56-3.62 3.39-1.69s-.36 7.23 1 8.83c.42.52 1.39.76 2 1.47 1.23 1.49.21 4 .3 6a14 14 0 005.54-.67 10.56 10.56 0 015.33-.55 44.92 44.92 0 01-4.21-5.2c-1.93-3-3.32-7.18-1-10.47 1.08-1.51 1.26-1 3.48-1.52 8.3-1.91 6.35-.83 12 .54 8.16 2 24.22.86 32-.65.75-3.13 3.42-4.57 3.33-7.92a1 1 0 00-.29-.16c-1.73-.68-8.77-.84-8.94-5.74-.08-2.06 1.91-2.85 2.28-5 .4-2.32-.79-5-.3-7 3-.21 2.26-1.38 3.81-2.52 1.76-1.31 12.52-3 13.32-6.16a10.38 10.38 0 00-2.92-.78h-1.54a9.3 9.3 0 01-2.19-.09l-2.2-1.5c-4.41-2.51-9.05-3.37-13.75-5.25-4.53-1.81-6.13-3.42-8.86-6.31a38.8 38.8 0 01-3.46-4.06c-3.45-4.36-8.86-6.24-14.34-8.34a32 32 0 00-5.87-1.66c-2.17-.42-4.26-.72-6.32-1.32-5.57-1.63-4.94-2.38-12.23-3a138.57 138.57 0 00-15.16-.08c-2.53.08-5.17.21-7.69.18-2.31 0-4.53-.49-6.73-.72a55.94 55.94 0 00-7.73-.07 62.36 62.36 0 01-7.39 0c-6.94-.57-13-1.47-19.5-1.47a64.13 64.13 0 00-9.39.7z" fill="#e16f72"/><path class="cls-7" d="M268.2 475.36h2.27v2.27h-2.27z"/><circle class="cls-8" cx="269.33" cy="476.5" r="1.14"/><path class="cls-7" d="M263.87 475.36h2.27v2.27h-2.27z"/><circle class="cls-8" cx="265" cy="476.5" r="1.14"/><path class="cls-7" d="M259.53 475.36h2.27v2.27h-2.27z"/><circle class="cls-8" cx="260.67" cy="476.5" r="1.14"/><path class="cls-7" d="M255.2 475.36h2.27v2.27h-2.27z"/><circle class="cls-8" cx="256.34" cy="476.5" r="1.14"/><path class="cls-7" d="M250.87 475.36h2.27v2.27h-2.27z"/><circle class="cls-8" cx="252.01" cy="476.5" r="1.14"/><path class="cls-7" d="M246.54 475.36h2.27v2.27h-2.27z"/><circle class="cls-8" cx="247.67" cy="476.5" r="1.14"/><path class="cls-7" d="M242.21 475.36h2.27v2.27h-2.27z"/><circle class="cls-8" cx="243.34" cy="476.5" r="1.14"/><path class="cls-7" d="M237.87 475.36h2.27v2.27h-2.27z"/><circle class="cls-8" cx="239.01" cy="476.5" r="1.14"/><path class="cls-7" d="M233.54 475.36h2.27v2.27h-2.27z"/><circle class="cls-8" cx="234.68" cy="476.5" r="1.14"/><path class="cls-7" d="M229.21 475.36h2.27v2.27h-2.27z"/><circle class="cls-8" cx="230.35" cy="476.5" r="1.14"/><path class="cls-7" d="M224.88 475.36h2.27v2.27h-2.27z"/><circle class="cls-8" cx="226.01" cy="476.5" r="1.14"/><path class="cls-7" d="M220.55 475.36h2.27v2.27h-2.27z"/><circle class="cls-8" cx="221.68" cy="476.5" r="1.14"/><path class="cls-7" d="M216.21 475.36h2.27v2.27h-2.27z"/><circle class="cls-8" cx="217.35" cy="476.5" r="1.14"/><path class="cls-7" d="M211.88 475.36h2.27v2.27h-2.27z"/><circle class="cls-8" cx="213.02" cy="476.5" r="1.14"/><path class="cls-7" d="M207.55 475.36h2.27v2.27h-2.27z"/><circle class="cls-8" cx="208.69" cy="476.5" r="1.14"/><path class="cls-7" d="M203.22 475.36h2.27v2.27h-2.27z"/><circle class="cls-8" cx="204.35" cy="476.5" r="1.14"/><path class="cls-7" d="M198.89 475.36h2.27v2.27h-2.27z"/><circle class="cls-8" cx="200.02" cy="476.5" r="1.14"/><path class="cls-7" d="M194.55 475.36h2.27v2.27h-2.27z"/><circle class="cls-8" cx="195.69" cy="476.5" r="1.14"/><path class="cls-7" d="M190.22 475.36h2.27v2.27h-2.27z"/><circle class="cls-8" cx="191.36" cy="476.5" r="1.14"/><path class="cls-7" d="M185.89 475.36h2.27v2.27h-2.27z"/><circle class="cls-8" cx="187.03" cy="476.5" r="1.14"/><path class="cls-7" d="M181.56 475.36h2.27v2.27h-2.27z"/><circle class="cls-8" cx="182.69" cy="476.5" r="1.14"/><path class="cls-7" d="M177.23 475.36h2.27v2.27h-2.27z"/><circle class="cls-8" cx="178.36" cy="476.5" r="1.14"/><path class="cls-7" d="M172.89 475.36h2.27v2.27h-2.27z"/><circle class="cls-8" cx="174.03" cy="476.5" r="1.14"/><path class="cls-7" d="M168.56 475.36h2.27v2.27h-2.27z"/><circle class="cls-8" cx="169.7" cy="476.5" r="1.14"/><path class="cls-7" d="M164.23 475.36h2.27v2.27h-2.27z"/><circle class="cls-8" cx="165.37" cy="476.5" r="1.14"/><path class="cls-7" d="M159.9 475.36h2.27v2.27h-2.27z"/><circle class="cls-8" cx="161.03" cy="476.5" r="1.14"/><path class="cls-7" d="M155.57 475.36h2.27v2.27h-2.27z"/><circle class="cls-8" cx="156.7" cy="476.5" r="1.14"/><path class="cls-7" d="M151.23 475.36h2.27v2.27h-2.27z"/><circle class="cls-8" cx="152.37" cy="476.5" r="1.14"/><path class="cls-7" d="M146.9 475.36h2.27v2.27h-2.27z"/><circle class="cls-8" cx="148.04" cy="476.5" r="1.14"/><path class="cls-7" d="M142.57 475.36h2.27v2.27h-2.27z"/><circle class="cls-8" cx="143.71" cy="476.5" r="1.14"/><path class="cls-7" d="M138.24 475.36h2.27v2.27h-2.27z"/><circle class="cls-8" cx="139.37" cy="476.5" r="1.14"/><path class="cls-7" d="M133.91 475.36h2.27v2.27h-2.27z"/><circle class="cls-8" cx="135.04" cy="476.5" r="1.14"/><path class="cls-7" d="M129.57 475.36h2.27v2.27h-2.27z"/><circle class="cls-8" cx="130.71" cy="476.5" r="1.14"/><path class="cls-7" d="M125.24 475.36h2.27v2.27h-2.27z"/><circle class="cls-8" cx="126.38" cy="476.5" r="1.14"/><path class="cls-7" d="M120.91 475.36h2.27v2.27h-2.27z"/><circle class="cls-8" cx="122.05" cy="476.5" r="1.14"/><path class="cls-7" d="M116.58 475.36h2.27v2.27h-2.27z"/><circle class="cls-8" cx="117.71" cy="476.5" r="1.14"/><path class="cls-7" d="M112.25 475.36h2.27v2.27h-2.27z"/><circle class="cls-8" cx="113.38" cy="476.5" r="1.14"/><path class="cls-7" d="M107.91 475.36h2.27v2.27h-2.27z"/><circle class="cls-8" cx="109.05" cy="476.5" r="1.14"/><path class="cls-7" d="M103.58 475.36h2.27v2.27h-2.27z"/><circle class="cls-8" cx="104.72" cy="476.5" r="1.14"/><path class="cls-7" d="M99.25 475.36h2.27v2.27h-2.27z"/><circle class="cls-8" cx="100.39" cy="476.5" r="1.14"/><path class="cls-7" d="M94.92 475.36h2.27v2.27h-2.27z"/><circle class="cls-8" cx="96.05" cy="476.5" r="1.14"/><path class="cls-7" d="M90.59 475.36h2.27v2.27h-2.27z"/><circle class="cls-8" cx="91.72" cy="476.5" r="1.14"/><path class="cls-7" d="M86.25 475.36h2.27v2.27h-2.27z"/><circle class="cls-8" cx="87.39" cy="476.5" r="1.14"/><path class="cls-7" d="M81.92 475.36h2.27v2.27h-2.27z"/><circle class="cls-8" cx="83.06" cy="476.5" r="1.14"/><path class="cls-7" d="M77.59 475.36h2.27v2.27h-2.27z"/><circle class="cls-8" cx="78.73" cy="476.5" r="1.14"/><path class="cls-7" d="M73.26 475.36h2.27v2.27h-2.27z"/><circle class="cls-8" cx="74.39" cy="476.5" r="1.14"/><path class="cls-7" d="M68.93 475.36h2.27v2.27h-2.27z"/><circle class="cls-8" cx="70.06" cy="476.5" r="1.14"/><path class="cls-7" d="M64.59 475.36h2.27v2.27h-2.27z"/><circle class="cls-8" cx="65.73" cy="476.5" r="1.14"/><path class="cls-7" d="M60.26 475.36h2.27v2.27h-2.27z"/><circle class="cls-8" cx="61.4" cy="476.5" r="1.14"/><path class="cls-7" d="M55.93 475.36h2.27v2.27h-2.27z"/><circle class="cls-8" cx="57.07" cy="476.5" r="1.14"/><path class="cls-7" d="M51.6 475.36h2.27v2.27H51.6z"/><circle class="cls-8" cx="52.73" cy="476.5" r="1.14"/><path class="cls-7" d="M47.27 475.36h2.27v2.27h-2.27z"/><circle class="cls-8" cx="48.4" cy="476.5" r="1.14"/><path class="cls-7" d="M42.93 475.36h2.27v2.27h-2.27z"/><circle class="cls-8" cx="44.07" cy="476.5" r="1.14"/><path class="cls-7" d="M38.6 475.36h2.27v2.27H38.6z"/><circle class="cls-8" cx="39.74" cy="476.5" r="1.14"/><path class="cls-7" d="M34.27 475.36h2.27v2.27h-2.27z"/><circle class="cls-8" cx="35.41" cy="476.5" r="1.14"/><path class="cls-7" d="M29.94 475.36h2.27v2.27h-2.27z"/><circle class="cls-8" cx="31.07" cy="476.5" r="1.14"/><path class="cls-7" d="M25.61 475.36h2.27v2.27h-2.27z"/><circle class="cls-8" cx="26.74" cy="476.5" r="1.14"/><path class="cls-7" d="M21.27 475.36h2.27v2.27h-2.27z"/><circle class="cls-8" cx="22.41" cy="476.5" r="1.14"/><path class="cls-7" d="M19.21 475.36a15.55 15.55 0 01-2.12-.1l-.3 2.25a18 18 0 002.42.12z"/><path class="cls-9" d="M16.95 476.39a1.18 1.18 0 01.41-.75 1 1 0 01.76-.3 1.19 1.19 0 011.1 1.16 1.1 1.1 0 01-1.22 1.11 1.22 1.22 0 01-.84-.38 1.09 1.09 0 01-.21-.84z"/><path class="cls-7" d="M15.28 474.87l-.97-.35-.93-.45-1.07 2 1.12.54 1.17.43.68-2.17z"/><path class="cls-9" d="M12.85 475.07a1.14 1.14 0 012.09.88 1.14 1.14 0 11-2.09-.88z"/><path class="cls-7" d="M11.83 473a10.72 10.72 0 01-1.49-1.41l-1.71 1.5a13 13 0 001.8 1.71z"/><path class="cls-9" d="M9.48 472.38a1.14 1.14 0 011.65 1.56 1.14 1.14 0 11-1.65-1.56z"/><path class="cls-7" d="M9.24 470.13a6.34 6.34 0 01-.49-.9 6.47 6.47 0 01-.41-.94l-2.13.8a8.42 8.42 0 00.49 1.14 8.26 8.26 0 00.6 1.09z"/><path class="cls-9" d="M7.27 468.68a1.14 1.14 0 011 2 1.14 1.14 0 11-1-2z"/><path class="cls-7" d="M7.83 466.5c0-.34-.12-.68-.14-1l-.05-1H5.36l.06 1.24c0 .41.12.82.17 1.23z"/><path class="cls-9" d="M6.5 464.45a1.14 1.14 0 01.21 2.26 1.14 1.14 0 11-.21-2.26z"/><path class="cls-7" d="M5.36 460.11h2.27v2.27H5.36z"/><circle class="cls-8" cx="6.5" cy="461.25" r="1.14"/><path class="cls-7" d="M5.36 455.78h2.27v2.27H5.36z"/><circle class="cls-8" cx="6.5" cy="456.92" r="1.14"/><path class="cls-7" d="M5.36 451.45h2.27v2.27H5.36z"/><circle class="cls-8" cx="6.5" cy="452.59" r="1.14"/><path class="cls-7" d="M5.36 447.12h2.27v2.27H5.36z"/><circle class="cls-8" cx="6.5" cy="448.26" r="1.14"/><path class="cls-7" d="M5.36 442.79h2.27v2.27H5.36z"/><circle class="cls-8" cx="6.5" cy="443.92" r="1.14"/><path class="cls-7" d="M5.36 438.45h2.27v2.27H5.36z"/><circle class="cls-8" cx="6.5" cy="439.59" r="1.14"/><path class="cls-7" d="M5.36 434.12h2.27v2.27H5.36z"/><circle class="cls-8" cx="6.5" cy="435.26" r="1.14"/><path class="cls-7" d="M5.36 429.79h2.27v2.27H5.36z"/><circle class="cls-8" cx="6.5" cy="430.93" r="1.14"/><path class="cls-7" d="M5.36 425.46h2.27v2.27H5.36z"/><circle class="cls-8" cx="6.5" cy="426.6" r="1.14"/><path class="cls-7" d="M5.36 421.13h2.27v2.27H5.36z"/><circle class="cls-8" cx="6.5" cy="422.26" r="1.14"/><path class="cls-7" d="M5.36 416.79h2.27v2.27H5.36z"/><circle class="cls-8" cx="6.5" cy="417.93" r="1.14"/><path class="cls-7" d="M5.36 412.46h2.27v2.27H5.36z"/><circle class="cls-8" cx="6.5" cy="413.6" r="1.14"/><path class="cls-7" d="M5.36 408.13h2.27v2.27H5.36z"/><circle class="cls-8" cx="6.5" cy="409.27" r="1.14"/><path class="cls-7" d="M5.36 403.8h2.27v2.27H5.36z"/><circle class="cls-8" cx="6.5" cy="404.94" r="1.14"/><path class="cls-7" d="M5.36 399.47h2.27v2.27H5.36z"/><circle class="cls-8" cx="6.5" cy="400.6" r="1.14"/><path class="cls-7" d="M5.36 395.13h2.27v2.27H5.36z"/><circle class="cls-8" cx="6.5" cy="396.27" r="1.14"/><path class="cls-7" d="M5.36 390.8h2.27v2.27H5.36z"/><circle class="cls-8" cx="6.5" cy="391.94" r="1.14"/><path class="cls-7" d="M5.36 386.47h2.27v2.27H5.36z"/><circle class="cls-8" cx="6.5" cy="387.61" r="1.14"/><path class="cls-7" d="M5.36 382.14h2.27v2.27H5.36z"/><circle class="cls-8" cx="6.5" cy="383.28" r="1.14"/><path class="cls-7" d="M5.36 377.81h2.27v2.27H5.36z"/><circle class="cls-8" cx="6.5" cy="378.94" r="1.14"/><path class="cls-7" d="M5.36 373.47h2.27v2.27H5.36z"/><circle class="cls-8" cx="6.5" cy="374.61" r="1.14"/><path class="cls-7" d="M5.36 369.14h2.27v2.27H5.36z"/><circle class="cls-8" cx="6.5" cy="370.28" r="1.14"/><path class="cls-7" d="M5.36 364.81h2.27v2.27H5.36z"/><circle class="cls-8" cx="6.5" cy="365.95" r="1.14"/><path class="cls-7" d="M5.36 360.48h2.27v2.27H5.36z"/><circle class="cls-8" cx="6.5" cy="361.62" r="1.14"/><path class="cls-7" d="M5.36 356.15h2.27v2.27H5.36z"/><circle class="cls-8" cx="6.5" cy="357.28" r="1.14"/><path class="cls-7" d="M5.36 351.81h2.27v2.27H5.36z"/><circle class="cls-8" cx="6.5" cy="352.95" r="1.14"/><path class="cls-7" d="M5.36 347.48h2.27v2.27H5.36z"/><circle class="cls-8" cx="6.5" cy="348.62" r="1.14"/><path class="cls-7" d="M5.36 343.15h2.27v2.27H5.36z"/><circle class="cls-8" cx="6.5" cy="344.29" r="1.14"/><path class="cls-7" d="M5.36 338.82h2.27v2.27H5.36z"/><circle class="cls-8" cx="6.5" cy="339.96" r="1.14"/><path class="cls-7" d="M5.36 334.49h2.27v2.27H5.36z"/><circle class="cls-8" cx="6.5" cy="335.62" r="1.14"/><path class="cls-7" d="M5.36 330.15h2.27v2.27H5.36z"/><circle class="cls-8" cx="6.5" cy="331.29" r="1.14"/><path class="cls-7" d="M5.36 325.82h2.27v2.27H5.36z"/><circle class="cls-8" cx="6.5" cy="326.96" r="1.14"/><path class="cls-7" d="M5.36 321.49h2.27v2.27H5.36z"/><circle class="cls-8" cx="6.5" cy="322.63" r="1.14"/><path class="cls-7" d="M5.36 317.16h2.27v2.27H5.36z"/><circle class="cls-8" cx="6.5" cy="318.3" r="1.14"/><path class="cls-7" d="M5.36 312.83h2.27v2.27H5.36z"/><circle class="cls-8" cx="6.5" cy="313.96" r="1.14"/><path class="cls-7" d="M5.36 308.49h2.27v2.27H5.36z"/><circle class="cls-8" cx="6.5" cy="309.63" r="1.14"/><path class="cls-7" d="M5.36 304.16h2.27v2.27H5.36z"/><circle class="cls-8" cx="6.5" cy="305.3" r="1.14"/><path class="cls-7" d="M5.36 299.83h2.27v2.27H5.36z"/><circle class="cls-8" cx="6.5" cy="300.97" r="1.14"/><path class="cls-7" d="M5.36 295.5h2.27v2.27H5.36z"/><circle class="cls-8" cx="6.5" cy="296.64" r="1.14"/><path class="cls-7" d="M5.36 291.17h2.27v2.27H5.36z"/><circle class="cls-8" cx="6.5" cy="292.3" r="1.14"/><path class="cls-7" d="M5.36 286.83h2.27v2.27H5.36z"/><circle class="cls-8" cx="6.5" cy="287.97" r="1.14"/><path class="cls-7" d="M5.36 282.5h2.27v2.27H5.36z"/><circle class="cls-8" cx="6.5" cy="283.64" r="1.14"/><path class="cls-7" d="M5.36 278.17h2.27v2.27H5.36z"/><circle class="cls-8" cx="6.5" cy="279.31" r="1.14"/><path class="cls-7" d="M5.36 273.84h2.27v2.27H5.36z"/><circle class="cls-8" cx="6.5" cy="274.98" r="1.14"/><path class="cls-7" d="M5.36 269.51h2.27v2.27H5.36z"/><circle class="cls-8" cx="6.5" cy="270.64" r="1.14"/><path class="cls-7" d="M5.36 265.17h2.27v2.27H5.36z"/><circle class="cls-8" cx="6.5" cy="266.31" r="1.14"/><path class="cls-7" d="M5.36 260.84h2.27v2.27H5.36z"/><circle class="cls-8" cx="6.5" cy="261.98" r="1.14"/><path class="cls-7" d="M5.36 256.51h2.27v2.27H5.36z"/><circle class="cls-8" cx="6.5" cy="257.65" r="1.14"/><path class="cls-7" d="M5.36 252.18h2.27v2.27H5.36z"/><circle class="cls-8" cx="6.5" cy="253.32" r="1.14"/><path class="cls-7" d="M5.36 247.85h2.27v2.27H5.36z"/><circle class="cls-8" cx="6.5" cy="248.98" r="1.14"/><path class="cls-7" d="M5.36 243.51h2.27v2.27H5.36z"/><circle class="cls-8" cx="6.5" cy="244.65" r="1.14"/><path class="cls-7" d="M5.36 239.18h2.27v2.27H5.36z"/><circle class="cls-8" cx="6.5" cy="240.32" r="1.14"/><path class="cls-7" d="M5.36 234.85h2.27v2.27H5.36z"/><circle class="cls-8" cx="6.5" cy="235.99" r="1.14"/><path class="cls-7" d="M5.36 230.52h2.27v2.27H5.36z"/><circle class="cls-8" cx="6.5" cy="231.66" r="1.14"/><path class="cls-7" d="M5.36 226.19h2.27v2.27H5.36z"/><circle class="cls-8" cx="6.5" cy="227.32" r="1.14"/><path class="cls-7" d="M5.36 221.85h2.27v2.27H5.36z"/><circle class="cls-8" cx="6.5" cy="222.99" r="1.14"/><path class="cls-7" d="M5.36 217.52h2.27v2.27H5.36z"/><circle class="cls-8" cx="6.5" cy="218.66" r="1.14"/><path class="cls-7" d="M5.36 213.19h2.27v2.27H5.36z"/><circle class="cls-8" cx="6.5" cy="214.33" r="1.14"/><path class="cls-7" d="M7.66 211.17a10.9 10.9 0 01.25-2l-2.22-.5a13.17 13.17 0 00-.31 2.47z"/><path class="cls-9" d="M6.8 208.88a1.14 1.14 0 01-.28 2.25 1.14 1.14 0 11.28-2.25z"/><path class="cls-7" d="M8.47 207.36c.14-.31.3-.62.44-.93s.35-.59.53-.88l-1.9-1.25c-.21.36-.44.7-.64 1.07s-.37.74-.53 1.12z"/><path class="cls-9" d="M8.49 204.92a1.14 1.14 0 01-1.07 2 1.14 1.14 0 111.07-2z"/><path class="cls-7" d="M10.6 204.09a10.25 10.25 0 011.54-1.36l-1.34-1.84a12.52 12.52 0 00-1.86 1.64z"/><path class="cls-9" d="M11.47 201.81a1.14 1.14 0 01-1.7 1.5 1.14 1.14 0 111.7-1.5z"/><path class="cls-7" d="M13.73 201.76a6.91 6.91 0 01.94-.41 7.15 7.15 0 011-.32l-.6-2.19a9.2 9.2 0 00-1.18.39 8.92 8.92 0 00-1.14.5z"/><path class="cls-9" d="M15.34 199.94a1.14 1.14 0 01-2.12.81 1.14 1.14 0 112.12-.81z"/><path class="cls-7" d="M17.47 200.69l1.03-.05h1.14v-2.28H18.5l-1.24.07.21 2.26z"/><path class="cls-9" d="M19.64 199.5a1.14 1.14 0 01-1.14 1.14 1.16 1.16 0 01-1.13-1.08 1.12 1.12 0 011.13-1.19 1.14 1.14 0 011.14 1.13z"/><path class="cls-7" d="M21.7 198.36h2.27v2.27H21.7z"/><circle class="cls-8" cx="22.83" cy="199.5" r="1.14"/><path class="cls-7" d="M26.03 198.36h2.27v2.27h-2.27z"/><circle class="cls-8" cx="27.16" cy="199.5" r="1.14"/><path class="cls-7" d="M30.36 198.36h2.27v2.27h-2.27z"/><circle class="cls-8" cx="31.5" cy="199.5" r="1.14"/><path class="cls-7" d="M34.69 198.36h2.27v2.27h-2.27z"/><circle class="cls-8" cx="35.83" cy="199.5" r="1.14"/><path class="cls-7" d="M39.02 198.36h2.27v2.27h-2.27z"/><circle class="cls-8" cx="40.16" cy="199.5" r="1.14"/><path class="cls-7" d="M43.36 198.36h2.27v2.27h-2.27z"/><circle class="cls-8" cx="44.49" cy="199.5" r="1.14"/><path class="cls-7" d="M47.69 198.36h2.27v2.27h-2.27z"/><circle class="cls-8" cx="48.82" cy="199.5" r="1.14"/><path class="cls-7" d="M52.02 198.36h2.27v2.27h-2.27z"/><circle class="cls-8" cx="53.16" cy="199.5" r="1.14"/><path class="cls-7" d="M56.35 198.36h2.27v2.27h-2.27z"/><circle class="cls-8" cx="57.49" cy="199.5" r="1.14"/><path class="cls-7" d="M60.68 198.36h2.27v2.27h-2.27z"/><circle class="cls-8" cx="61.82" cy="199.5" r="1.14"/><path class="cls-7" d="M65.02 198.36h2.27v2.27h-2.27z"/><circle class="cls-8" cx="66.15" cy="199.5" r="1.14"/><path class="cls-7" d="M69.35 198.36h2.27v2.27h-2.27z"/><circle class="cls-8" cx="70.48" cy="199.5" r="1.14"/><path class="cls-7" d="M73.68 198.36h2.27v2.27h-2.27z"/><circle class="cls-8" cx="74.82" cy="199.5" r="1.14"/><path class="cls-7" d="M78.01 198.36h2.27v2.27h-2.27z"/><circle class="cls-8" cx="79.15" cy="199.5" r="1.14"/><path class="cls-7" d="M82.34 198.36h2.27v2.27h-2.27z"/><circle class="cls-8" cx="83.48" cy="199.5" r="1.14"/><path class="cls-7" d="M86.68 198.36h2.27v2.27h-2.27z"/><circle class="cls-8" cx="87.81" cy="199.5" r="1.14"/><path class="cls-7" d="M91.01 198.36h2.27v2.27h-2.27z"/><circle class="cls-8" cx="92.14" cy="199.5" r="1.14"/><path class="cls-7" d="M95.34 198.36h2.27v2.27h-2.27z"/><circle class="cls-8" cx="96.48" cy="199.5" r="1.14"/><path class="cls-7" d="M99.67 198.36h2.27v2.27h-2.27z"/><circle class="cls-8" cx="100.81" cy="199.5" r="1.14"/><path class="cls-7" d="M104 198.36h2.27v2.27H104z"/><circle class="cls-8" cx="105.14" cy="199.5" r="1.14"/><path class="cls-7" d="M108.34 198.36h2.27v2.27h-2.27z"/><circle class="cls-8" cx="109.47" cy="199.5" r="1.14"/><path class="cls-7" d="M112.67 198.36h2.27v2.27h-2.27z"/><circle class="cls-8" cx="113.8" cy="199.5" r="1.14"/><path class="cls-7" d="M117 198.36h2.27v2.27H117z"/><circle class="cls-8" cx="118.14" cy="199.5" r="1.14"/><path class="cls-7" d="M121.33 198.36h2.27v2.27h-2.27z"/><circle class="cls-8" cx="122.47" cy="199.5" r="1.14"/><path class="cls-7" d="M125.66 198.36h2.27v2.27h-2.27z"/><circle class="cls-8" cx="126.8" cy="199.5" r="1.14"/><path class="cls-7" d="M130 198.36h2.27v2.27H130z"/><circle class="cls-8" cx="131.13" cy="199.5" r="1.14"/><path class="cls-7" d="M134.33 198.36h2.27v2.27h-2.27z"/><circle class="cls-8" cx="135.46" cy="199.5" r="1.14"/><path class="cls-7" d="M138.66 198.36h2.27v2.27h-2.27z"/><circle class="cls-8" cx="139.8" cy="199.5" r="1.14"/><path class="cls-7" d="M142.99 198.36h2.27v2.27h-2.27z"/><circle class="cls-8" cx="144.13" cy="199.5" r="1.14"/><path class="cls-7" d="M147.32 198.36h2.27v2.27h-2.27z"/><circle class="cls-8" cx="148.46" cy="199.5" r="1.14"/><path class="cls-7" d="M151.66 198.36h2.27v2.27h-2.27z"/><circle class="cls-8" cx="152.79" cy="199.5" r="1.14"/><path class="cls-7" d="M155.99 198.36h2.27v2.27h-2.27z"/><circle class="cls-8" cx="157.12" cy="199.5" r="1.14"/><path class="cls-7" d="M160.32 198.36h2.27v2.27h-2.27z"/><circle class="cls-8" cx="161.46" cy="199.5" r="1.14"/><path class="cls-7" d="M164.65 198.36h2.27v2.27h-2.27z"/><circle class="cls-8" cx="165.79" cy="199.5" r="1.14"/><path class="cls-7" d="M168.98 198.36h2.27v2.27h-2.27z"/><circle class="cls-8" cx="170.12" cy="199.5" r="1.14"/><path class="cls-7" d="M173.32 198.36h2.27v2.27h-2.27z"/><circle class="cls-8" cx="174.45" cy="199.5" r="1.14"/><path class="cls-7" d="M177.65 198.36h2.27v2.27h-2.27z"/><circle class="cls-8" cx="178.78" cy="199.5" r="1.14"/><path class="cls-7" d="M181.98 198.36h2.27v2.27h-2.27z"/><circle class="cls-8" cx="183.12" cy="199.5" r="1.14"/><path class="cls-7" d="M186.31 198.36h2.27v2.27h-2.27z"/><circle class="cls-8" cx="187.45" cy="199.5" r="1.14"/><path class="cls-7" d="M190.64 198.36h2.27v2.27h-2.27z"/><circle class="cls-8" cx="191.78" cy="199.5" r="1.14"/><path class="cls-7" d="M194.98 198.36h2.27v2.27h-2.27z"/><circle class="cls-8" cx="196.11" cy="199.5" r="1.14"/><path class="cls-7" d="M199.31 198.36h2.27v2.27h-2.27z"/><circle class="cls-8" cx="200.44" cy="199.5" r="1.14"/><path class="cls-7" d="M203.64 198.36h2.27v2.27h-2.27z"/><circle class="cls-8" cx="204.78" cy="199.5" r="1.14"/><path class="cls-7" d="M207.97 198.36h2.27v2.27h-2.27z"/><circle class="cls-8" cx="209.11" cy="199.5" r="1.14"/><path class="cls-7" d="M212.3 198.36h2.27v2.27h-2.27z"/><circle class="cls-8" cx="213.44" cy="199.5" r="1.14"/><path class="cls-7" d="M216.64 198.36h2.27v2.27h-2.27z"/><circle class="cls-8" cx="217.77" cy="199.5" r="1.14"/><path class="cls-7" d="M220.97 198.36h2.27v2.27h-2.27z"/><circle class="cls-8" cx="222.1" cy="199.5" r="1.14"/><path class="cls-7" d="M225.3 198.36h2.27v2.27h-2.27z"/><circle class="cls-8" cx="226.44" cy="199.5" r="1.14"/><path class="cls-7" d="M229.63 198.36h2.27v2.27h-2.27z"/><circle class="cls-8" cx="230.77" cy="199.5" r="1.14"/><path class="cls-7" d="M233.96 198.36h2.27v2.27h-2.27z"/><circle class="cls-8" cx="235.1" cy="199.5" r="1.14"/><path class="cls-7" d="M238.3 198.36h2.27v2.27h-2.27z"/><circle class="cls-8" cx="239.43" cy="199.5" r="1.14"/><path class="cls-7" d="M242.63 198.36h2.27v2.27h-2.27z"/><circle class="cls-8" cx="243.76" cy="199.5" r="1.14"/><path class="cls-7" d="M246.96 198.36h2.27v2.27h-2.27z"/><circle class="cls-8" cx="248.1" cy="199.5" r="1.14"/><path class="cls-7" d="M251.29 198.36h2.27v2.27h-2.27z"/><circle class="cls-8" cx="252.43" cy="199.5" r="1.14"/><path class="cls-7" d="M255.62 198.36h2.27v2.27h-2.27z"/><circle class="cls-8" cx="256.76" cy="199.5" r="1.14"/><path class="cls-7" d="M259.96 198.36h2.27v2.27h-2.27z"/><circle class="cls-8" cx="261.09" cy="199.5" r="1.14"/><path class="cls-7" d="M264.29 198.36h2.27v2.27h-2.27z"/><circle class="cls-8" cx="265.42" cy="199.5" r="1.14"/><path class="cls-7" d="M268.62 198.36h2.27v2.27h-2.27z"/><circle class="cls-8" cx="269.76" cy="199.5" r="1.14"/><path class="cls-7" d="M272.81 200.73a11.74 11.74 0 012 .44l.7-2.16a14 14 0 00-2.43-.53z"/><path class="cls-9" d="M275.16 200.08a1.14 1.14 0 01-2.22-.48 1.14 1.14 0 112.22.48z"/><path class="cls-7" d="M276.53 201.89a11.72 11.72 0 011.72 1.13l1.42-1.78a14 14 0 00-2.08-1.36z"/><path class="cls-9" d="M279 202.12a1.14 1.14 0 01-1.9-1.24 1.14 1.14 0 111.9 1.24z"/><path class="cls-7" d="M279.6 204.3a7.13 7.13 0 01.65.8 6.91 6.91 0 01.57.86l2-1.17a8.92 8.92 0 00-.69-1 9.15 9.15 0 00-.78-1z"/><path class="cls-9" d="M281.79 205.37a1.14 1.14 0 01-1.34-1.83 1.14 1.14 0 111.34 1.83z"/><path class="cls-7" d="M281.63 207.62a10.32 10.32 0 01.55 2l2.24-.4a12.58 12.58 0 00-.67-2.39z"/><path class="cls-9" d="M283.3 209.4a1.14 1.14 0 01-.61-2.18 1.14 1.14 0 11.61 2.18z"/><path class="cls-7" d="M282.36 211.45v2.27h2.28l-.01-2.28-2.27.01z"/><path class="cls-9" d="M283.5 213.72a1.14 1.14 0 111.14-1.14 1.14 1.14 0 01-1.14 1.14z"/><path class="cls-7" d="M282.36 215.78h2.27v2.27h-2.27z"/><circle class="cls-8" cx="283.5" cy="216.91" r="1.14"/><path class="cls-7" d="M282.36 220.11h2.27v2.27h-2.27z"/><circle class="cls-8" cx="283.5" cy="221.25" r="1.14"/><path class="cls-7" d="M282.36 224.44h2.27v2.27h-2.27z"/><circle class="cls-8" cx="283.5" cy="225.58" r="1.14"/><path class="cls-7" d="M282.36 228.77h2.27v2.27h-2.27z"/><circle class="cls-8" cx="283.5" cy="229.91" r="1.14"/><path class="cls-7" d="M282.36 233.11h2.27v2.27h-2.27z"/><circle class="cls-8" cx="283.5" cy="234.24" r="1.14"/><path class="cls-7" d="M282.36 237.44h2.27v2.27h-2.27z"/><circle class="cls-8" cx="283.5" cy="238.57" r="1.14"/><path class="cls-7" d="M282.36 241.77h2.27v2.27h-2.27z"/><circle class="cls-8" cx="283.5" cy="242.91" r="1.14"/><path class="cls-7" d="M282.36 246.1h2.27v2.27h-2.27z"/><circle class="cls-8" cx="283.5" cy="247.24" r="1.14"/><path class="cls-7" d="M282.36 250.43h2.27v2.27h-2.27z"/><circle class="cls-8" cx="283.5" cy="251.57" r="1.14"/><path class="cls-7" d="M282.36 254.77h2.27v2.27h-2.27z"/><circle class="cls-8" cx="283.5" cy="255.9" r="1.14"/><path class="cls-7" d="M282.36 259.1h2.27v2.27h-2.27z"/><circle class="cls-8" cx="283.5" cy="260.23" r="1.14"/><path class="cls-7" d="M282.36 263.43h2.27v2.27h-2.27z"/><circle class="cls-8" cx="283.5" cy="264.57" r="1.14"/><path class="cls-7" d="M282.36 267.76h2.27v2.27h-2.27z"/><circle class="cls-8" cx="283.5" cy="268.9" r="1.14"/><path class="cls-7" d="M282.36 272.09h2.27v2.27h-2.27z"/><circle class="cls-8" cx="283.5" cy="273.23" r="1.14"/><path class="cls-7" d="M282.36 276.43h2.27v2.27h-2.27z"/><circle class="cls-8" cx="283.5" cy="277.56" r="1.14"/><path class="cls-7" d="M282.36 280.76h2.27v2.27h-2.27z"/><circle class="cls-8" cx="283.5" cy="281.89" r="1.14"/><path class="cls-7" d="M282.36 285.09h2.27v2.27h-2.27z"/><circle class="cls-8" cx="283.5" cy="286.23" r="1.14"/><path class="cls-7" d="M282.36 289.42h2.27v2.27h-2.27z"/><circle class="cls-8" cx="283.5" cy="290.56" r="1.14"/><path class="cls-7" d="M282.36 293.75h2.27v2.27h-2.27z"/><circle class="cls-8" cx="283.5" cy="294.89" r="1.14"/><path class="cls-7" d="M282.36 298.09h2.27v2.27h-2.27z"/><circle class="cls-8" cx="283.5" cy="299.22" r="1.14"/><path class="cls-7" d="M282.36 302.42h2.27v2.27h-2.27z"/><circle class="cls-8" cx="283.5" cy="303.55" r="1.14"/><path class="cls-7" d="M282.36 306.75h2.27v2.27h-2.27z"/><circle class="cls-8" cx="283.5" cy="307.89" r="1.14"/><path class="cls-7" d="M282.36 311.08h2.27v2.27h-2.27z"/><circle class="cls-8" cx="283.5" cy="312.22" r="1.14"/><path class="cls-7" d="M282.36 315.41h2.27v2.27h-2.27z"/><circle class="cls-8" cx="283.5" cy="316.55" r="1.14"/><path class="cls-7" d="M282.36 319.75h2.27v2.27h-2.27z"/><circle class="cls-8" cx="283.5" cy="320.88" r="1.14"/><path class="cls-7" d="M282.36 324.08h2.27v2.27h-2.27z"/><circle class="cls-8" cx="283.5" cy="325.21" r="1.14"/><path class="cls-7" d="M282.36 328.41h2.27v2.27h-2.27z"/><circle class="cls-8" cx="283.5" cy="329.55" r="1.14"/><path class="cls-7" d="M282.36 332.74h2.27v2.27h-2.27z"/><circle class="cls-8" cx="283.5" cy="333.88" r="1.14"/><path class="cls-7" d="M282.36 337.07h2.27v2.27h-2.27z"/><circle class="cls-8" cx="283.5" cy="338.21" r="1.14"/><path class="cls-7" d="M282.36 341.41h2.27v2.27h-2.27z"/><circle class="cls-8" cx="283.5" cy="342.54" r="1.14"/><path class="cls-7" d="M282.36 345.74h2.27v2.27h-2.27z"/><circle class="cls-8" cx="283.5" cy="346.87" r="1.14"/><path class="cls-7" d="M282.36 350.07h2.27v2.27h-2.27z"/><circle class="cls-8" cx="283.5" cy="351.21" r="1.14"/><path class="cls-7" d="M282.36 354.4h2.27v2.27h-2.27z"/><circle class="cls-8" cx="283.5" cy="355.54" r="1.14"/><path class="cls-7" d="M282.36 358.73h2.27V361h-2.27z"/><circle class="cls-8" cx="283.5" cy="359.87" r="1.14"/><path class="cls-7" d="M282.36 363.07h2.27v2.27h-2.27z"/><circle class="cls-8" cx="283.5" cy="364.2" r="1.14"/><path class="cls-7" d="M282.36 367.4h2.27v2.27h-2.27z"/><circle class="cls-8" cx="283.5" cy="368.53" r="1.14"/><path class="cls-7" d="M282.36 371.73h2.27V374h-2.27z"/><circle class="cls-8" cx="283.5" cy="372.87" r="1.14"/><path class="cls-7" d="M282.36 376.06h2.27v2.27h-2.27z"/><circle class="cls-8" cx="283.5" cy="377.2" r="1.14"/><path class="cls-7" d="M282.36 380.39h2.27v2.27h-2.27z"/><circle class="cls-8" cx="283.5" cy="381.53" r="1.14"/><path class="cls-7" d="M282.36 384.73h2.27V387h-2.27z"/><circle class="cls-8" cx="283.5" cy="385.86" r="1.14"/><path class="cls-7" d="M282.36 389.06h2.27v2.27h-2.27z"/><circle class="cls-8" cx="283.5" cy="390.19" r="1.14"/><path class="cls-7" d="M282.36 393.39h2.27v2.27h-2.27z"/><circle class="cls-8" cx="283.5" cy="394.53" r="1.14"/><path class="cls-7" d="M282.36 397.72h2.27v2.27h-2.27z"/><circle class="cls-8" cx="283.5" cy="398.86" r="1.14"/><path class="cls-7" d="M282.36 402.05h2.27v2.27h-2.27z"/><circle class="cls-8" cx="283.5" cy="403.19" r="1.14"/><path class="cls-7" d="M282.36 406.39h2.27v2.27h-2.27z"/><circle class="cls-8" cx="283.5" cy="407.52" r="1.14"/><path class="cls-7" d="M282.36 410.72h2.27v2.27h-2.27z"/><circle class="cls-8" cx="283.5" cy="411.85" r="1.14"/><path class="cls-7" d="M282.36 415.05h2.27v2.27h-2.27z"/><circle class="cls-8" cx="283.5" cy="416.19" r="1.14"/><path class="cls-7" d="M282.36 419.38h2.27v2.27h-2.27z"/><circle class="cls-8" cx="283.5" cy="420.52" r="1.14"/><path class="cls-7" d="M282.36 423.71h2.27v2.27h-2.27z"/><circle class="cls-8" cx="283.5" cy="424.85" r="1.14"/><path class="cls-7" d="M282.36 428.05h2.27v2.27h-2.27z"/><circle class="cls-8" cx="283.5" cy="429.18" r="1.14"/><path class="cls-7" d="M282.36 432.38h2.27v2.27h-2.27z"/><circle class="cls-8" cx="283.5" cy="433.51" r="1.14"/><path class="cls-7" d="M282.36 436.71h2.27v2.27h-2.27z"/><circle class="cls-8" cx="283.5" cy="437.85" r="1.14"/><path class="cls-7" d="M282.36 441.04h2.27v2.27h-2.27z"/><circle class="cls-8" cx="283.5" cy="442.18" r="1.14"/><path class="cls-7" d="M282.36 445.37h2.27v2.27h-2.27z"/><circle class="cls-8" cx="283.5" cy="446.51" r="1.14"/><path class="cls-7" d="M282.36 449.71h2.27v2.27h-2.27z"/><circle class="cls-8" cx="283.5" cy="450.84" r="1.14"/><path class="cls-7" d="M282.36 454.04h2.27v2.27h-2.27z"/><circle class="cls-8" cx="283.5" cy="455.17" r="1.14"/><path class="cls-7" d="M282.36 458.37h2.27v2.27h-2.27z"/><circle class="cls-8" cx="283.5" cy="459.51" r="1.14"/><path class="cls-7" d="M282.36 462.7v2.23l2.27.09c.05-.85 0-1.54 0-2.32z"/><path class="cls-9" d="M283.48 465a1.14 1.14 0 111.16-1.14 1.14 1.14 0 01-1.16 1.14z"/><path class="cls-7" d="M282.12 466.78l-.26 1-.36 1 2.09.89.43-1.17c.12-.4.21-.8.32-1.2z"/><path class="cls-9" d="M282.54 469.18a1.14 1.14 0 01.68-2.16 1.14 1.14 0 11-.68 2.16z"/><path class="cls-7" d="M280.61 470.37a11.19 11.19 0 01-1.28 1.61l1.64 1.57a13.47 13.47 0 001.54-1.95z"/><path class="cls-9" d="M280.16 472.77a1.14 1.14 0 011.41-1.78 1.14 1.14 0 11-1.41 1.78z"/><path class="cls-7" d="M277.94 473.21a6.47 6.47 0 01-.85.57 6.23 6.23 0 01-.9.49l1 2a8.14 8.14 0 001.09-.59 8.41 8.41 0 001-.69z"/><path class="cls-9" d="M276.68 475.3a1.14 1.14 0 011.94-1.17 1.14 1.14 0 11-1.94 1.17z"/><path class="cls-7" d="M274.45 474.94a11.12 11.12 0 01-2 .37l.19 2.27a13.4 13.4 0 002.44-.45z"/><path class="cls-9" d="M272.53 476.45a1.14 1.14 0 012.23-.41 1.14 1.14 0 11-2.23.41z"/><text transform="translate(50.36 363.95)" font-size="17.39" font-family="SegoePrint,Segoe Print">produtos elaborados <tspan x="-3.86" y="20.87">com </tspan><tspan x="39.62" y="20.87" letter-spacing="0">r</tspan><tspan x="48.56" y="20.87">eceita a</tspan><tspan x="116.02" y="20.87" letter-spacing=".04em">r</tspan><tspan x="125.64" y="20.87" letter-spacing="0">tesanal</tspan></text><path class="cls-1" d="M47 399h195v23H47z"/><text transform="translate(64.52 415)" font-family="Verdana,Verdana" font-size="12" fill="#fff">LIVRE DE CONSER<tspan x="112.07" y="0" letter-spacing="-.03em">V</tspan><tspan x="119.92" y="0">ANTES</tspan></text><path class="cls-3" d="M51.5 402.5h187v16h-187z"/><path class="cls-1" d="M212 453H80l6-7-6-8h132l-5 8z"/><text transform="translate(105 448.52)" font-size="7.54" font-family="Verdana,Verdana" fill="#fff">NÃO CONTÉM CLÚTEN</text><path class="cls-3" d="M206.89 450.72h-122l4.57-5.22-4.57-5.22h122l-3.39 6.22z"/></svg>