<svg xmlns="http://www.w3.org/2000/svg" viewBox="0 0 158.58 40.68"><defs><style>.cls-2{fill:#fff}.cls-3{fill:#02c}.cls-4{fill:#e6fffe}</style></defs><g id="Camada_2" data-name="Camada 2"><path d="M21.33 13.67C22.35 25.86 54.6 36.45 81 35.5c9.86-.35 31.22-2.76 55-20a11.19 11.19 0 0 0 4.5.67 11.28 11.28 0 0 0 5.5-1.83c-.36-2.24-1.09-4.46-2.67-5-2.74-.94-6 3.88-7.67 3-.83-.45-1.16-2.32.17-7.67-.44-.26-6.38-3.72-8-2-.73.77-.34 2.32 0 3.5 1.45 5 4.68 6.32 4.5 7.67-.54 4-31.59 11.29-59.5-1.83C68 9.73 61.65 6.09 51.17 3.33c-8.56-2.25-18.27-4.66-24.67.5-.27.22-5.6 4.64-5.17 9.84Z" transform="translate(-20.92 .22)" fill="#abb4f4"/><ellipse class="cls-2" cx="19.92" cy="10.72" rx="6.67" ry="5.66"/><circle class="cls-3" cx="20" cy="11.14" r="1.42"/></g><g id="Camada_3" data-name="Camada 3"><path class="cls-3" d="M21.83 14.58c.81-1.75 5.69-1.83 9.25-.08 1.73.85 2.35 1.73 4.67 4.08l7.42 6.75c6.65 6 18.35 7.89 21 8.25 7.92 1.09 21.21.87 25.83-.75a8.61 8.61 0 0 1 5.83-.25 6.57 6.57 0 0 1 1.49.79 98.45 98.45 0 0 1-14.24 2 94.55 94.55 0 0 1-10.65.13 110.51 110.51 0 0 1-23-3.66 96.25 96.25 0 0 1-12.79-4.34 62 62 0 0 1-10-5.8c-1.06-.73-4.25-3-4.82-6.13a1.64 1.64 0 0 1 .01-.99Z" transform="translate(-20.92 .22)"/><path class="cls-3" d="M40.11 17.17a7.2 7.2 0 0 0 5.47-1 7.38 7.38 0 0 0 3.06-5.69 6.48 6.48 0 0 1 0 2.58 6.12 6.12 0 0 1-2.45 3.76 6.06 6.06 0 0 1-4.24 1 5.71 5.71 0 0 1-1.84-.65ZM50 14.64c-.18.43-1.84 4.28-4.64 4.42a3.24 3.24 0 0 1-.92-.09 5 5 0 0 0 3.5-.39 3.86 3.86 0 0 0 1.84-1.88 3.67 3.67 0 0 0 .22-2.06ZM68.93 17.55s2.83 5.74 7 6c1.2.07 2.12-.34 2.29 0 .3.59-2 2.79-4.49 3.61-4 1.29-7.86-1.1-9-1.85a5.09 5.09 0 0 0 1.23 2.2 6.1 6.1 0 0 0 4 1.59 10.19 10.19 0 0 0 6.43-1.41 4.75 4.75 0 0 0 2.29-2.2 4.23 4.23 0 0 0 .09-2.82 5.13 5.13 0 0 1-1.16.43 5.44 5.44 0 0 1-3.21-.24 8.11 8.11 0 0 1-2.59-2 22.17 22.17 0 0 1-2.88-3.31Z" transform="translate(-20.92 .22)"/><circle class="cls-2" cx="33.15" cy="8.31" r="1.42"/><circle class="cls-2" cx="28.6" cy="1.76" r=".77"/><circle class="cls-2" cx="37.43" cy="3.29" r="1.18"/><circle class="cls-2" cx="46.66" cy="3.86" r="2.1"/><circle class="cls-2" cx="40.26" cy="7.29" r=".4"/><circle class="cls-2" cx="27.85" cy="6.89" r=".41"/><ellipse class="cls-2" cx="53.28" cy="9.92" rx="1.43" ry="1.17"/><circle class="cls-2" cx="56.18" cy="3.59" r="1.47"/><circle class="cls-2" cx="10.64" cy="27.1" r=".57"/><circle class="cls-2" cx=".97" cy="18.08" r=".97"/><circle class="cls-2" cx="5.34" cy="19.82" r=".48"/><circle class="cls-2" cx="25.28" cy="23.71" r=".95"/><circle class="cls-2" cx="29.81" cy="35.56" r="1.56"/><circle class="cls-2" cx="40.24" cy="34.21" r="1.64"/><circle class="cls-2" cx="9.68" cy="4.12" r=".53"/></g><g id="Camada_5" data-name="Camada 5"><path class="cls-4" d="M109 25.26c-.94-.86-2.93.06-6.55 1.74a4 4 0 0 0-2 1.42 3.38 3.38 0 0 0 0 3.55 3.8 3.8 0 0 0 3 1.5 6.55 6.55 0 0 0 3.39-.79c.78-.44 1.3-1 2.21-.95a1.68 1.68 0 0 1 1 .32 1.77 1.77 0 0 1 .55 1.81 2 2 0 0 1-.87 1.1 6.77 6.77 0 0 1-4.65.87c-1.59-.24-2.07-.76-3.47-.55a2.23 2.23 0 0 0-1.58.71 2.53 2.53 0 0 0 .24 2.68c.53.72 1.63 1.21 13.49-1.58a4.88 4.88 0 0 0 2.76-1.5 5.43 5.43 0 0 0 1-3.55 4.83 4.83 0 0 0-.95-3.63 4.29 4.29 0 0 0-3-1.18c-1.33-.06-2.35.43-4.34 1.42-1.44.72-1.64 1-3.39 1.81-2.09 1-2.89 1.14-3.47.79a1.52 1.52 0 0 1-.71-1.1 1.5 1.5 0 0 1 .39-1.1c.32-.35.78-.5 1.81-.55 1.79-.1 2 .25 3.08.08.52-.08 1.85-.3 2.29-1.26a1.9 1.9 0 0 0-.23-2.06ZM124.41 19.26a43.62 43.62 0 0 1-5.6 2.37c-2 .8-2.35.91-2.52 1.34-.35.87.32 2 1.58 4.1.75 1.26.83 1.16 1.18 1.89 1 2.12.44 3.17 1.18 3.71.52.38 1.9-.16 4.65-1.26 4.43-1.77 3.23-1.84 4.73-2.21.42-.1 1.31-.29 1.58-.95a1.64 1.64 0 0 0-.08-1.1 3.27 3.27 0 0 0-1.5-2.21 2.25 2.25 0 0 0-1.42-.24 2.13 2.13 0 0 0-.95.47 20.16 20.16 0 0 1-4.5 2.52 1.17 1.17 0 0 1-1 .08.78.78 0 0 1-.32-.87c.1-.25.35-.27 1.1-.55a6.62 6.62 0 0 0 1.5-.71c.44-.3.73-.5.87-.87a2 2 0 0 0-.87-2.13 1.66 1.66 0 0 0-1.1-.32c-.43.05-.55.28-1.26.79s-1.34.94-1.81.79-.61-.46-.55-.71.7-.42 1-.47c2.89-.51 2.76-1.42 6.15-2.05.59-.11 1-.16 1.34-.55.55-.72.22-2.17-.39-2.37-.25-.08-.46.08-1.26.55-.57.35-1.14.62-1.73.96ZM134.1 14.74l-4.72 2.39a1.68 1.68 0 0 0-.79.95 1.63 1.63 0 0 0 .16 1.1c.43.93 2.09 4.13 4.42 8.44a2.2 2.2 0 0 0 1 .39 2.64 2.64 0 0 0 1.74-.55c1.62-1.11 10.19-6.29 12.62-6.78a1.58 1.58 0 0 0 1.1-.63 1.49 1.49 0 0 0 0-1.18c-.67-2-4.73-9.37-6.78-8.68a8.85 8.85 0 0 0-.87.39 3.88 3.88 0 0 0-1.42.95 2.41 2.41 0 0 0-.46 1.47 2.9 2.9 0 0 0 .39 1.42 13 13 0 0 0 1.58 2.45c1.16 1.34 2 1.79 2.05 2.6v.95s-1.9 2-3.87 2a2.35 2.35 0 0 1-1-.24 2.75 2.75 0 0 1-1.1-1.18 19.32 19.32 0 0 1-2-3.63c-.14-.84 0-1.17-.32-1.66a2.5 2.5 0 0 0-1.73-.97Z" transform="translate(-20.92 .22)"/><text transform="rotate(-39.6 107.845 -156.525)" font-size="15.84" fill="#fff800" font-family="VinerHandITC,Viner Hand ITC">APP</text></g></svg>