<svg id="logo" xmlns="http://www.w3.org/2000/svg" xmlns:xlink="http://www.w3.org/1999/xlink" viewBox="0 0 516.51 516.51"><defs><style>.cls-1{fill:#fff;}.cls-2{fill:#383737;}.cls-3{fill:#96393a;}.cls-4{fill:url(#Gradiente_sem_nome);}.cls-5{fill:#fcfcfc;}</style><linearGradient id="Gradiente_sem_nome" x1="38.28" y1="557.71" x2="277.79" y2="557.71" gradientTransform="matrix(1.24, 0, 0, -1.24, 83.93, 859.55)" gradientUnits="userSpaceOnUse"><stop offset="0" stop-color="#7c1a1d"/><stop offset="1" stop-color="#94393a"/></linearGradient></defs><title>logoSenhorBaconPadrao</title><g id="Camada_1" data-name="Camada 1"><circle class="cls-1" cx="258.26" cy="258.26" r="258.26"/><path class="cls-2" d="M31.25,325.08,38,309.76a42.63,42.63,0,0,0,20.5,5.68c5.93,0,8-1.24,8-3.33,0-7.78-34.34-1.48-34.34-24.7,0-11.49,9.63-20.87,28.9-20.87,8.28,0,16.92,1.73,23.47,5.43l-6.3,15.19c-6.18-3.09-11.86-4.57-17.29-4.57-6.18,0-8,1.73-8,4,0,7.41,34.34,1.24,34.34,24.08,0,11.36-9.63,20.87-28.9,20.87-10.5,0-21-2.59-27.17-6.42Zm131.41-10.87V330H111V268h50.52V283.7H131.66V291H158v15.07H131.66v8.15ZM249.73,268v62H232.44l-23.59-28.16V330H188.47V268h17.17l23.59,28.16V268Zm88.93,0v62H317.79V307.17H298.4V330H277.52V268H298.4v22h19.39V268ZM413,299c0-9.63-6.18-15.56-14-15.56s-14,5.8-14,15.56,6.18,15.56,14,15.56S413,308.65,413,299Zm-49,0c0-18.77,14.82-32.48,35.08-32.48s35.08,13.71,35.08,32.48-14.82,32.48-35.08,32.48S364,317.79,364,299Zm124-14.94h-7.66v14.57H488c5.8,0,8.52-2.72,8.52-7.29s-2.72-7.29-8.52-7.29Zm-2,30.38h-5.68V330h-21V267.89h29.89c17.29,0,28.28,9,28.28,23.47,0,9-4.2,15.69-11.73,19.51L518.86,330H496.51Zm25.07-57.93a5.3,5.3,0,0,1-5.31-5.06c-3.71-126.1-105.48-224.91-231.7-224.91s-228,98.81-231.7,224.91a5.3,5.3,0,0,1-5.31,5.06h-.12a5.17,5.17,0,0,1-5.06-5.43A242.27,242.27,0,0,1,443,84.6a241,241,0,0,1,73.24,166.49,5.25,5.25,0,0,1-5.06,5.43Zm-237,244.05A242.29,242.29,0,0,1,51.75,354.72a5.25,5.25,0,1,1,9.63-4.2,231.83,231.83,0,0,0,425.36,0,5.25,5.25,0,0,1,9.63,4.2A242.29,242.29,0,0,1,274.07,500.58Z" transform="translate(-15.81)"/><path class="cls-3" d="M491.19,252.95a1.69,1.69,0,0,1-1.73-1.73c-3.83-116.84-98.31-208.36-215.4-208.36S62.62,134.38,58.79,251.22a1.79,1.79,0,0,1-3.58-.12,219,219,0,0,1,437.72,0,1.79,1.79,0,0,1-1.73,1.85ZM274.07,477.11a216.88,216.88,0,0,1-117.7-34.46,220.1,220.1,0,0,1-79.42-89.3,1.77,1.77,0,1,1,3.21-1.48c35.82,74,112,121.78,194,121.78s158.09-47.8,194-121.78a1.77,1.77,0,1,1,3.21,1.48,221.29,221.29,0,0,1-79.54,89.3,217.59,217.59,0,0,1-117.83,34.46Z" transform="translate(-15.81)"/><path d="M160.93,403.63l4.69,3.58,2.47-8.15Zm1.85,13,1.24-4-7.9-5.93-3.46,2.22-5.93-4.45,23.1-13.34,5.93,4.45-6.67,25.69Zm25.69,1.48,3.71,1.85a3.38,3.38,0,0,0,2.59.37,3.55,3.55,0,0,0,2-1.85,3.38,3.38,0,0,0,.37-2.59,4,4,0,0,0-1.85-2L191.56,412l-3.09,6.05Zm.74,14.08.12-7.41L185.88,423l-3,5.93-6.42-3.33,11.24-21.74,10.13,5.19a11.6,11.6,0,0,1,5.8,5.56,8.09,8.09,0,0,1-.49,6.92,10.33,10.33,0,0,1-3.09,3.71,7.11,7.11,0,0,1-4.2,1.36l.74,9.39-7.41-3.83ZM211,415.36l20.38,6.79-1.85,5.56-6.67-2.22-5.93,17.66L210,440.8l5.93-17.66-6.79-2.22Zm24.83,7.9,19.76,3.46-1,5.43-12.47-2.1-.74,3.71,11.36,2-.86,5.56-11.49-2-.62,3.83,12.84,2.22-.86,5.56-20.13-3.58Zm39.28,10.13a10.88,10.88,0,0,0-3.83-.86,2.63,2.63,0,0,0-1.48.37,1.66,1.66,0,0,0-.62,1.11,1.74,1.74,0,0,0,1,1.48,22.15,22.15,0,0,0,3.33,1.24,20,20,0,0,1,4.2,1.61,7.45,7.45,0,0,1,2.84,2.35,5.37,5.37,0,0,1,1.11,4.08,7.21,7.21,0,0,1-1.36,4.32,8.35,8.35,0,0,1-3.71,2.59,13.52,13.52,0,0,1-5.19.74,16.34,16.34,0,0,1-6.3-1.24,17.62,17.62,0,0,1-5.43-3l2.84-5.43a19.63,19.63,0,0,0,4.45,2.84,15.91,15.91,0,0,0,4.57,1.24,4.12,4.12,0,0,0,1.85-.37,1.64,1.64,0,0,0,.74-1.24,1.83,1.83,0,0,0-1.11-1.61,29.09,29.09,0,0,0-3.33-1.24,31.89,31.89,0,0,1-4.2-1.48,7.14,7.14,0,0,1-2.84-2.22,5.79,5.79,0,0,1-1.11-4,6.48,6.48,0,0,1,1.36-4.08,7.72,7.72,0,0,1,3.58-2.59,14.1,14.1,0,0,1,5.31-.86,20,20,0,0,1,5.43.86,16.53,16.53,0,0,1,4.69,2.22L279,435.86a9.36,9.36,0,0,0-4-2.47Zm23.1,7.78,5.93-.86L300,432.9Zm10.62,7.66-2-3.71L297,446.61l-.86,4.08-7.41,1.11L295.43,426l7.41-1.11,13.59,22.73-7.66,1.24ZM333,416.72l6.3-2.1,7.9,23.22-5.8,2-14.2-9.51,4.32,12.84-6.3,2.1-7.9-23.1,5.93-2,14.2,9.51Zm27.79,4.2,5.19-2.84-6.42-5.56Zm12.6,3.58-3.21-2.72-8.65,4.82.62,4.08-6.55,3.58-2.72-26.43,6.55-3.58,20.75,16.55-6.79,3.71Zm-2-27.91,5.8-4.45,11.24,14.57,8.15-6.3,3.71,4.82L386.46,416Z" transform="translate(-15.81)"/><path class="cls-4" d="M200.7,101c-14.57,2.1-24.08,7.29-33.72,13.59-2.35,1.61-4.45,3.21-6.79,4.82s-5.06,2.84-7.16,4.57c-4.2,3.58-4.2,10-12.6,10.75-.12-8.77-9.51-7.41-10.13-2.1-.25,2.59,1.85,5.43,3,7.16.86,1.24,3.71,5.68,2,7.16-.62.62-3.33,1.11-5.19,4.94-4,8,1.24,18.9,8.15,19.64,2.47-2.35,1.24-8,.49-11.36s.12-2.22,1-5.06c.37-1.24.86-4.57,1.36-5.43,2,10,2,25.69,8.77,33.47,2,2.35,5.06,4.69,6.67,7.53,2.84,5.19-3.46,7.16-6.18,10-.86.86-.86,1.11-.74,2.72.37,4,.74,8.15,2.47,11.73.37.74,1.11,1.61,1.11,2.47,0,2.47-1.73,9.14-1.11,15.69a8.51,8.51,0,0,0,3.46.37H157a12.19,12.19,0,0,0,1.61,5.06c2.47,1.48,10,.86,13.46.74.37-3-5.31-6.42-8-11.12-2.59-4.45-1.61-11.61,1.24-14.82,2.1.49,6.92,7.41,8,9.63a31.37,31.37,0,0,1,2.47,6.55c.37,1.36,1.11,7.16,1.36,7.53l1.11-.12c4.45-2.84,2.72,3,5.93,3.71,2.59.62,9,1.24,10.5-1,1-1.48-.12-3.71-1.11-4.45-1.24-.86-2.84-1.24-4-2.35-3.09-3-6.42-13.46-3.46-18.65a19.43,19.43,0,0,1,2.59-3.46l4.45-4.94c3.33-4.2,6.79-9.51,12.47-9.63,3.46,0,7.16,1.36,9.88,2.47,8.77,3.21,20.63,6.79,30.26,7.29,9.26.49,18.16-.37,26.92-1.24a197,197,0,0,1,22.73-1.36c2,5.31,1.85,14,2.1,20,4.69,2.84,1.61,10.5,4.2,15.07,2,3.46,3.83,2.1,6.67,1.36,4-1,5.06-.74,9.14-.62-.37-5.8-6.55-7.66-8.28-12.6s2.72-11.24,4.2-15.44c.86-2.59,2.35-5.56,5.19-2.59s-.62,11,1.48,13.46c.62.74,2.1,1.11,3,2.22,1.85,2.22.37,6.18.49,9a21.25,21.25,0,0,0,8.4-1,17.9,17.9,0,0,1,8.15-.86c-1.11-1.61-3.33-3.09-6.42-7.9-3-4.57-5.06-10.87-1.48-15.93,1.61-2.35,2-1.48,5.31-2.35,12.6-3,9.63-1.24,18.28.86,12.35,3,36.81,1.36,48.66-1,1.11-4.82,5.19-6.92,5.06-12.1-.12-.12-.12-.12-.49-.25-2.59-1-13.34-1.24-13.59-8.77-.12-3.09,2.84-4.32,3.46-7.66.62-3.58-1.24-7.66-.49-10.62,4.57-.37,3.46-2.1,5.8-3.83,2.72-2,19-4.57,20.26-9.39a17.55,17.55,0,0,0-4.45-1.24h-2.35a23,23,0,0,1-3.33-.12L411,149c-6.67-3.83-13.71-5.19-20.87-8-6.92-2.72-9.39-5.19-13.46-9.63a63.54,63.54,0,0,1-5.31-6.18c-5.31-6.67-13.46-9.51-21.86-12.72a62.31,62.31,0,0,0-8.89-2.59c-3.33-.62-6.42-1.11-9.63-2-8.52-2.47-7.53-3.58-18.65-4.45a205.51,205.51,0,0,0-23.1-.12c-3.83.12-7.9.37-11.73.25-3.46,0-6.92-.74-10.25-1.11a92.49,92.49,0,0,0-11.73-.12c-3.83.12-7.53.25-11.24,0-10.5-.86-19.76-2.22-29.64-2.22a96.12,96.12,0,0,0-14,1Z" transform="translate(-15.81)"/><path class="cls-3" d="M325.2,351c-1.48,2.22-2.84,4.2-3.83,5.8l-.37.12a14.48,14.48,0,0,1,1.11-4.94,61.7,61.7,0,0,1,2.59-5.93q1.48-3,3.33-5.93a49.78,49.78,0,0,1,3.21-4.69,10.55,10.55,0,0,1,3.46-3.58c1-.49,1.24,0,.86,1.48a36.07,36.07,0,0,1-2.22,4.45c-1.11,2-2.35,4.08-3.83,6.3A60.5,60.5,0,0,1,325.2,351Zm-108.93-6.42c-1.61,2-3.46,4.2-5.56,6.55s-4.32,4.94-6.67,7.41a88,88,0,0,1-6.79,6.79c-2.1,2-4.08,3.58-5.68,4.82s-2.72,1.73-3.33,1.48c-1.24-.49-1.73-1.61-1.61-3.46a21.82,21.82,0,0,1,1.61-6.55,54.09,54.09,0,0,1,4-8.15,76.83,76.83,0,0,1,5.56-8c2-2.1,4.08-4.2,6.3-6.18a53.55,53.55,0,0,1,6.55-4.94,21.1,21.1,0,0,1,5.8-2.59c1.73-.49,3.09-.25,3.83.49a3.76,3.76,0,0,1,.86,2.35,7.11,7.11,0,0,1-.62,3.21L219.6,340a36,36,0,0,1-3.33,4.57Zm-57.43,12.84a17.35,17.35,0,0,1,1-4.94,48.07,48.07,0,0,1,2.47-6.05c1-2.1,2.1-4.08,3.21-6.05a36,36,0,0,1,3.21-4.82c1.36-1.85,2.47-3,3.46-3.33s1.36,0,1,1.36a29.31,29.31,0,0,1-2.22,4.69c-1.11,2-2.47,4.2-3.83,6.42s-3,4.57-4.45,6.79S159.82,355.71,158.83,357.43Zm264.56-10a20.49,20.49,0,0,1-1.48,1.73c-1.11,1.24-2.47,2.72-4.32,4.57s-3.83,3.71-6.18,5.8a66.22,66.22,0,0,1-6.67,5.56c-2.22,1.73-4.32,3.09-5.93,4.2s-3,1.61-3.83,1.48-1.36-.86-1.36-2.35.62-4,2-7.41a81.68,81.68,0,0,1,5.06-10.37,64.28,64.28,0,0,0,4.2-8.15c.37-.62.86-1.36,1.48-2.47a15.57,15.57,0,0,0,1.48-3.58,14.19,14.19,0,0,0,.49-4.08,7.66,7.66,0,0,0-1.11-4c-1.85-3.09-3.83-4.69-6.18-4.82a12.42,12.42,0,0,0-6.55,1.48,20.22,20.22,0,0,0-5.43,4.08,21.52,21.52,0,0,1-2.84,2.72,116.78,116.78,0,0,0-11,11.36c-3.09,3.83-6.18,7.9-9,12.23.74-2,1.36-3.83,2-5.56a53.64,53.64,0,0,1,2.1-4.94,56.41,56.41,0,0,1,2.84-5.19c1.11-1.85,2.47-4,4.2-6.42.37-.62.25-1.73-.12-3.09a21.89,21.89,0,0,0-1.85-3.83,8.91,8.91,0,0,0-2.47-2.72c-.86-.62-1.48-.62-1.85.12a2.17,2.17,0,0,0-.49.62c0,.12-.25.37-.49.62a33.57,33.57,0,0,0-4.2,4.2q-2.22,2.41-4.45,5.19c-1.61,1.85-3.09,3.58-4.57,5.19s-3,3.21-4.2,4.45l-7.41,7.29a13.48,13.48,0,0,1-.74,1.36l-2,2c-1.73,1.73-3.33,3.21-5.06,4.69a17.2,17.2,0,0,1-7.41,3,5,5,0,0,1-4.2,0l1.85-2.35c1.85-2.1,3.83-4.57,5.93-7.29a71.73,71.73,0,0,0,5.8-8.28,31.7,31.7,0,0,0,3.58-8.28,12.1,12.1,0,0,0-.12-7.29,11,11,0,0,0-2.72-3.71,5,5,0,0,0-4.32-1.36,16,16,0,0,0-6.79,2.84,18.13,18.13,0,0,0-5.19-2.47,10,10,0,0,0-4.57-.37,20.18,20.18,0,0,0-8.15,2.84,52.8,52.8,0,0,0-8.52,6.18,60.4,60.4,0,0,0-8,8.65,51.41,51.41,0,0,0-6.18,10.25c-.37.74-.62,1.48-1,2.22-3.33,3.09-6.67,6.05-9.88,8.89a42.87,42.87,0,0,1-18.28,9.26c-2.84.62-4.94.37-6.18-.37a6.29,6.29,0,0,1-2.47-4,13,13,0,0,1,.74-6.67,31.7,31.7,0,0,1,3.83-7.66,64.67,64.67,0,0,1,5.8-7.53,67.09,67.09,0,0,1,6.55-6.67,37.62,37.62,0,0,1,6.3-4.69,11.69,11.69,0,0,1,4.94-2c1.61,0,2,.62,1.36,1.73a20,20,0,0,1-3.21,4.2,57.84,57.84,0,0,1-4.82,4.69c-1.73,1.48-2.84,2.47-3.58,3a17.65,17.65,0,0,0,5.06,2.1,8.89,8.89,0,0,0,5.56-.62c1.24-1.11,2.47-2.22,3.71-3.46a23,23,0,0,0,3.21-3.83,12.09,12.09,0,0,0,1.73-4.57,11.56,11.56,0,0,0-.74-5.56,7.74,7.74,0,0,0-3.58-4.69,9.61,9.61,0,0,0-5.19-1.36,23.51,23.51,0,0,0-10.75,3.58,53.15,53.15,0,0,0-10.87,8.52,72.7,72.7,0,0,0-9.14,11.24c-.49.86-1,1.61-1.48,2.47-1,1.11-2.1,2.22-3.58,3.71-1.85,1.85-3.83,3.71-6.18,5.8s-4.45,4-6.67,5.56a38.06,38.06,0,0,1-6.42,4.45c-1.85,1.11-3.09,1.11-3.71.25q-2-1.85,1.11-9.26c.62-1.48,1.36-3.21,2.35-5.06s2.1-4,3.21-6.05l3.71-6.3c1.24-2.1,2.47-4,3.71-5.68.25-.37,0-1.11-.49-2.22s-1.36-2.22-2.1-3.46a14.79,14.79,0,0,0-2.59-2.84c-.86-.62-1.48-.74-1.85-.12l-2,3.09c-.37-3-1.48-5.06-3.21-6.3a10,10,0,0,0-5.56-1.85,25.73,25.73,0,0,0-11.12,3.71,49.4,49.4,0,0,0-10.75,8.52A67.85,67.85,0,0,0,185,347.43c-1.11,2-2.22,3.83-3.09,5.68-.62.49-1.11,1.11-1.73,1.61a37.5,37.5,0,0,1-5.19,4.82,17.29,17.29,0,0,1-7.29,3,9,9,0,0,1-4.45,0l.12-.12c1.85-2,3.83-4.45,6.18-7.41a90.21,90.21,0,0,0,6.42-8.89,40.6,40.6,0,0,0,4.45-9,11.21,11.21,0,0,0,0-8,10.37,10.37,0,0,0-2.72-3.83,4.94,4.94,0,0,0-4.32-1.24A14.2,14.2,0,0,0,166,327.3a36.77,36.77,0,0,0-6.55,7.16,51,51,0,0,0-5.06,8.65,43.25,43.25,0,0,0-2.84,7.66,20.65,20.65,0,0,0-.49,7.16,14,14,0,0,0,1.85,5.8,62.27,62.27,0,0,1-7.78,6.3c-2.47,1.61-4.32,2-5.68,1-.86-.62-1.24-1.61-1.36-3.33a35.7,35.7,0,0,1,1-7.41,20.64,20.64,0,0,1,3.09-7.29c1.73-2.72,3.33-5.56,5.06-8.4l36.31-56.44c.25-.37.12-1.11-.49-2.35a14.39,14.39,0,0,0-2.1-3.46,18.38,18.38,0,0,0-2.59-2.72c-.86-.62-1.61-.74-2.1-.12-.12.25-1.11,1.73-2.84,4.45s-4,6.05-6.42,10-5.31,8.28-8.28,12.84-5.68,8.77-8.15,12.72-4.69,7.29-6.42,10a53.81,53.81,0,0,0-2.84,4.69,59.75,59.75,0,0,1-3.71,6.42,68.48,68.48,0,0,0-4.82,9A54,54,0,0,0,129.19,360a21.11,21.11,0,0,0-.12,10.37,15.34,15.34,0,0,0,4.32,7.29A10.55,10.55,0,0,0,140.8,381a16,16,0,0,0,10.75-3.33,40,40,0,0,0,7.78-8,16.61,16.61,0,0,0,9,1.24,16,16,0,0,0,5.31-1.36,48.19,48.19,0,0,0,4.32-2.35c0,1.36,0,2.72.12,4.08a11.82,11.82,0,0,0,4.69,8.28A8.16,8.16,0,0,0,190.2,381a18.92,18.92,0,0,0,7.41-4.2,55.34,55.34,0,0,0,7-7.78c2.22-3.09,4.45-6.05,6.42-9.14-.37,2-.86,4.2-1.48,6.42a13.21,13.21,0,0,0-.25,4.94,12.15,12.15,0,0,0,1.36,4.69,10.94,10.94,0,0,0,3,3.71,7.24,7.24,0,0,0,4.57,1.48,11.25,11.25,0,0,0,6.05-1.48,47.39,47.39,0,0,0,6.18-4A51.81,51.81,0,0,0,236,370.9c1.73-1.73,3.21-3.09,4.2-4.2l1.24-1.24a6,6,0,0,0,.12,1.48,19.35,19.35,0,0,0,2.1,7.16,12.49,12.49,0,0,0,5.06,5.06,17.22,17.22,0,0,0,8.4,2.1,26.34,26.34,0,0,0,12.72-2.84,49.17,49.17,0,0,0,10.5-7.16c1.24-1.11,2.84-2.47,4.69-4a18,18,0,0,0,1.24,5.68,16.26,16.26,0,0,0,4.45,6.55c2.1,1.85,4.94,2.59,8.77,2.59,2.72,0,6.05-1.24,9.88-3.58a59.08,59.08,0,0,0,11.12-9.39,20.28,20.28,0,0,0,4.82,1.73,16,16,0,0,0,5.43.12,12.58,12.58,0,0,0,5.19-1.48c1.73-.86,3.21-1.85,4.82-2.84s2.84-2.22,4.08-3.33a32.71,32.71,0,0,0,3-3.09l2.22-2.22c2.22-2.35,4.57-4.57,6.79-6.79-1.24,2.35-2.47,5.19-4,8.4s-3.33,7.16-5.8,11.86a5.2,5.2,0,0,0-.12,4.08,8.52,8.52,0,0,0,2.47,3.46,8.74,8.74,0,0,0,3.83,2,4.91,4.91,0,0,0,4-.62h.37l8.4-9.88c3.46-4.08,6.92-8.28,10.62-12.6s7.16-8.28,10.62-12a84,84,0,0,1,8.4-8.28c-1.48,2.47-2.72,4.82-3.83,7s-2.1,4.32-3.09,6.55-1.73,4.32-2.47,6.55-1.36,4.57-2,7a34,34,0,0,0-.86,6.05,24.68,24.68,0,0,0,.49,5.43,8.14,8.14,0,0,0,2.1,4,6.54,6.54,0,0,0,4.2,1.73,13.07,13.07,0,0,0,6.42-1.48,43.21,43.21,0,0,0,7.16-4.2c2.35-1.61,4.57-3.33,6.55-4.94s3.58-3.09,4.69-4.2c.74-.62,1.85-1.73,3.21-3.09a23.55,23.55,0,0,0,3.83-4.69,13.3,13.3,0,0,0,2.1-5.56,6.81,6.81,0,0,0-.74-6.42Z" transform="translate(-15.81)"/></g><path class="cls-5" d="M317.66,341.75a57.76,57.76,0,0,1,6.18-9.88,4.16,4.16,0,0,0-2.47,0c-2,.25-4.45,1.61-7.53,4.2a59.14,59.14,0,0,0-8.89,9.39,56,56,0,0,0-7.16,12,23.68,23.68,0,0,0-2.47,11.73,4.16,4.16,0,0,0,2.1,3.46,4.69,4.69,0,0,0,3.46.74,17.76,17.76,0,0,0,7.16-3.09,35.94,35.94,0,0,0,7.16-6.67,16.84,16.84,0,0,1-1.61-5.68,20.14,20.14,0,0,1,.49-7A47.27,47.27,0,0,1,317.66,341.75Z" transform="translate(-15.81)"/></svg>