<svg version="1.1" id="logo" 
xmlns="http://www.w3.org/2000/svg" 
x="0" y="0" viewBox="0 0 446 440" 
xml:space="preserve"><defs/>
<style>.st1,.st2{fill-rule:evenodd;clip-rule:evenodd;}.st2{fill:#96393a}</style>
<circle cx="221.9" cy="221.4" r="209.1" fill-rule="evenodd" clip-rule="evenodd" fill="#fff"/>
<path class="st1" d="M25.3 275.5l5.5-12.4a34.5 34.5 0 0016.6 4.6c4.8 0 6.5-1 6.5-2.7 0-6.3-27.8-1.2-27.8-20 0-9.3 7.8-16.9 23.4-16.9 6.7 0 13.7 1.4 19 4.4l-5.1 12.3c-5-2.5-9.6-3.7-14-3.7-5 0-6.5 1.4-6.5 3.2 0 6 27.8 1 27.8 19.5 0 9.2-7.8 16.9-23.4 16.9a45 45 0 01-22-5.2zM131.7 266.7v12.8H89.9v-50.2h40.9V242h-24.2v5.9h21.3v12.2h-21.3v6.6zM202.2 229.3v50.2h-14l-19.1-22.8v22.8h-16.5v-50.2h13.9l19.1 22.8v-22.8zM274.2 229.3v50.2h-16.9V261h-15.7v18.5h-16.9v-50.2h16.9v17.8h15.7v-17.8zM334.4 254.4c0-7.8-5-12.6-11.3-12.6-6.3 0-11.3 4.7-11.3 12.6 0 7.8 5 12.6 11.3 12.6 6.2 0 11.3-4.8 11.3-12.6zm-39.7 0c0-15.2 12-26.3 28.4-26.3s28.4 11.1 28.4 26.3c0 15.2-12 26.3-28.4 26.3s-28.4-11.1-28.4-26.3zM395.1 242.3h-6.2v11.8h6.2c4.7 0 6.9-2.2 6.9-5.9 0-3.6-2.2-5.9-6.9-5.9zm-1.6 24.6h-4.6v12.6h-17v-50.3h24.2c14 0 22.9 7.3 22.9 19 0 7.3-3.4 12.7-9.5 15.8l10.6 15.5H402l-8.5-12.6zM413.8 220a4.3 4.3 0 01-4.3-4.1A186.7 186.7 0 00221.9 33.8c-102.2 0-184.6 80-187.6 182.1-.1 2.3-2 4.1-4.3 4.1h-.1c-2.4-.1-4.2-2-4.1-4.4A194.7 194.7 0 0185.1 80.8a195.2 195.2 0 01136.8-55.6c51.4 0 100 19.7 136.8 55.6A195.1 195.1 0 01418 215.6a4.3 4.3 0 01-4.1 4.4h-.1zM221.9 417.6a196.2 196.2 0 01-180-118.1c-.9-2.2.1-4.7 2.2-5.6 2.2-.9 4.7.1 5.6 2.2a187.7 187.7 0 00344.4 0 4.1 4.1 0 015.6-2.2c2.2.9 3.2 3.5 2.2 5.6a196.2 196.2 0 01-180 118.1z"/><path class="st2" d="M397.7 217.1c-.8 0-1.4-.6-1.4-1.4C393.2 121.1 316.7 47 221.9 47S50.7 121.1 47.6 215.7c0 .8-.7 1.4-1.5 1.4s-1.4-.7-1.4-1.5A176.3 176.3 0 0198.5 94.2c33.3-32.3 77.1-50.1 123.4-50.1S312 61.9 345.3 94.2a176.5 176.5 0 0153.8 121.4c0 .8-.6 1.5-1.4 1.5zM221.9 398.6A178.2 178.2 0 0162.3 298.4c-.3-.7 0-1.6.7-1.9.7-.3 1.6 0 1.9.7 29 59.9 90.7 98.6 157.1 98.6 66.4 0 128-38.7 157.1-98.6.3-.7 1.2-1 1.9-.7.7.3 1 1.2.7 1.9a179.2 179.2 0 01-64.4 72.3 176.2 176.2 0 01-95.4 27.9z"/><path class="st1" d="M130.3 339.1l3.8 2.9 2-6.6-5.8 3.7zm1.5 10.5l1-3.2-6.4-4.8-2.8 1.8-4.8-3.6 18.7-10.8 4.8 3.6-5.4 20.8-5.1-3.8zM152.6 350.8l3 1.5c.8.4 1.5.5 2.1.3.6-.2 1.2-.7 1.6-1.5.4-.8.5-1.5.3-2.1-.2-.6-.7-1.1-1.5-1.6l-3-1.5-2.5 4.9zm.6 11.4l.1-6-2.8-1.4-2.4 4.8-5.2-2.7 9.1-17.6 8.2 4.2a9.4 9.4 0 014.7 4.5c.7 1.8.6 3.6-.4 5.6a8.4 8.4 0 01-2.5 3c-1 .7-2.1 1.1-3.4 1.1l.6 7.6-6-3.1zM170.8 348.6l16.5 5.5-1.5 4.5-5.4-1.8-4.8 14.3-5.6-1.9 4.8-14.3-5.5-1.8zM190.9 355l16 2.8-.8 4.4-10.1-1.7-.6 3 9.2 1.6-.7 4.5-9.3-1.6-.5 3.1 10.4 1.8-.7 4.5-16.3-2.9zM222.7 363.2a8.8 8.8 0 00-3.1-.7c-.5 0-.9.1-1.2.3-.3.2-.4.5-.5.9 0 .5.3.9.8 1.2l2.7 1c1.4.4 2.5.8 3.4 1.3a6 6 0 012.3 1.9c.7.8 1 1.9.9 3.3 0 1.4-.4 2.5-1.1 3.5-.7.9-1.7 1.6-3 2.1a11 11 0 01-4.2.6c-1.7 0-3.4-.3-5.1-1-1.7-.6-3.2-1.4-4.4-2.4l2.3-4.4a12.9 12.9 0 007.3 3.3c.6 0 1.1-.1 1.5-.3.4-.2.5-.6.6-1 0-.5-.3-1-.9-1.3l-2.7-1-3.4-1.2c-.9-.4-1.7-1-2.3-1.8-.6-.8-1-1.9-.9-3.2 0-1.3.4-2.4 1.1-3.3.7-.9 1.7-1.7 2.9-2.1 1.2-.5 2.7-.7 4.3-.7a16.2 16.2 0 018.2 2.5l-2.3 4.5c-.8-1-2-1.5-3.2-2zM241.4 369.5l4.8-.7-3.3-6-1.5 6.7zm8.6 6.2l-1.6-3-7.9 1.2-.7 3.3-6 .9 5.4-20.9 6-.9 11 18.4-6.2 1zM269.6 349.7l5.1-1.7 6.4 18.8-4.7 1.6-11.5-7.7 3.5 10.4-5.1 1.7-6.4-18.7 4.8-1.6 11.5 7.7zM292.1 353.1l4.2-2.3-5.2-4.5 1 6.8zm10.2 2.9l-2.6-2.2-7 3.9.5 3.3-5.3 2.9-2.2-21.4 5.3-2.9 16.8 13.4-5.5 3zM300.7 333.4l4.7-3.6 9.1 11.8 6.6-5.1 3 3.9-11.2 8.7z"/><linearGradient id="SVGID_1_" gradientUnits="userSpaceOnUse" x1="106.2" y1="150.3" x2="345.9" y2="150.3"><stop offset="0" stop-color="#7c1a1d"/><stop offset="1" stop-color="#94393a"/></linearGradient><path d="M162.5 94.1a62.8 62.8 0 00-27.3 11l-5.5 3.9c-2 1.3-4.1 2.3-5.8 3.7-3.4 2.9-3.4 8.1-10.2 8.7-.1-7.1-7.7-6-8.2-1.7-.2 2.1 1.5 4.4 2.4 5.8.7 1 3 4.6 1.6 5.8-.5.5-2.7.9-4.2 4-3.2 6.5 1 15.3 6.6 15.9 2-1.9 1-6.5.4-9.2-.6-2.8.1-1.8.8-4.1.3-1 .7-3.7 1.1-4.4 1.6 8.1 1.6 20.8 7.1 27.1 1.6 1.9 4.1 3.8 5.4 6.1 2.3 4.2-2.8 5.8-5 8.1-.7.7-.7.9-.6 2.2.3 3.2.6 6.6 2 9.5.3.6.9 1.3.9 2 0 2-1.4 7.4-.9 12.7 1.1.4 1.8.3 2.8.3h1.2c0 1.2.7 3.1 1.3 4.1 2 1.2 8.1.7 10.9.6.3-2.4-4.3-5.2-6.5-9a11.6 11.6 0 011-12c1.7.4 5.6 6 6.5 7.8.8 1.6 1.5 3.3 2 5.3.3 1.1.9 5.8 1.1 6.1l.9-.1c3.6-2.3 2.2 2.4 4.8 3 2.1.5 7.3 1 8.5-.8.8-1.2-.1-3-.9-3.6-1-.7-2.3-1-3.2-1.9-2.5-2.4-5.2-10.9-2.8-15.1.6-1.1 1.4-2 2.1-2.8l3.6-4c2.7-3.4 5.5-7.7 10.1-7.8 2.8 0 5.8 1.1 8 2a92.4 92.4 0 0024.5 5.9c7.5.4 14.7-.3 21.8-1 6.1-.6 12.1-1.2 18.4-1.1 1.6 4.3 1.5 11.3 1.7 16.2 3.8 2.3 1.3 8.5 3.4 12.2 1.6 2.8 3.1 1.7 5.4 1.1 3.2-.8 4.1-.6 7.4-.5-.3-4.7-5.3-6.2-6.7-10.2-1.5-4.1 2.2-9.1 3.4-12.5.7-2.1 1.9-4.5 4.2-2.1 2.3 2.5-.5 8.9 1.2 10.9.5.6 1.7.9 2.4 1.8 1.5 1.8.3 5 .4 7.3 3 .1 4 0 6.8-.8s3.5-.9 6.6-.7c-.9-1.3-2.7-2.5-5.2-6.4-2.4-3.7-4.1-8.8-1.2-12.9 1.3-1.9 1.6-1.2 4.3-1.9 10.2-2.4 7.8-1 14.8.7a121 121 0 0039.4-.8c.9-3.9 4.2-5.6 4.1-9.8l-.4-.2c-2.1-.8-10.8-1-11-7.1-.1-2.5 2.3-3.5 2.8-6.2.5-2.9-1-6.2-.4-8.6 3.7-.3 2.8-1.7 4.7-3.1 2.2-1.6 15.4-3.7 16.4-7.6-1.3-.4-1.8-.8-3.6-1h-1.9l-2.7-.1-2.7-1.9c-5.4-3.1-11.1-4.2-16.9-6.5a24.6 24.6 0 01-10.9-7.8c-2.4-2.5-2.1-2.3-4.3-5-4.3-5.4-10.9-7.7-17.7-10.3-2.5-.9-4.4-1.5-7.2-2.1-2.7-.5-5.2-.9-7.8-1.6-6.9-2-6.1-2.9-15.1-3.6-6.1-.5-12.4-.3-18.7-.1-3.1.1-6.4.3-9.5.2-2.8 0-5.6-.6-8.3-.9-3-.3-6.3-.2-9.5-.1-3.1.1-6.1.2-9.1 0-8.5-.7-16-1.8-24-1.8-3.4 0-7.2.2-11.3.8z" fill-rule="evenodd" clip-rule="evenodd" fill="url(#SVGID_1_)"/><path class="st2" d="M263.3 296.5l-3.1 4.7-.3.1c0-1.1.3-2.4.9-4A50 50 0 01271 281c.8-.4 1 0 .7 1.2l-1.8 3.6-3.1 5.1a49 49 0 01-3.5 5.6zm-6.1-7.5c1.4-2.9 3.1-5.5 5-8-.5-.2-1.2-.2-2 0-1.6.2-3.6 1.3-6.1 3.4a47.9 47.9 0 00-13 17.3 19.2 19.2 0 00-2 9.5c.1 1.3.7 2.2 1.7 2.8 1 .6 2 .8 2.8.6 1.8-.3 3.8-1.1 5.8-2.5s4-3.2 5.8-5.4c-.7-1.4-1.1-2.9-1.3-4.6-.2-1.7-.1-3.6.4-5.7s1.5-4.5 2.9-7.4zm-82.1 2.3a145.1 145.1 0 01-9.9 11.3 71.2 71.2 0 01-10.1 9.4c-1.3 1-2.2 1.4-2.7 1.2-1-.4-1.4-1.3-1.3-2.8.1-1.5.5-3.3 1.3-5.3a43.8 43.8 0 0112.8-18.1c1.8-1.6 3.6-2.9 5.3-4a17 17 0 014.7-2.1c1.4-.4 2.5-.2 3.1.4.4.4.6 1 .7 1.9 0 .9-.1 1.8-.5 2.6l-.7 1.8c-.5.9-1.4 2.1-2.7 3.7zm-46.5 10.4c0-1.1.3-2.4.8-4a39 39 0 012-4.9l2.6-4.9c.9-1.6 1.8-2.9 2.6-3.9 1.1-1.5 2-2.4 2.8-2.7.8-.4 1.1 0 .8 1.1-.3.9-.9 2.2-1.8 3.8l-3.1 5.2-3.6 5.5-3.1 4.8zm214.2-8.1l-1.2 1.4a92.5 92.5 0 01-13.9 12.9c-1.8 1.4-3.5 2.5-4.8 3.4-1.4.9-2.4 1.3-3.1 1.2-.7-.1-1.1-.7-1.1-1.9s.5-3.2 1.6-6c1.4-3.3 2.7-6.1 4.1-8.4a52 52 0 003.4-6.6l1.2-2a12.6 12.6 0 001.6-6.2c0-1.1-.3-2.2-.9-3.2-1.5-2.5-3.1-3.8-5-3.9a10 10 0 00-5.3 1.2c-1.7.9-3.2 2-4.4 3.3a94.6 94.6 0 00-18.5 21.3l1.6-4.5 1.7-4 2.3-4.2 3.4-5.2c.3-.5.2-1.4-.1-2.5-.4-1.1-.9-2.1-1.5-3.1s-1.3-1.7-2-2.2c-.7-.5-1.2-.5-1.5.1l-.4.5-.4.5a78.4 78.4 0 00-7 7.6l-3.7 4.2a63 63 0 01-3.4 3.6l-6 5.9-.6 1.1-1.6 1.6a71 71 0 01-4.1 3.8 14 14 0 01-6 2.4 4 4 0 01-3.4 0l1.5-1.9a120 120 0 009.5-12.6c1.4-2.3 2.3-4.5 2.9-6.7.6-2.2.5-4.2-.1-5.9a9 9 0 00-2.2-3 4 4 0 00-3.5-1.1 13 13 0 00-5.5 2.3c-1.4-.9-2.7-1.6-4.2-2a8 8 0 00-3.7-.3c-2 .2-4.2.9-6.6 2.3a42.8 42.8 0 00-13.4 12c-2 2.6-3.7 5.4-5 8.3l-.8 1.8-8 7.2a34.7 34.7 0 01-14.8 7.5c-2.3.5-4 .3-5-.3a5 5 0 01-2-3.2c-.3-1.6-.1-3.4.6-5.4.7-2.1 1.7-4.1 3.1-6.2a52.4 52.4 0 0110-11.5c1.8-1.6 3.5-2.9 5.1-3.8 1.6-1 2.9-1.5 4-1.6 1.3 0 1.6.5 1.1 1.4a46.8 46.8 0 01-6.5 7.2l-2.9 2.4c1.4.8 2.7 1.4 4.1 1.7 1.4.3 2.9.2 4.5-.5l3-2.8c1-1 1.9-2 2.6-3.1a9.8 9.8 0 001.4-3.7c.2-1.3 0-2.8-.6-4.5-.5-1.7-1.5-3-2.9-3.8a7.8 7.8 0 00-4.2-1.1 19 19 0 00-8.7 2.9 43 43 0 00-8.8 6.9 58.9 58.9 0 00-7.4 9.1l-1.2 2-2.9 3-5 4.7c-1.8 1.6-3.6 3.2-5.4 4.5a30.8 30.8 0 01-5.2 3.6c-1.5.9-2.5.9-3 .2-1.1-1-.8-3.5.9-7.5l1.9-4.1 2.6-4.9 3-5.1 3-4.6c.2-.3 0-.9-.4-1.8l-1.7-2.8a12 12 0 00-2.1-2.3c-.7-.5-1.2-.6-1.5-.1l-1.6 2.5c-.3-2.4-1.2-4.1-2.6-5.1a8 8 0 00-4.5-1.5c-2.9.2-5.9 1.2-9 3a40 40 0 00-8.7 6.9 55 55 0 00-7.2 9.3c-.9 1.6-1.8 3.1-2.5 4.6l-1.4 1.3a30.4 30.4 0 01-4.2 3.9 14 14 0 01-5.9 2.4c-1.3.3-2.5.3-3.6 0l.1-.1a98.6 98.6 0 0010.2-13.2c1.6-2.5 2.8-4.9 3.6-7.3a9 9 0 000-6.5 8.4 8.4 0 00-2.2-3.1 4 4 0 00-3.5-1c-2 .2-4 1.1-6 2.7a41.3 41.3 0 00-11.7 19c-.5 2.1-.6 4-.4 5.8.2 1.8.7 3.4 1.5 4.7a50.4 50.4 0 01-6.3 5.1c-2 1.3-3.5 1.6-4.6.8-.7-.5-1-1.3-1.1-2.7 0-1.3.2-3.3.8-6 .3-1.7 1.1-3.7 2.5-5.9l4.1-6.8 29.4-45.7c.2-.3.1-.9-.4-1.9a14.9 14.9 0 00-3.8-5c-.7-.5-1.3-.6-1.7-.1l-2.3 3.6-5.2 8.1-6.7 10.4a743 743 0 00-6.6 10.3l-5.2 8.1a43.6 43.6 0 00-2.3 3.8c-.6 1.3-1.6 3-3 5.2a55.4 55.4 0 00-6.8 15.7 17 17 0 00-.1 8.4c.6 2.2 1.7 4.2 3.5 5.9a8.5 8.5 0 006 2.7 13 13 0 008.7-2.7c2.4-1.9 4.5-4 6.3-6.5 2.1 1 4.6 1.3 7.3 1a13 13 0 004.3-1.1l3.5-1.9.1 3.3a9.6 9.6 0 003.8 6.7 6.6 6.6 0 006 1.2c2-.5 4-1.7 6-3.4 1.9-1.7 3.8-3.8 5.7-6.3 1.8-2.5 3.6-4.9 5.2-7.4l-1.2 5.2c-.3 1.3-.4 2.6-.2 4a9.8 9.8 0 003.5 6.8c1 .8 2.3 1.2 3.7 1.2 1.6.1 3.2-.3 4.9-1.2a38.4 38.4 0 009.5-7.1l3.4-3.4 1-1 .1 1.2c.2 2.1.8 4.1 1.7 5.8.9 1.7 2.3 3.1 4.1 4.1a14 14 0 006.8 1.7c3.7.1 7.1-.7 10.3-2.3 3.2-1.6 6-3.6 8.5-5.8l3.8-3.2a14.6 14.6 0 004.6 9.9c1.7 1.5 4 2.1 7.1 2.1 2.2 0 4.9-1 8-2.9 3.1-2 6.1-4.5 9-7.6a13 13 0 008.3 1.5c1.5-.1 2.9-.5 4.2-1.2 1.4-.7 2.6-1.5 3.9-2.3a47.8 47.8 0 005.7-5.2l1.8-1.8 5.5-5.5-3.2 6.8c-1.2 2.6-2.7 5.8-4.7 9.6a4.2 4.2 0 00-.1 3.3c.4 1.1 1.1 2 2 2.8a7 7 0 003.1 1.6 4 4 0 003.2-.5h.3l6.8-8 8.6-10.2c3-3.5 5.8-6.7 8.6-9.7 2.8-3 5-5.3 6.8-6.7a83.5 83.5 0 00-9.2 22 20 20 0 00-.3 9.3c.3 1.3.9 2.4 1.7 3.2.8.8 2 1.3 3.4 1.4 1.6.1 3.3-.3 5.2-1.2a81.3 81.3 0 0017.5-13.3 19 19 0 003.1-3.8c.9-1.4 1.5-2.9 1.7-4.5.7-2.1.4-3.7-.6-5.2z"/>
</svg>