<svg xmlns="http://www.w3.org/2000/svg" viewBox="0 0 1272.1 187"><path d="M.13.18A.19.19 0 01.31 0h1271.5a.19.19 0 01.19.19v179.62a.19.19 0 01-.19.19H.32a.18.18 0 01-.19-.19" fill="#4c78e5" data-name="Camada 1"/><path d="M3 101.42C288.35-13.5 488.75-4.6 621 26.78c63.28 15 110.57 35.08 198 45.18 187.1 21.62 346.65-26.82 453-71.7V180L0 179z" fill="#93c1f9" data-name="Camada 4"/><path d="M0 25.5c211.68-25 370.7-1.65 477 24.45 88.72 21.78 109.56 37.81 222 60.64 135 27.42 263.83 52.09 406 8.8 77-23.44 134.27-67.57 167-91.39.33 48.25-.33 104.75 0 153L0 180" fill="#6ea7f9" data-name="Camada 3"/><path d="M1 66.07C289 186.85 483.26 169.92 609 130 719.69 94.81 813.87 30.21 987 15.92A830.87 830.87 0 011270 41c0 45.88 2 92.88 2 139q-635.5 3.44-1270 7z" fill="#438bff" data-name="Camada 2"/></svg>