<svg xmlns="http://www.w3.org/2000/svg" viewBox="0 0 460 174"><defs/><style>.st1{fill:#fff}</style><path d="M448 174H12c-6.6 0-12-5.4-12-12V12C0 5.4 5.4 0 12 0h436c6.6 0 12 5.4 12 12v150c0 6.6-5.4 12-12 12z" fill="#ffcbcc" id="Camada_2"/><g id="Camada_1"><path class="st1" d="M86.7 53.9c-1.9 2.1-4.4 5.5-7.5 10.4-3.1 4.9-5.4 8.7-6.8 11.3 7.8-1.5 13.2-2.3 16.1-2.3 1.4 0 2.5.1 3.3.4.9.3 1.3 1 1.3 2 0 2.2-1.3 3.3-3.8 3.3h-.9c-1.1 0-1.9-.1-2.4-.1-3.6 0-9.5 1.2-17.8 3.5-5.3 9-9.9 19.8-13.9 32.4-.5 1.9-1.4 2.9-2.5 2.9-1 0-1.9-.6-2.5-1.7-.5-.8-.8-1.7-.8-2.5 0-.9 1-4.1 3-9.5 3.3-8.9 8-18.4 14-28.6 3.9-6.4 8.1-13.1 12.7-20.3-1.2-.2-1.8-.9-1.8-2.1 0-1.8 1.7-3.1 5.1-4.1 4.8-1.3 9.4-2.4 13.9-3.1 5.1-.8 9-1.2 11.7-1.2 4.2 0 6.3 1.1 6.3 3.2 0 1.1-.5 2-1.5 2.6-.4.3-.8.4-1.4.4-.4 0-1-.1-1.8-.2-1.2-.2-2.3-.3-3.2-.3-1.9 0-5.2.4-9.8 1.1-3.1.9-6.2 1.6-9 2.5zM106 106.4c-1.2 2.1-2.4 3.9-3.5 5.3-2.3 2.8-4.5 4.2-6.8 4.2-1.9 0-3.5-.9-4.5-2.8-.7-1.2-1-2.6-1-4.2 0-4 1.3-8.4 3.8-13.2 2.8-5.4 6.2-9.5 10.2-12.4 2.6-1.9 5.1-2.8 7.5-2.8 1.5 0 2.8.5 3.8 1.4.9.8 1.3 1.8 1.3 2.8 0 .8-.3 1.9-.9 3.3.5.8.8 1.4.8 2 0 .8-.5 2-1.5 3.7-1 1.8-2.1 4.1-3.1 7-1.1 3.1-1.7 5.6-1.7 7.5 0 1.5.4 2.8 1.4 3.7.3.3 1 .7 2.2 1.2.9.4 1.4 1.2 1.4 2.3 0 .7-.3 1.2-.8 1.7s-1.2.7-1.9.7c-1.9 0-3.6-.9-5-2.6-1.2-1.4-1.7-3.2-1.7-5.3-.2-.6-.1-1.8 0-3.5zm6.8-17.7c-.4-.8-.9-1.4-1.4-1.8-.5-.4-1-.6-1.6-.6-2.7 0-5.7 2.4-8.9 7.2-3.5 5.3-5.3 9.8-5.3 13.4 0 .9.2 1.6.5 2.1s.9.7 1.5.7c1.7 0 3.7-1.8 6-5.5 1.3-2 2.9-5 4.8-8.9 1.3-2.6 2.2-4.2 2.8-5.1.3-.4.8-.9 1.6-1.5z"/><path class="st1" d="M122.8 109.1c3.3-1.1 6.2-1.7 8.6-1.7 4.2 0 6.3 1.1 6.3 3.2 0 .6-.3 1.2-.8 1.8-.5.5-1.1.8-1.7.8-.4 0-1.2-.2-2.5-.5-.8-.2-1.5-.3-2.2-.3-3.1 0-6 .6-8.7 1.9-1.9.9-3.2 1.4-3.9 1.4-.8 0-1.5-.3-2.2-.8-.6-.5-.9-1.1-.9-1.7 0-1.5 1.8-4.4 5.3-8.9 5.3-6.6 10.9-12.2 16.8-16.9-3.9.5-6.6.7-8 .7-3.5 0-5.2-1-5.2-3.1 0-.6.2-1.2.6-1.6.4-.4.8-.6 1.4-.6.4 0 1.4.1 2.9.4.6.1 1.5.2 2.6.2 3.1 0 6.1-.3 9-1 1.1-.3 2.1-.4 2.9-.4.9 0 1.7.3 2.3 1 .5.5.7 1 .7 1.7 0 1.2-1 2.5-3 3.9-5.9 4.7-10.1 8.3-12.5 10.7-3.4 3.7-6 7-7.8 9.8zM147.2 105v1c0 .8.2 1.5.6 2.1.9 1.3 2.4 2 4.4 2 4.5 0 9.7-3.5 15.6-10.4 1-1.2 1.9-1.8 2.6-1.8.4 0 .8.2 1.1.6.2.3.3.6.3.8 0 1.4-1.7 3.8-5.2 7.1-2.7 2.6-5.6 4.8-8.6 6.4-3.1 1.7-5.9 2.5-8.5 2.5-2.7 0-4.8-.9-6.4-2.8-1-1.3-1.6-3.1-1.6-5.3 0-6.1 2.9-12 8.6-17.9 4.6-4.8 8.7-7.1 12.2-7.1.9 0 1.8.3 2.5.9.9.8 1.4 1.7 1.4 3 0 1.9-.9 4.2-2.6 7-3.6 5.7-9.1 9.7-16.4 11.9zm1.2-4.2c2.5-.9 4.5-1.8 5.9-2.9 2.5-1.9 4.5-4.1 6-6.6.5-.9.8-1.6.8-2.3 0-.7-.3-1.1-1-1.1-.9 0-2.3.7-4 2.1-3.1 2.4-5.6 6-7.7 10.8zM183.2 97.6c3.5-3.8 7.6-7.5 12.2-11.1 1.7-1.3 3.4-2.5 5.3-3.6.9-.5 1.5-.8 1.8-.8.5 0 1.1.4 1.6 1.2.3.4.5.8.5 1.2 0 .6-.7 1.5-2.1 2.6-3.7 2.9-5.5 5.1-5.5 6.6 0 .8.5 1.2 1.4 1.2 1.5 0 4.2-1.3 8-3.8.6-.4 1.2-.6 1.6-.6.3 0 .6.1.9.4.3.3.5.7.5 1 0 1.1-1.5 2.7-4.5 5-3.2 2.4-6.2 3.6-9 3.6-1.2 0-2.2-.3-3.2-.9-.8-.5-1.2-1.4-1.2-2.7 0-.9.4-1.9 1.1-3.1-2.8 2-6.2 5.5-10 10.4-2.2 3-4.4 6.8-6.6 11.2-.8 1.7-1.9 2.5-3.1 2.5-1.3 0-2-.6-2-1.9 0-1.2 1-4.5 3.1-9.8 3.1-7.9 6.3-14.1 9.7-18.4 2.1-2.7 3.8-4.1 5.2-4.1.5 0 .9.1 1.3.4.5.4.7.8.7 1.4s-.4 1.3-1.1 2.3c-.1.2-1.1 1.4-2.9 3.6-1.6 2-2.8 4.1-3.7 6.2zM256.2 89.5l-.8 1.6c-3.7 7.8-6.2 13.3-7.5 16.6-1.9 5.2-3 8.2-3.3 9.1-.8 2.4-1.7 3.6-3 3.6-.9 0-1.6-.4-2.2-1.2-.5-.7-.8-1.4-.8-2.2 0-3.1 4-12.9 11.9-29.3-1.4-1.1-2.2-2.2-2.2-3.2 0-.8.4-1.5 1.1-2.2.6-.5 1.3-.8 2-.8.5 0 1.2.1 2 .4 5.9-11.2 9.3-18.3 10.3-21.3-.9.5-2.1 1.2-3.5 2.2-.8.5-1.5.8-2.1.8-.7 0-1.2-.3-1.7-1-.3-.5-.4-1-.4-1.5 0-1.7 1.5-3.5 4.4-5.5 2.3-1.5 4.5-2.8 6.5-3.9l.6-1.8c.4-1.4.7-2.3 1.1-2.8.4-.5 1-.7 1.8-.7 1.7 0 2.5.9 2.5 2.8 2.5-.7 4.7-1.3 6.6-1.6 1.9-.4 3.5-.5 4.9-.5 3.5 0 6.4 1.3 8.9 4 2.3 2.5 3.4 5.3 3.4 8.5 0 5.4-2.3 10.9-6.8 16.3-3.9 4.6-8.7 8.2-14.5 10.8-5 2.2-9.9 3.3-14.9 3.3-1 0-2.5-.2-4.3-.5zm15.1-32.9c-1.2 3.6-3.1 8.1-5.8 13.7-3.3 6.8-5.5 11.2-6.4 13.3 2 .4 3.4.5 4.2.5 4.1 0 8.9-1.7 14.4-5 5.3-3.2 9.4-7.3 12.4-12 1.8-2.9 2.8-5.5 2.8-7.8 0-2.1-.7-3.6-2.1-4.6-1.4-1-3.5-1.5-6.3-1.5-2.1 0-4.3.3-6.5.8-2.3.6-4.5 1.4-6.7 2.6zM287.7 105v1c0 .8.2 1.5.6 2.1.9 1.3 2.4 2 4.4 2 4.5 0 9.7-3.5 15.6-10.4 1-1.2 1.9-1.8 2.6-1.8.4 0 .8.2 1.1.6.2.3.3.6.3.8 0 1.4-1.7 3.8-5.2 7.1-2.7 2.6-5.6 4.8-8.6 6.4-3.1 1.7-5.9 2.5-8.5 2.5-2.7 0-4.8-.9-6.4-2.8-1-1.3-1.6-3.1-1.6-5.3 0-6.1 2.9-12 8.6-17.9 4.6-4.8 8.7-7.1 12.2-7.1.9 0 1.8.3 2.5.9.9.8 1.4 1.7 1.4 3 0 1.9-.9 4.2-2.6 7-3.6 5.7-9.1 9.7-16.4 11.9zm1.2-4.2c2.5-.9 4.5-1.8 5.9-2.9 2.5-1.9 4.5-4.1 6-6.6.5-.9.8-1.6.8-2.3 0-.7-.3-1.1-1-1.1-.9 0-2.3.7-4 2.1-3.1 2.4-5.7 6-7.7 10.8zM335.6 83.8c3.6-7.5 7-14.1 10.2-19.7 3.1-5.4 5.2-8.8 6.3-10.2 1.2-1.5 2.4-2.3 3.5-2.3.6 0 1.1.2 1.6.7.4.5.6 1 .6 1.5 0 .8-.6 2.2-1.8 4.2-5.2 8.4-10 17-14.4 25.7-5 10.1-7.6 17.7-7.6 22.7 0 2.1.4 3.7 1.2 4.9.1.3.8.8 1.9 1.7.2.2.3.5.3 1.1 0 .7-.3 1.4-.8 2-.6.6-1.2.9-1.9.9-.8 0-1.7-.5-2.8-1.5-1.4-1.4-2.3-3.1-2.6-5-.1-.8-.2-2.3-.4-4.4-3.8 6.8-7.4 10.2-10.8 10.2-2 0-3.6-1.1-4.8-3.3-.8-1.5-1.2-3.2-1.2-5 0-5.6 2.1-11.3 6.2-17 4.1-5.6 8.4-8.4 13.1-8.4 1.5-.2 2.8.3 4.2 1.2zm-1.8 4.4c-1-.6-1.8-1-2.5-1-3 0-5.9 1.9-8.6 5.6-3.6 4.8-5.3 9.5-5.3 14 0 .5.1 1 .3 1.5.4.9 1.1 1.4 1.9 1.4 1.3 0 2.8-1.2 4.6-3.7 2.4-3.2 4.6-7.1 6.7-11.5L333 90l.5-1 .3-.8zM356.9 83c.6 0 1.1.2 1.5.7.3.4.4.8.4 1.2 0 .6-.5 1.7-1.6 3.2-3.7 5.8-6.4 10.6-8 14.3-1.7 3.9-3.2 7.8-4.5 11.9-.6 1.8-1.5 2.7-2.7 2.7-.7 0-1.3-.3-1.7-.9-.4-.5-.6-1-.6-1.5 0-1.1 1.2-4.7 3.5-10.8 1.8-4.8 4.7-10.2 8.7-16 1.3-1.9 2.3-3.2 2.9-3.8.7-.7 1.4-1 2.1-1zm10.2-20.1c1.6 0 2.4.8 2.4 2.5 0 1.5-.8 3.2-2.4 5-1.5 1.8-3 2.6-4.4 2.6-.7 0-1.2-.3-1.7-.8-.4-.5-.6-1-.6-1.7 0-1.7 1-3.6 2.9-5.5 1.5-1.3 2.7-2.1 3.8-2.1zM379.1 83.8c3.6-7.5 7-14.1 10.2-19.7 3.1-5.4 5.2-8.8 6.3-10.2 1.2-1.5 2.4-2.3 3.5-2.3.6 0 1.1.2 1.6.7.4.5.6 1 .6 1.5 0 .8-.6 2.2-1.8 4.2-5.2 8.4-10 17-14.4 25.7-5 10.1-7.6 17.7-7.6 22.7 0 2.1.4 3.7 1.2 4.9.1.3.8.8 1.9 1.7.2.2.3.5.3 1.1 0 .7-.3 1.4-.8 2-.6.6-1.2.9-1.9.9-.8 0-1.7-.5-2.8-1.5-1.4-1.4-2.3-3.1-2.6-5-.1-.8-.2-2.3-.4-4.4-3.8 6.8-7.4 10.2-10.8 10.2-2 0-3.6-1.1-4.8-3.3-.8-1.5-1.2-3.2-1.2-5 0-5.6 2.1-11.3 6.2-17 4.1-5.6 8.4-8.4 13.1-8.4 1.5-.2 2.8.3 4.2 1.2zm-1.9 4.4c-1-.6-1.8-1-2.5-1-3 0-5.9 1.9-8.6 5.6-3.6 4.8-5.3 9.5-5.3 14 0 .5.1 1 .3 1.5.4.9 1.1 1.4 1.9 1.4 1.3 0 2.8-1.2 4.6-3.7 2.4-3.2 4.6-7.1 6.7-11.5l2.1-4.5.5-1 .3-.8zM407.1 80.5c3 0 4.4 1.8 4.4 5.4 0 4.8-2.2 10.9-6.6 18.2-4.8 8-9.5 11.9-14 11.9-2.1 0-3.6-1-4.6-2.9-.5-1-.8-2.1-.8-3.5 0-4.6 1.6-9.6 4.8-15 3-5 6.4-8.9 10.4-11.7 2.3-1.6 4.5-2.4 6.4-2.4zm-5.7 20.4c-.9-.7-1.4-1.3-1.4-1.7 0-.3.6-1.1 1.7-2.4 3.2-3.6 4.9-6.6 4.9-8.8 0-.3-.1-.6-.3-.9-.3-.5-.7-.8-1.4-.8-1.2 0-2.8 1.1-5.1 3.3-2.9 2.9-5.1 5.9-6.6 8.9-1.8 3.5-2.6 6.4-2.6 8.7 0 .6.2 1.2.5 1.6.5.6 1.1 1 1.8 1 1.7 0 3.6-1.3 5.6-3.9.9-1.1 1.6-2.2 2.1-3.3.6-1.1.9-1.7.8-1.7z"/></g></svg>