<svg xmlns="http://www.w3.org/2000/svg" viewBox="0 0 169.41 64.53"><defs><style>.cls-1{fill:#373435;fill-rule:evenodd}</style></defs><g id="Camada_4" data-name="Camada 4"><path class="cls-1" d="M-.41 20.34L1.93 15A14.8 14.8 0 009 17c2.06 0 2.8-.43 2.8-1.17 0-2.71-11.92-.52-11.92-8.56C-.07 3.27 3.29 0 10 0a17.11 17.11 0 018.1 1.88l-2.18 5.27a13.31 13.31 0 00-6-1.6c-2.12 0-2.8.62-2.8 1.36C7.1 9.49 19 7.33 19 15.28c0 3.94-3.36 7.27-10 7.27a19.3 19.3 0 01-9.41-2.21z" transform="translate(.41)"/><path class="cls-1" d="M45.68 16.58v5.48H27.75V.49h17.53v5.49H34.89v2.53h9.12v5.23h-9.12v2.84h10.79zM75.89.49v21.57h-5.98l-8.19-9.8v9.8h-7.09V.49h5.98l8.19 9.8V.49h7.09zM106.81.49v21.57h-7.27v-7.95h-6.72v7.95h-7.27V.49h7.27v7.64h6.72V.49h7.27z"/><path class="cls-1" d="M115.19 11.28c0-6.54 5.15-11.28 12.17-11.28s12.17 4.74 12.17 11.28-5.15 11.28-12.17 11.28-12.17-4.75-12.17-11.28zm17 0c0-3.36-2.15-5.39-4.84-5.39s-4.84 2-4.84 5.39 2.16 5.39 4.84 5.39 4.85-2.03 4.85-5.39zM157.57 16.64h-2v5.42h-7.27V.49h10.38c6 0 9.83 3.14 9.83 8.13a7.22 7.22 0 01-4.07 6.78l4.56 6.66h-7.76zm.68-10.54h-2.65v5.05h2.65c2 0 3-1 3-2.53s-1-2.52-3-2.52zM45.31 52.12l.42-1.38L43 48.67l-1.22.78-2.07-1.56 8-4.62 2.07 1.56-2.3 8.91zm-.66-4.5l1.65 1.24.86-2.86zM54.47 57.51v-2.55l-1.19-.61-1.05 2L50 55.23l3.9-7.56 3.53 1.82a4 4 0 012 1.91 2.75 2.75 0 01-.19 2.41 3.38 3.38 0 01-1.07 1.27 2.75 2.75 0 01-1.44.48l.27 3.26zm-.25-4.89l1.28.66a1.2 1.2 0 00.92.13 1.17 1.17 0 00.68-.63 1.12 1.12 0 00.12-.9 1.21 1.21 0 00-.65-.67l-1.28-.66z" transform="translate(.41)"/><path class="cls-1" d="M62.44 51.7l7.08 2.37-.64 1.91-2.34-.78-2.06 6.15-2.4-.8 2.05-6.16-2.33-.78.64-1.91zM71.08 54.44l6.84 1.19-.33 1.91-4.36-.76L73 58.1l3.96.69-.34 1.91-3.95-.69-.24 1.33 4.49.78-.34 1.91-6.97-1.22 1.47-8.37z"/><path class="cls-1" d="M84.27 58a4.33 4.33 0 00-1.33-.3.91.91 0 00-.52.12.42.42 0 00-.2.37.58.58 0 00.36.53 6.29 6.29 0 001.14.43 11.13 11.13 0 011.47.54 2.7 2.7 0 011 .81 2.16 2.16 0 01.41 1.41 2.39 2.39 0 01-.49 1.49 2.78 2.78 0 01-1.28.89 4.93 4.93 0 01-1.78.27 6.83 6.83 0 01-2.18-.41 6.14 6.14 0 01-1.88-1l1-1.9a5.6 5.6 0 001.55 1 4.33 4.33 0 001.59.41 1.11 1.11 0 00.65-.15A.51.51 0 0084 62a.59.59 0 00-.37-.55 6.52 6.52 0 00-1.16-.45 10.63 10.63 0 01-1.47-.5 2.61 2.61 0 01-1-.79 2.11 2.11 0 01-.4-1.38 2.41 2.41 0 01.46-1.43 2.79 2.79 0 011.27-.9 4.88 4.88 0 011.86-.29 6.89 6.89 0 011.9.31 6.32 6.32 0 011.64.75l-1 1.92a8.11 8.11 0 00-1.46-.69zM96 63.33l-.7-1.27-3.39.51-.32 1.43-2.59.38 2.32-8.95 2.59-.43 4.73 7.89zm-3.67-2.68l2-.31-1.42-2.59z" transform="translate(.41)"/><path class="cls-1" d="M104.84 52.18l2.18-.74 2.75 8.04-2.03.7-4.94-3.31 1.53 4.47-2.19.75-2.76-8.04 2.05-.7 4.94 3.32-1.53-4.49z"/><path class="cls-1" d="M118.42 54.85l-1.1-.95-3 1.67.21 1.43-2.27 1.26-1-9.2 2.27-1.26 7.19 5.73zM114 53.62l1.8-1-2.24-1.93z" transform="translate(.41)"/><path class="cls-1" d="M118.18 45.17l2-1.54 3.91 5.05 2.82-2.19 1.3 1.67-4.82 3.73-5.21-6.72z"/><path d="M135.82 28.09l-.5.59q-.56.65-1.5 1.59t-2.13 2a27.56 27.56 0 01-2.31 1.91q-1.19.88-2.06 1.47a2.25 2.25 0 01-1.34.53c-.31 0-.47-.31-.47-.82a8.65 8.65 0 01.69-2.59 27.71 27.71 0 011.75-3.58 21.75 21.75 0 001.44-2.82c.13-.19.29-.48.5-.85a5.56 5.56 0 00.5-1.23 5.23 5.23 0 00.19-1.41 2.7 2.7 0 00-.38-1.38 2.87 2.87 0 00-2.13-1.67 4.09 4.09 0 00-2.28.5 7.31 7.31 0 00-1.88 1.41 8.6 8.6 0 01-1 .94 39.15 39.15 0 00-3.81 4 47.64 47.64 0 00-3.1 4.23q.38-1.06.69-1.91t.72-1.7q.41-.85 1-1.79t1.44-2.23a1.36 1.36 0 00-.06-1.06 6.32 6.32 0 00-.66-1.32 3.67 3.67 0 00-.84-.94c-.29-.21-.5-.21-.63 0a.6.6 0 00-.16.2.55.55 0 01-.16.21 14.57 14.57 0 00-1.44 1.44l-1.56 1.79-1.59 1.82q-.78.88-1.47 1.53l-2.56 2.53c-.1.17-.18.33-.27.49l-.67.68q-.87.88-1.75 1.62a5.35 5.35 0 01-2.56 1 1.82 1.82 0 01-1.44 0l.63-.82q.94-1.12 2.06-2.53a25.61 25.61 0 002-2.88 11.35 11.35 0 001.25-2.88 4 4 0 00-.06-2.53 4 4 0 00-.94-1.29 1.75 1.75 0 00-1.5-.47 5.61 5.61 0 00-2.38 1 6.45 6.45 0 00-1.78-.85 3.57 3.57 0 00-1.6-.15 7.06 7.06 0 00-2.81 1 18 18 0 00-3 2.15 21.09 21.09 0 00-2.78 3A18.08 18.08 0 0089 29.59c-.12.26-.22.52-.32.78Q86.9 32 85.2 33.44a15 15 0 01-6.35 3.23 3 3 0 01-2.16-.15 2.06 2.06 0 01-.84-1.38 4.68 4.68 0 01.25-2.32 11.18 11.18 0 011.31-2.64 25.29 25.29 0 012-2.62 26.17 26.17 0 012.28-2.32 14.85 14.85 0 012.19-1.64 4.27 4.27 0 011.72-.68c.54 0 .7.2.47.62A8.31 8.31 0 0185 25q-.78.85-1.66 1.65a11.13 11.13 0 01-1.25 1 6.11 6.11 0 001.75.73 3.26 3.26 0 001.94-.21L87 27a7 7 0 001.12-1.35 3.74 3.74 0 00.34-3.5 2.61 2.61 0 00-1.25-1.65 3.24 3.24 0 00-1.79-.5 8 8 0 00-3.75 1.23 18.74 18.74 0 00-3.78 3 24.46 24.46 0 00-3.16 3.91c-.18.28-.35.56-.51.84-.35.37-.75.79-1.24 1.28s-1.33 1.29-2.12 2-1.56 1.35-2.31 1.94a18.53 18.53 0 01-2.22 1.56q-1 .56-1.28.09-.69-.65.38-3.23.31-.76.81-1.76t1.12-2.09q.63-1.09 1.28-2.17t1.28-2q.12-.18-.19-.76a11.07 11.07 0 00-.75-1.2 4.41 4.41 0 00-.9-1c-.31-.23-.53-.25-.66-.06l-.69 1.06a2.91 2.91 0 00-1.12-2.17 3.39 3.39 0 00-1.94-.65 8.54 8.54 0 00-3.85 1.29 18.41 18.41 0 00-3.72 3 22.29 22.29 0 00-3.09 4 20.7 20.7 0 00-1.07 2l-.59.57a17.52 17.52 0 01-1.78 1.67 5.54 5.54 0 01-2.53 1 3.51 3.51 0 01-1.56 0l.06-.06q.94-1.06 2.16-2.56a35.79 35.79 0 002.25-3.08 13.24 13.24 0 001.53-3.14 4 4 0 000-2.79 3.58 3.58 0 00-.94-1.32A1.79 1.79 0 0049 20a4.72 4.72 0 00-2.56 1.14 13 13 0 00-2.28 2.47 18.3 18.3 0 00-1.75 3 13.8 13.8 0 00-1 2.67 7.4 7.4 0 00-.19 2.5 5.16 5.16 0 00.63 2A19.15 19.15 0 0139.18 36q-1.28.83-2 .35a1.35 1.35 0 01-.47-1.15 11.17 11.17 0 01.35-2.56 7.21 7.21 0 011.06-2.53q.88-1.41 1.75-2.94L52.53 7.53q.12-.18-.16-.79a6.51 6.51 0 00-.72-1.2 4.63 4.63 0 00-.91-.94c-.31-.23-.55-.25-.72-.06s-.37.59-1 1.53l-2.25 3.5L43.94 14l-2.84 4.44L38.87 22q-.91 1.44-1 1.62a19.42 19.42 0 01-1.28 2.23 24.8 24.8 0 00-1.69 3.11 20.4 20.4 0 00-1.25 3.58 7.21 7.21 0 000 3.58 5.51 5.51 0 001.5 2.53 3.77 3.77 0 002.56 1.18 5.71 5.71 0 003.75-1.14 13.06 13.06 0 002.69-2.79 5.49 5.49 0 003.13.41 5.23 5.23 0 001.84-.47 9.91 9.91 0 001.49-.84 8.14 8.14 0 00.05 1.42 4.2 4.2 0 001.63 2.88 3 3 0 002.56.53 6.37 6.37 0 002.56-1.47 18.44 18.44 0 002.44-2.7Q61 34 62.1 32.44q-.19 1.06-.5 2.23a5.15 5.15 0 00-.09 1.7A4.85 4.85 0 0062 38a3.77 3.77 0 001 1.29 2.46 2.46 0 001.6.53 3.94 3.94 0 002.09-.53 15.36 15.36 0 002.12-1.38 22.63 22.63 0 001.94-1.67q.9-.88 1.47-1.47l.43-.41v.5a6.58 6.58 0 00.75 2.47 4.54 4.54 0 001.75 1.76 6.1 6.1 0 002.91.73 8.92 8.92 0 004.41-1 18.74 18.74 0 003.66-2.47L87.82 35a7.23 7.23 0 00.42 2 5.6 5.6 0 001.56 2.29 4.29 4.29 0 003.06.88 6.78 6.78 0 003.44-1.26 20 20 0 003.88-3.26 5.59 5.59 0 001.66.59 6.1 6.1 0 001.91.06 4.69 4.69 0 001.82-.5 12.89 12.89 0 001.66-1 11.52 11.52 0 001.41-1.18c.41-.4.75-.76 1-1.07l.77-.75 2.38-2.38q-.63 1.23-1.38 2.94t-2 4.11a1.74 1.74 0 000 1.41 3.13 3.13 0 00.84 1.21 3 3 0 001.31.68 1.69 1.69 0 001.38-.23h.13q1.12-1.29 2.91-3.44t3.69-4.38q1.91-2.23 3.69-4.17a32.94 32.94 0 012.91-2.88q-.75 1.29-1.35 2.44t-1.06 2.26q-.47 1.12-.84 2.26t-.71 2.37a10.56 10.56 0 00-.28 2.08 6.76 6.76 0 00.19 1.88 2.92 2.92 0 00.75 1.38 2.21 2.21 0 001.47.59 4.74 4.74 0 002.25-.53 16.9 16.9 0 002.47-1.4c.81-.57 1.57-1.15 2.28-1.73a20.41 20.41 0 001.63-1.47l1.13-1.09a8.6 8.6 0 001.31-1.64 5.6 5.6 0 00.75-1.94 2.8 2.8 0 00-.44-2.04zm-91.91 3.47a5.39 5.39 0 01.34-1.7 18.72 18.72 0 01.87-2.09q.53-1.09 1.13-2.12A15.1 15.1 0 0147.34 24a3.51 3.51 0 011.22-1.17c.35-.16.47 0 .34.47a9.89 9.89 0 01-.78 1.65c-.4.71-.84 1.45-1.34 2.23s-1 1.57-1.53 2.35-.97 1.47-1.34 2.03zm20-4.44q-.84 1-1.94 2.29T59.63 32q-1.22 1.32-2.34 2.35t-2 1.67q-.84.65-1.16.53-.63-.23-.56-1.21a8 8 0 01.56-2.29 18.78 18.78 0 011.38-2.82 21.18 21.18 0 011.94-2.79 24.11 24.11 0 012.19-2.15 17.8 17.8 0 012.28-1.7 7.49 7.49 0 012-.91 1.38 1.38 0 011.34.18 1.2 1.2 0 01.28.82 2.3 2.3 0 01-.22 1.12l-.31.76a14.29 14.29 0 01-1.13 1.56zm35.2-1a15.86 15.86 0 00-1.22 3.14 7.16 7.16 0 00-.19 2.44 5.89 5.89 0 00.56 2 13 13 0 01-2.52 2.3 6 6 0 01-2.5 1.09 1.72 1.72 0 01-1.24-.27 1.43 1.43 0 01-.72-1.21 8.56 8.56 0 01.88-4.08 20.86 20.86 0 012.5-4.14 20.51 20.51 0 013.1-3.26 5.68 5.68 0 012.6-1.44 1.66 1.66 0 01.87 0 19.1 19.1 0 00-2.14 3.43zm2.63 3.23q-.78 1.15-1.34 2l-.13.06a5 5 0 01.38-1.7 20.74 20.74 0 01.91-2.06q.53-1.06 1.16-2.06a19.74 19.74 0 011.09-1.59 3.44 3.44 0 011.19-1.26c.35-.16.45 0 .28.53a11.92 11.92 0 01-.75 1.56q-.56 1-1.31 2.2t-1.51 2.32z" transform="translate(.41)" fill="#af3839" fill-rule="evenodd"/></g></svg>