<?xml version="1.0" encoding="utf-8"?>
<!-- Generator: Adobe Illustrator 21.0.0, SVG Export Plug-In . SVG Version: 6.00 Build 0)  -->
<svg version="1.1" id="logo" xmlns="http://www.w3.org/2000/svg" xmlns:xlink="http://www.w3.org/1999/xlink" x="0px" y="0px"
	 viewBox="0 0 563.2 516.5" style="enable-background:new 0 0 563.2 516.5;" xml:space="preserve">
<style type="text/css">
	.st0{fill:#FFFFFF;}
	.st1{fill:#383737;}
	.st2{fill:#96393A;}
	.st3{fill:url(#SVGID_1_);}
	.st4{fill:#FCFCFC;}
</style>
<g>
	<g id="Camada_1">
		<circle class="st0" cx="274.1" cy="258.3" r="258.3"/>
		<path class="st1" d="M31.2,325.1l6.8-15.3c5.8,3.5,13.7,5.7,20.5,5.7c5.9,0,8-1.2,8-3.3c0-7.8-34.3-1.5-34.3-24.7
			c0-11.5,9.6-20.9,28.9-20.9c8.3,0,16.9,1.7,23.5,5.4l-6.3,15.2c-6.2-3.1-11.9-4.6-17.3-4.6c-6.2,0-8,1.7-8,4
			c0,7.4,34.3,1.2,34.3,24.1c0,11.4-9.6,20.9-28.9,20.9C47.9,331.5,37.4,328.9,31.2,325.1L31.2,325.1z M162.7,314.2V330H111v-62
			h50.5v15.7h-29.9v7.3H158v15.1h-26.3v8.2H162.7z M249.7,268v62h-17.3l-23.6-28.2V330h-20.4v-62h17.2l23.6,28.2V268H249.7z
			 M338.7,268v62h-20.9v-22.8h-19.4V330h-20.9v-62h20.9v22h19.4v-22H338.7z M413,299c0-9.6-6.2-15.6-14-15.6s-14,5.8-14,15.6
			c0,9.6,6.2,15.6,14,15.6C406.7,314.6,413,308.6,413,299z M364,299c0-18.8,14.8-32.5,35.1-32.5s35.1,13.7,35.1,32.5
			c0,18.8-14.8,32.5-35.1,32.5S364,317.8,364,299L364,299z M488,284.1h-7.7v14.6h7.7c5.8,0,8.5-2.7,8.5-7.3
			C496.5,286.9,493.8,284.1,488,284.1L488,284.1z M486,314.5h-5.7V330h-21v-62.1h29.9c17.3,0,28.3,9,28.3,23.5
			c0,9-4.2,15.7-11.7,19.5l13.1,19.1h-22.4L486,314.5z M511.1,256.5c-2.8,0-5.2-2.2-5.3-5.1C502.1,125.4,400.3,26.6,274.1,26.6
			s-228,98.8-231.7,224.9c-0.1,2.8-2.5,5.1-5.3,5.1h-0.1c-3-0.1-5.2-2.5-5.1-5.4c1.9-63.2,27.8-122.4,73.2-166.5
			c45.5-44.2,105.5-68.7,169-68.7s123.5,24.3,169,68.7c45.5,44.2,71.4,103.4,73.2,166.5c0.1,3-2.2,5.3-5.1,5.4H511.1z M274.1,500.6
			c-96.6,0-183.9-57.3-222.3-145.9c-1.1-2.7,0.1-5.8,2.7-6.9c2.7-1.1,5.8,0.1,6.9,2.7c36.8,84.7,120.3,139.6,212.7,139.6
			s175.9-54.7,212.7-139.6c1.1-2.7,4.2-4,6.9-2.7c2.7,1.1,4,4.3,2.7,6.9C458,443.3,370.6,500.6,274.1,500.6z"/>
		<path class="st2" d="M491.2,252.9c-1,0-1.7-0.7-1.7-1.7c-3.8-116.8-98.3-208.4-215.4-208.4S62.6,134.4,58.8,251.2
			c0,1-0.9,1.7-1.9,1.7c-1,0-1.7-0.9-1.7-1.9c1.9-56.9,25.4-110.2,66.4-149.9c41.1-39.9,95.2-61.9,152.4-61.9s111.3,22,152.4,61.9
			c41,39.8,64.6,93.1,66.4,149.9C492.9,252.1,492.2,252.9,491.2,252.9L491.2,252.9z M274.1,477.1c-41.9,0-82.6-11.9-117.7-34.5
			c-34.2-21.9-61.6-52.7-79.4-89.3c-0.4-0.9,0-2,0.9-2.3c0.9-0.4,2,0,2.3,0.9c35.8,74,112,121.8,194,121.8s158.1-47.8,194-121.8
			c0.4-0.9,1.5-1.2,2.3-0.9c0.9,0.4,1.2,1.5,0.9,2.3c-17.9,36.6-45.3,67.4-79.5,89.3C356.7,465.3,315.9,477.1,274.1,477.1
			L274.1,477.1z"/>
		<path d="M160.9,403.6l4.7,3.6l2.5-8.2L160.9,403.6z M162.8,416.6l1.2-4l-7.9-5.9l-3.5,2.2l-5.9-4.4l23.1-13.3l5.9,4.4l-6.7,25.7
			L162.8,416.6z M188.5,418.1l3.7,1.9c1,0.5,1.9,0.6,2.6,0.4c0.7-0.2,1.5-0.9,2-1.9c0.5-1,0.6-1.9,0.4-2.6c-0.2-0.7-0.9-1.4-1.9-2
			l-3.7-1.9L188.5,418.1L188.5,418.1z M189.2,432.2l0.1-7.4l-3.5-1.7l-3,5.9l-6.4-3.3l11.2-21.7l10.1,5.2c3,1.5,4.8,3.3,5.8,5.6
			c0.9,2.2,0.7,4.4-0.5,6.9c-0.9,1.6-1.9,2.8-3.1,3.7c-1.2,0.9-2.6,1.4-4.2,1.4l0.7,9.4L189.2,432.2L189.2,432.2z M211,415.4
			l20.4,6.8l-1.9,5.6l-6.7-2.2l-5.9,17.7l-6.9-2.3l5.9-17.7l-6.8-2.2L211,415.4z M235.8,423.3l19.8,3.5l-1,5.4l-12.5-2.1l-0.7,3.7
			l11.4,2l-0.9,5.6l-11.5-2l-0.6,3.8l12.8,2.2l-0.9,5.6l-20.1-3.6L235.8,423.3z M275.1,433.4c-1.6-0.6-2.8-0.9-3.8-0.9
			c-0.6,0-1.1,0.1-1.5,0.4c-0.4,0.2-0.5,0.6-0.6,1.1c0,0.6,0.4,1.1,1,1.5c0.7,0.4,1.7,0.7,3.3,1.2c1.7,0.5,3.1,1,4.2,1.6
			c1.1,0.5,2.1,1.4,2.8,2.3c0.9,1,1.2,2.3,1.1,4.1c0,1.7-0.5,3.1-1.4,4.3c-0.9,1.1-2.1,2-3.7,2.6c-1.5,0.5-3.2,0.9-5.2,0.7
			c-2.1,0-4.2-0.4-6.3-1.2c-2.1-0.7-4-1.7-5.4-3l2.8-5.4c1.2,1.1,2.7,2,4.4,2.8c1.7,0.7,3.3,1.1,4.6,1.2c0.7,0,1.4-0.1,1.9-0.4
			c0.5-0.2,0.6-0.7,0.7-1.2c0-0.6-0.4-1.2-1.1-1.6c-0.7-0.4-1.9-0.7-3.3-1.2c-1.7-0.5-3.1-1-4.2-1.5c-1.1-0.5-2.1-1.2-2.8-2.2
			s-1.2-2.3-1.1-4c0-1.6,0.5-3,1.4-4.1s2.1-2.1,3.6-2.6c1.5-0.6,3.3-0.9,5.3-0.9c1.9,0,3.7,0.4,5.4,0.9c1.9,0.6,3.3,1.2,4.7,2.2
			l-2.8,5.6C278,434.6,276.5,434,275.1,433.4L275.1,433.4z M298.2,441.2l5.9-0.9l-4.1-7.4L298.2,441.2z M308.8,448.8l-2-3.7
			l-9.8,1.5l-0.9,4.1l-7.4,1.1l6.7-25.8l7.4-1.1l13.6,22.7L308.8,448.8L308.8,448.8z M333,416.7l6.3-2.1l7.9,23.2l-5.8,2l-14.2-9.5
			l4.3,12.8l-6.3,2.1l-7.9-23.1l5.9-2l14.2,9.5L333,416.7z M360.8,420.9l5.2-2.8l-6.4-5.6L360.8,420.9z M373.4,424.5l-3.2-2.7
			l-8.6,4.8l0.6,4.1l-6.5,3.6l-2.7-26.4l6.5-3.6l20.7,16.6L373.4,424.5L373.4,424.5z M371.4,396.6l5.8-4.4l11.2,14.6l8.2-6.3
			l3.7,4.8L386.5,416L371.4,396.6z"/>
		
			<linearGradient id="SVGID_1_" gradientUnits="userSpaceOnUse" x1="38.2773" y1="557.7062" x2="277.7855" y2="557.7062" gradientTransform="matrix(1.2351 0 0 -1.2351 83.9263 859.5462)">
			<stop  offset="0" style="stop-color:#7C1A1D"/>
			<stop  offset="1" style="stop-color:#94393A"/>
		</linearGradient>
		<path class="st3" d="M200.7,101c-14.6,2.1-24.1,7.3-33.7,13.6c-2.3,1.6-4.4,3.2-6.8,4.8c-2.5,1.6-5.1,2.8-7.2,4.6
			c-4.2,3.6-4.2,10-12.6,10.7c-0.1-8.8-9.5-7.4-10.1-2.1c-0.2,2.6,1.9,5.4,3,7.2c0.9,1.2,3.7,5.7,2,7.2c-0.6,0.6-3.3,1.1-5.2,4.9
			c-4,8,1.2,18.9,8.2,19.6c2.5-2.3,1.2-8,0.5-11.4c-0.7-3.5,0.1-2.2,1-5.1c0.4-1.2,0.9-4.6,1.4-5.4c2,10,2,25.7,8.8,33.5
			c2,2.3,5.1,4.7,6.7,7.5c2.8,5.2-3.5,7.2-6.2,10c-0.9,0.9-0.9,1.1-0.7,2.7c0.4,4,0.7,8.2,2.5,11.7c0.4,0.7,1.1,1.6,1.1,2.5
			c0,2.5-1.7,9.1-1.1,15.7c1.4,0.5,2.2,0.4,3.5,0.4h1.5c0,1.5,0.9,3.8,1.6,5.1c2.5,1.5,10,0.9,13.5,0.7c0.4-3-5.3-6.4-8-11.1
			c-2.6-4.4-1.6-11.6,1.2-14.8c2.1,0.5,6.9,7.4,8,9.6c1,2,1.9,4.1,2.5,6.5c0.4,1.4,1.1,7.2,1.4,7.5l1.1-0.1c4.4-2.8,2.7,3,5.9,3.7
			c2.6,0.6,9,1.2,10.5-1c1-1.5-0.1-3.7-1.1-4.4c-1.2-0.9-2.8-1.2-4-2.3c-3.1-3-6.4-13.5-3.5-18.6c0.7-1.4,1.7-2.5,2.6-3.5l4.4-4.9
			c3.3-4.2,6.8-9.5,12.5-9.6c3.5,0,7.2,1.4,9.9,2.5c8.8,3.2,20.6,6.8,30.3,7.3c9.3,0.5,18.2-0.4,26.9-1.2c7.5-0.7,14.9-1.5,22.7-1.4
			c2,5.3,1.9,14,2.1,20c4.7,2.8,1.6,10.5,4.2,15.1c2,3.5,3.8,2.1,6.7,1.4c4-1,5.1-0.7,9.1-0.6c-0.4-5.8-6.5-7.7-8.3-12.6
			c-1.9-5.1,2.7-11.2,4.2-15.4c0.9-2.6,2.3-5.6,5.2-2.6c2.8,3.1-0.6,11,1.5,13.5c0.6,0.7,2.1,1.1,3,2.2c1.9,2.2,0.4,6.2,0.5,9
			c3.7,0.1,4.9,0,8.4-1c3.5-1,4.3-1.1,8.2-0.9c-1.1-1.6-3.3-3.1-6.4-7.9c-3-4.6-5.1-10.9-1.5-15.9c1.6-2.3,2-1.5,5.3-2.3
			c12.6-3,9.6-1.2,18.3,0.9c12.4,3,36.8,1.4,48.7-1c1.1-4.8,5.2-6.9,5.1-12.1c-0.1-0.1-0.1-0.1-0.5-0.2c-2.6-1-13.3-1.2-13.6-8.8
			c-0.1-3.1,2.8-4.3,3.5-7.7c0.6-3.6-1.2-7.7-0.5-10.6c4.6-0.4,3.5-2.1,5.8-3.8c2.7-2,19-4.6,20.3-9.4c-1.6-0.5-2.2-1-4.4-1.2h-2.3
			c-1.4,0-2.8,0-3.3-0.1L411,149c-6.7-3.8-13.7-5.2-20.9-8c-6.9-2.7-9.4-5.2-13.5-9.6c-3-3.1-2.6-2.8-5.3-6.2
			c-5.3-6.7-13.5-9.5-21.9-12.7c-3.1-1.1-5.4-1.9-8.9-2.6c-3.3-0.6-6.4-1.1-9.6-2c-8.5-2.5-7.5-3.6-18.6-4.4
			c-7.5-0.6-15.3-0.4-23.1-0.1c-3.8,0.1-7.9,0.4-11.7,0.2c-3.5,0-6.9-0.7-10.3-1.1c-3.7-0.4-7.8-0.2-11.7-0.1
			c-3.8,0.1-7.5,0.2-11.2,0c-10.5-0.9-19.8-2.2-29.6-2.2C210.5,100,205.8,100.3,200.7,101L200.7,101z"/>
		<path class="st2" d="M325.2,351c-1.5,2.2-2.8,4.2-3.8,5.8l-0.4,0.1c0-1.4,0.4-3,1.1-4.9c0.7-2,1.6-4,2.6-5.9c1-2,2.1-4,3.3-5.9
			c1.2-2,2.2-3.5,3.2-4.7c1.4-2,2.5-3.1,3.5-3.6c1-0.5,1.2,0,0.9,1.5c-0.4,1-1.1,2.5-2.2,4.4c-1.1,2-2.3,4.1-3.8,6.3
			C328.2,346.7,326.7,348.9,325.2,351L325.2,351z M216.3,344.6c-1.6,2-3.5,4.2-5.6,6.5c-2.1,2.5-4.3,4.9-6.7,7.4
			c-2.3,2.6-4.6,4.8-6.8,6.8c-2.1,2-4.1,3.6-5.7,4.8c-1.6,1.2-2.7,1.7-3.3,1.5c-1.2-0.5-1.7-1.6-1.6-3.5s0.6-4.1,1.6-6.5
			c1-2.6,2.2-5.2,4-8.2c1.7-2.8,3.6-5.6,5.6-8c2-2.1,4.1-4.2,6.3-6.2c2.2-2,4.4-3.6,6.5-4.9c2.1-1.2,4.1-2.2,5.8-2.6
			c1.7-0.5,3.1-0.2,3.8,0.5c0.5,0.5,0.7,1.2,0.9,2.3c0,1.1-0.1,2.2-0.6,3.2l-0.9,2.2C219,341.1,217.9,342.6,216.3,344.6L216.3,344.6
			z M158.8,357.4c0-1.4,0.4-3,1-4.9c0.6-2,1.5-4,2.5-6.1c1-2.1,2.1-4.1,3.2-6.1c1.1-2,2.2-3.6,3.2-4.8c1.4-1.9,2.5-3,3.5-3.3
			c1-0.5,1.4,0,1,1.4c-0.4,1.1-1.1,2.7-2.2,4.7c-1.1,2-2.5,4.2-3.8,6.4c-1.5,2.2-3,4.6-4.4,6.8C161.2,353.7,159.8,355.7,158.8,357.4
			z M423.4,347.4c0.1-0.1-0.4,0.5-1.5,1.7c-1.1,1.2-2.5,2.7-4.3,4.6s-3.8,3.7-6.2,5.8c-2.2,2.1-4.4,4-6.7,5.6
			c-2.2,1.7-4.3,3.1-5.9,4.2c-1.7,1.1-3,1.6-3.8,1.5s-1.4-0.9-1.4-2.3s0.6-4,2-7.4c1.7-4.1,3.3-7.5,5.1-10.4
			c1.7-2.8,3.1-5.6,4.2-8.2c0.4-0.6,0.9-1.4,1.5-2.5s1.1-2.2,1.5-3.6c0.4-1.2,0.5-2.6,0.5-4.1c0-1.4-0.4-2.7-1.1-4
			c-1.9-3.1-3.8-4.7-6.2-4.8c-2.2-0.1-4.4,0.4-6.5,1.5c-2.1,1.1-4,2.5-5.4,4.1c-1.5,1.6-2.5,2.5-2.8,2.7c-4.2,3.8-7.9,7.7-11,11.4
			c-3.1,3.8-6.2,7.9-9,12.2c0.7-2,1.4-3.8,2-5.6c0.6-1.6,1.2-3.2,2.1-4.9c0.7-1.6,1.7-3.3,2.8-5.2s2.5-4,4.2-6.4
			c0.4-0.6,0.2-1.7-0.1-3.1c-0.5-1.4-1.1-2.6-1.9-3.8s-1.6-2.1-2.5-2.7c-0.9-0.6-1.5-0.6-1.9,0.1c-0.2,0.2-0.4,0.4-0.5,0.6
			c0,0.1-0.2,0.4-0.5,0.6c-1.4,1.1-2.7,2.5-4.2,4.2c-1.5,1.6-3,3.3-4.4,5.2c-1.6,1.9-3.1,3.6-4.6,5.2c-1.5,1.7-3,3.2-4.2,4.4
			l-7.4,7.3c-0.2,0.5-0.5,1-0.7,1.4l-2,2c-1.7,1.7-3.3,3.2-5.1,4.7c-1.7,1.4-4.2,2.3-7.4,3c-1.4,0.6-2.7,0.6-4.2,0l1.9-2.3
			c1.9-2.1,3.8-4.6,5.9-7.3c2.2-2.7,4.1-5.4,5.8-8.3c1.7-2.8,2.8-5.6,3.6-8.3c0.7-2.7,0.6-5.2-0.1-7.3c-0.6-1.4-1.5-2.6-2.7-3.7
			c-1.2-1.1-2.6-1.6-4.3-1.4c-2.2,0.4-4.6,1.2-6.8,2.8c-1.7-1.1-3.3-2-5.2-2.5c-1.7-0.5-3.2-0.6-4.6-0.4c-2.5,0.2-5.2,1.1-8.2,2.8
			c-2.8,1.6-5.7,3.7-8.5,6.2c-2.8,2.5-5.4,5.3-8,8.6c-2.5,3.2-4.6,6.7-6.2,10.3c-0.4,0.7-0.6,1.5-1,2.2c-3.3,3.1-6.7,6.1-9.9,8.9
			c-5.4,4.6-11.6,7.8-18.3,9.3c-2.8,0.6-4.9,0.4-6.2-0.4c-1.2-0.9-2.1-2.2-2.5-4c-0.4-2-0.1-4.2,0.7-6.7c0.9-2.6,2.1-5.1,3.8-7.7
			c1.7-2.6,3.6-5.1,5.8-7.5c2.1-2.5,4.3-4.7,6.5-6.7c2.2-2,4.3-3.6,6.3-4.7c2-1.2,3.6-1.9,4.9-2c1.6,0,2,0.6,1.4,1.7
			c-0.6,1.2-1.7,2.6-3.2,4.2c-1.5,1.6-3.1,3.2-4.8,4.7c-1.7,1.5-2.8,2.5-3.6,3c1.7,1,3.3,1.7,5.1,2.1c1.7,0.4,3.6,0.2,5.6-0.6
			c1.2-1.1,2.5-2.2,3.7-3.5c1.2-1.2,2.3-2.5,3.2-3.8c0.9-1.4,1.5-3,1.7-4.6c0.2-1.6,0-3.5-0.7-5.6c-0.6-2.1-1.9-3.7-3.6-4.7
			c-1.9-1-3.6-1.5-5.2-1.4c-3.3,0.1-6.9,1.4-10.7,3.6s-7.4,5.1-10.9,8.5c-3.5,3.5-6.4,7.2-9.1,11.2c-0.5,0.9-1,1.6-1.5,2.5
			c-1,1.1-2.1,2.2-3.6,3.7c-1.9,1.9-3.8,3.7-6.2,5.8c-2.2,2-4.4,4-6.7,5.6c-2.3,2-4.6,3.5-6.4,4.4c-1.9,1.1-3.1,1.1-3.7,0.2
			c-1.4-1.2-1-4.3,1.1-9.3c0.6-1.5,1.4-3.2,2.3-5.1c1-2,2.1-4,3.2-6.1l3.7-6.3c1.2-2.1,2.5-4,3.7-5.7c0.2-0.4,0-1.1-0.5-2.2
			c-0.6-1.1-1.4-2.2-2.1-3.5c-0.9-1.2-1.7-2.1-2.6-2.8c-0.9-0.6-1.5-0.7-1.9-0.1l-2,3.1c-0.4-3-1.5-5.1-3.2-6.3
			c-1.9-1.2-3.7-1.9-5.6-1.9c-3.6,0.2-7.3,1.5-11.1,3.7s-7.4,5.1-10.7,8.5c-3.3,3.5-6.3,7.3-8.9,11.5c-1.1,2-2.2,3.8-3.1,5.7
			c-0.6,0.5-1.1,1.1-1.7,1.6c-1.7,1.9-3.3,3.5-5.2,4.8c-1.7,1.4-4.2,2.3-7.3,3c-1.6,0.4-3.1,0.4-4.4,0l0.1-0.1
			c1.9-2,3.8-4.4,6.2-7.4c2.3-2.8,4.4-5.8,6.4-8.9c2-3.1,3.5-6.1,4.4-9c1-3,1-5.7,0-8c-0.6-1.5-1.5-2.7-2.7-3.8
			c-1.2-1.1-2.6-1.5-4.3-1.2c-2.5,0.2-4.9,1.4-7.4,3.3c-2.3,2-4.6,4.3-6.5,7.2c-2,2.7-3.7,5.7-5.1,8.6c-1.4,3-2.3,5.6-2.8,7.7
			c-0.6,2.6-0.7,4.9-0.5,7.2c0.2,2.2,0.9,4.2,1.9,5.8c-2.7,2.6-5.4,4.7-7.8,6.3c-2.5,1.6-4.3,2-5.7,1c-0.9-0.6-1.2-1.6-1.4-3.3
			c0-1.6,0.2-4.1,1-7.4c0.4-2.1,1.4-4.6,3.1-7.3c1.7-2.7,3.3-5.6,5.1-8.4l36.3-56.4c0.2-0.4,0.1-1.1-0.5-2.3
			c-0.5-1.2-1.2-2.3-2.1-3.5c-0.9-1.1-1.7-2-2.6-2.7c-0.9-0.6-1.6-0.7-2.1-0.1c-0.1,0.2-1.1,1.7-2.8,4.4c-1.7,2.7-4,6.1-6.4,10
			c-2.6,4-5.3,8.3-8.3,12.8c-3,4.6-5.7,8.8-8.2,12.7c-2.5,4-4.7,7.3-6.4,10c-1.7,2.7-2.7,4.3-2.8,4.7c-0.7,1.6-2,3.7-3.7,6.4
			c-1.7,2.7-3.3,5.7-4.8,9c-1.5,3.2-2.7,6.7-3.6,10.4c-0.9,3.6-1,7-0.1,10.4c0.7,2.7,2.1,5.2,4.3,7.3c2.2,2.1,4.6,3.3,7.4,3.3
			c4.2,0.1,7.8-1,10.7-3.3s5.6-4.9,7.8-8c2.6,1.2,5.7,1.6,9,1.2c1.9-0.1,3.6-0.6,5.3-1.4c1.5-0.7,3-1.5,4.3-2.3c0,1.4,0,2.7,0.1,4.1
			c0.5,3.5,2,6.3,4.7,8.3c2.3,1.7,4.8,2.2,7.4,1.5c2.5-0.6,4.9-2.1,7.4-4.2c2.3-2.1,4.7-4.7,7-7.8c2.2-3.1,4.4-6.1,6.4-9.1
			c-0.4,2-0.9,4.2-1.5,6.4c-0.4,1.6-0.5,3.2-0.2,4.9c0.1,1.7,0.6,3.2,1.4,4.7c0.7,1.5,1.7,2.7,3,3.7c1.2,1,2.8,1.5,4.6,1.5
			c2,0.1,4-0.4,6.1-1.5c2.1-1.1,4.2-2.5,6.2-4c2-1.5,3.8-3.1,5.6-4.8c1.7-1.7,3.2-3.1,4.2-4.2l1.2-1.2c0,0.5,0,1,0.1,1.5
			c0.2,2.6,1,5.1,2.1,7.2c1.1,2.1,2.8,3.8,5.1,5.1c2.2,1.4,5.1,2,8.4,2.1c4.6,0.1,8.8-0.9,12.7-2.8c4-2,7.4-4.4,10.5-7.2
			c1.2-1.1,2.8-2.5,4.7-4c0.1,2,0.5,3.8,1.2,5.7c1,2.6,2.5,4.8,4.4,6.5c2.1,1.9,4.9,2.6,8.8,2.6c2.7,0,6.1-1.2,9.9-3.6
			c3.8-2.5,7.5-5.6,11.1-9.4c1.5,0.7,3.1,1.4,4.8,1.7c1.7,0.4,3.6,0.4,5.4,0.1c1.9-0.1,3.6-0.6,5.2-1.5c1.7-0.9,3.2-1.9,4.8-2.8
			c1.5-1.1,2.8-2.2,4.1-3.3c1.2-1.1,2.2-2.2,3-3.1l2.2-2.2c2.2-2.3,4.6-4.6,6.8-6.8c-1.2,2.3-2.5,5.2-4,8.4
			c-1.5,3.2-3.3,7.2-5.8,11.9c-0.6,1.4-0.6,2.7-0.1,4.1c0.5,1.4,1.4,2.5,2.5,3.5c1.1,1,2.3,1.6,3.8,2c1.5,0.4,2.7,0.1,4-0.6h0.4
			c2.1-2.5,4.9-5.8,8.4-9.9c3.5-4.1,6.9-8.3,10.6-12.6c3.7-4.3,7.2-8.3,10.6-12s6.2-6.5,8.4-8.3c-1.5,2.5-2.7,4.8-3.8,7
			c-1.1,2.2-2.1,4.3-3.1,6.5c-0.9,2.1-1.7,4.3-2.5,6.5s-1.4,4.6-2,7c-0.5,2-0.7,4.1-0.9,6.1c0,2,0.1,3.8,0.5,5.4s1.1,3,2.1,4
			c1,1,2.5,1.6,4.2,1.7c2,0.1,4.1-0.4,6.4-1.5c2.3-1.1,4.8-2.5,7.2-4.2c2.3-1.6,4.6-3.3,6.5-4.9c2.1-1.7,3.6-3.1,4.7-4.2
			c0.7-0.6,1.9-1.7,3.2-3.1c1.5-1.4,2.7-3,3.8-4.7c1.1-1.7,1.9-3.6,2.1-5.6C425,351.3,424.6,349.3,423.4,347.4L423.4,347.4z"/>
	</g>
	<path class="st4" d="M317.7,341.7c1.7-3.6,3.8-6.8,6.2-9.9c-0.6-0.2-1.5-0.2-2.5,0c-2,0.2-4.4,1.6-7.5,4.2
		c-3.1,2.6-6.1,5.7-8.9,9.4s-5.3,7.7-7.2,12c-2,4.2-2.7,8.2-2.5,11.7c0.1,1.6,0.9,2.7,2.1,3.5c1.2,0.7,2.5,1,3.5,0.7
		c2.2-0.4,4.7-1.4,7.2-3.1s4.9-4,7.2-6.7c-0.9-1.7-1.4-3.6-1.6-5.7c-0.2-2.1-0.1-4.4,0.5-7C314.7,348.3,315.9,345.3,317.7,341.7z"/>
</g>
</svg>
